<?xml version="1.0" encoding="iso-8859-1"?>
<!-- Generator: Adobe Illustrator 19.0.0, SVG Export Plug-In . SVG Version: 6.00 Build 0)  -->
<svg version="1.1" id="Capa_1" xmlns="http://www.w3.org/2000/svg" xmlns:xlink="http://www.w3.org/1999/xlink" x="0px" y="0px"
	 viewBox="0 0 480 480" style="enable-background:new 0 0 480 480;" xml:space="preserve">
<path style="fill:#754C29;" d="M352,8H128l-16,64h256L352,8z"/>
<path style="fill:#C49A6C;" d="M112,72H96v32h16h168h88h16V72h-16H112z"/>
<g>
	<path style="fill:#A97C50;" d="M132.88,472h214.24l7.68-136H125.2L132.88,472z"/>
	<path style="fill:#A97C50;" d="M280,104H112l2.24,40H280V104z"/>
	<path style="fill:#A97C50;" d="M280,144h85.76l2.24-40h-88V144z"/>
</g>
<path style="fill:#FFDA44;" d="M280,176l32,32v48h-64v-48L280,176v-32H104l8,192h256l8-192h-96V176z"/>
<path style="fill:#64C37D;" d="M248,256h64v-48l-32-32l-32,32V256z"/>
<path style="fill:#231F20;" d="M384,64h-9.76L359.76,6.064C358.871,2.501,355.672,0.001,352,0H128
	c-3.672,0.001-6.871,2.501-7.76,6.064L105.76,64H96c-4.418,0-8,3.582-8,8v32c0,4.418,3.582,8,8,8h8.44l1.344,24H104
	c-4.418-0.004-8.003,3.575-8.007,7.993c0,0.114,0.002,0.229,0.007,0.343l8,192c0.18,4.287,3.71,7.668,8,7.664h5.648l7.248,128.456
	c0.242,4.239,3.754,7.551,8,7.544H347.12c4.246,0.007,7.758-3.305,8-7.544L362.352,344H368c4.29,0.004,7.82-3.377,8-7.664l8-192
	c0.186-4.414-3.243-8.143-7.657-8.329C376.229,136.002,376.114,136,376,136h-1.784l1.344-24H384c4.418,0,8-3.582,8-8V72
	C392,67.582,388.418,64,384,64z M134.248,16h211.504l12,48H122.248L134.248,16z M120.464,112H272v24H121.808L120.464,112z
	 M339.552,464H140.448l-6.784-120h212.672L339.552,464z M360.352,328h-240.68l-7.328-176H272v20.688l-29.656,29.656
	c-1.5,1.5-2.344,3.534-2.344,5.656v48c0,4.418,3.582,8,8,8h64c4.418,0,8-3.582,8-8v-48c0-2.122-0.844-4.156-2.344-5.656L288,172.688
	V152h79.656L360.352,328z M280,187.312l24,24V248h-48v-36.688L280,187.312z M358.192,136H288v-24h71.536L358.192,136z M376,96H104
	V80h272V96z"/>
<g>
</g>
<g>
</g>
<g>
</g>
<g>
</g>
<g>
</g>
<g>
</g>
<g>
</g>
<g>
</g>
<g>
</g>
<g>
</g>
<g>
</g>
<g>
</g>
<g>
</g>
<g>
</g>
<g>
</g>
</svg>
