<?xml version="1.0" encoding="iso-8859-1"?>
<!-- Generator: Adobe Illustrator 19.0.0, SVG Export Plug-In . SVG Version: 6.00 Build 0)  -->
<svg version="1.1" id="Capa_1" xmlns="http://www.w3.org/2000/svg" xmlns:xlink="http://www.w3.org/1999/xlink" x="0px" y="0px"
	 viewBox="0 0 480 480" style="enable-background:new 0 0 480 480;" xml:space="preserve">
<g>
	<path style="fill:#FDEFE2;" d="M96.189,63.712L93.437,104h269.2l-5.52-80l-1.12-16h-312l47,42.792
		C94.61,54.08,96.522,58.839,96.189,63.712L96.189,63.712z"/>
	<path style="fill:#FDEFE2;" d="M70.557,437.6c-1.29,17.661,11.981,33.025,29.643,34.315c0.758,0.055,1.517,0.084,2.277,0.085h251.2
		c17.722-0.009,32.081-14.382,32.072-32.104c0-0.713-0.024-1.425-0.072-2.136l-0.96-13.76h-313.2L70.557,437.6z"/>
</g>
<path style="fill:#A97C50;" d="M362.637,104H83.997l-24,320h336l-8.96-120l-15.04-200H362.637z M111.733,376l12.6-167.96
	L111.733,376z M126.725,176.096L128.533,152L126.725,176.096z"/>
<path style="fill:#414042;" d="M371.997,104l15.04,200h48.96V40c0-8.837-7.163-16-16-16h-62.88l5.52,80H371.997z"/>
<g>
	<path style="fill:#231F20;" d="M126.125,184.072h0.608c4.197,0.012,7.689-3.222,8-7.408l1.808-24.088
		c0.416-4.399-2.813-8.302-7.212-8.717s-8.302,2.813-8.717,7.212c-0.01,0.102-0.017,0.204-0.023,0.305l-1.808,24.096
		C118.436,179.874,121.723,183.723,126.125,184.072L126.125,184.072z"/>
	<path style="fill:#231F20;" d="M111.133,384h0.608c4.194,0.012,7.685-3.218,8-7.4l12.6-168c0.329-4.418-2.986-8.267-7.404-8.596
		c-4.418-0.329-8.267,2.986-8.596,7.404L103.757,375.4c-0.344,4.405,2.948,8.254,7.353,8.598
		C111.118,383.999,111.126,383.999,111.133,384L111.133,384z"/>
	<path style="fill:#231F20;" d="M419.997,16h-55.424l-0.576-8.56c-0.295-4.198-3.791-7.45-8-7.44h-312
		C39.579,0.003,36,3.587,36.003,8.006c0.002,2.248,0.949,4.392,2.61,5.906l46.984,42.8c1.81,1.639,2.766,4.02,2.592,6.456
		l-2.24,32.8h-1.952c-4.194-0.012-7.685,3.218-8,7.4l-24,320c-0.349,4.404,2.938,8.258,7.343,8.607
		c0.219,0.017,0.438,0.026,0.657,0.025h2.936l-0.36,5.016c-1.604,22.077,14.993,41.275,37.071,42.879
		c0.943,0.069,1.888,0.104,2.833,0.105h251.2c11.075,0.046,21.664-4.54,29.208-12.648c7.583-8.127,11.481-19.019,10.776-30.112
		v-0.04l-0.368-5.2h2.704c4.418,0.012,8.01-3.559,8.022-7.977c0.001-0.208-0.007-0.415-0.022-0.623L395.621,312h40.376
		c4.418,0,8-3.582,8-8V40C443.997,26.745,433.252,16,419.997,16L419.997,16z M96.381,44.88L64.661,16h283.872l5.48,79.248
		L354.069,96H102.005l2.16-31.736C104.693,56.949,101.821,49.799,96.381,44.88L96.381,44.88z M91.421,112h273.152l22.8,304H68.621
		L91.421,112z M377.693,438.296c0.893,13.273-9.144,24.757-22.418,25.65c-0.527,0.035-1.054,0.054-1.582,0.054H102.477
		c-13.295-0.035-24.043-10.841-24.008-24.135c0.001-0.566,0.023-1.132,0.064-1.697l0.44-6.168h298.28L377.693,438.296z M427.997,296
		h-33.536l-14.464-192.6c-0.315-4.182-3.806-7.412-8-7.4h-1.888l-4.424-64h54.312c4.418,0,8,3.582,8,8V296z"/>
</g>
<g>
</g>
<g>
</g>
<g>
</g>
<g>
</g>
<g>
</g>
<g>
</g>
<g>
</g>
<g>
</g>
<g>
</g>
<g>
</g>
<g>
</g>
<g>
</g>
<g>
</g>
<g>
</g>
<g>
</g>
</svg>
