<?xml version="1.0" encoding="iso-8859-1"?>
<!-- Generator: Adobe Illustrator 19.0.0, SVG Export Plug-In . SVG Version: 6.00 Build 0)  -->
<svg version="1.1" id="Capa_1" xmlns="http://www.w3.org/2000/svg" xmlns:xlink="http://www.w3.org/1999/xlink" x="0px" y="0px"
	 viewBox="0 0 480 480" style="enable-background:new 0 0 480 480;" xml:space="preserve">
<path style="fill:#FFDA44;" d="M56,472h368V8H56V472z M144,120l45.256-45.256L144,120l-22.624-22.624L144,120z M144,200
	l45.256-45.256L144,200l-22.624-22.624L144,200z M144,280l45.256-45.256L144,280l-22.624-22.624L144,280z"/>
<g>
	<path style="fill:#231F20;" d="M424,480H56c-4.418,0-8-3.582-8-8V8c0-4.418,3.582-8,8-8h368c4.418,0,8,3.582,8,8v464
		C432,476.418,428.418,480,424,480z M64,464h352V16H64V464z"/>
	<path style="fill:#231F20;" d="M360,112H232c-4.418,0-8-3.582-8-8s3.582-8,8-8h128c4.418,0,8,3.582,8,8S364.418,112,360,112z"/>
	<path style="fill:#231F20;" d="M144,128c-2.122,0-4.156-0.844-5.656-2.344l-22.624-22.624c-3.069-3.178-2.981-8.243,0.197-11.312
		c3.1-2.994,8.015-2.994,11.115,0L144,108.688l39.6-39.6c3.178-3.069,8.243-2.981,11.312,0.197c2.994,3.1,2.994,8.015,0,11.115
		l-45.256,45.256C148.156,127.156,146.122,128,144,128z"/>
	<path style="fill:#231F20;" d="M360,184H232c-4.418,0-8-3.582-8-8s3.582-8,8-8h128c4.418,0,8,3.582,8,8S364.418,184,360,184z"/>
	<path style="fill:#231F20;" d="M144,208c-2.122,0-4.156-0.844-5.656-2.344l-22.624-22.624c-3.069-3.178-2.981-8.243,0.197-11.312
		c3.1-2.994,8.015-2.994,11.115,0L144,188.688l39.6-39.6c3.178-3.069,8.243-2.981,11.312,0.197c2.994,3.1,2.994,8.015,0,11.115
		l-45.256,45.256C148.156,207.156,146.122,208,144,208z"/>
	<path style="fill:#231F20;" d="M360,264H232c-4.418,0-8-3.582-8-8s3.582-8,8-8h128c4.418,0,8,3.582,8,8S364.418,264,360,264z"/>
	<path style="fill:#231F20;" d="M144,288c-2.122,0-4.156-0.844-5.656-2.344l-22.624-22.624c-3.178-3.069-3.266-8.134-0.196-11.312
		c3.069-3.178,8.134-3.266,11.312-0.196c0.067,0.064,0.132,0.13,0.196,0.196L144,268.688l39.6-39.6
		c3.07-3.178,8.134-3.266,11.312-0.196c3.178,3.069,3.266,8.134,0.196,11.312c-0.064,0.067-0.13,0.132-0.196,0.196l-45.256,45.256
		C148.156,287.156,146.122,288,144,288z"/>
	<path style="fill:#231F20;" d="M360,424h-96c-4.418,0-8-3.582-8-8s3.582-8,8-8h96c4.418,0,8,3.582,8,8S364.418,424,360,424z"/>
</g>
<g>
</g>
<g>
</g>
<g>
</g>
<g>
</g>
<g>
</g>
<g>
</g>
<g>
</g>
<g>
</g>
<g>
</g>
<g>
</g>
<g>
</g>
<g>
</g>
<g>
</g>
<g>
</g>
<g>
</g>
</svg>
