<?xml version="1.0" encoding="iso-8859-1"?>
<!-- Generator: Adobe Illustrator 19.0.0, SVG Export Plug-In . SVG Version: 6.00 Build 0)  -->
<svg version="1.1" id="Capa_1" xmlns="http://www.w3.org/2000/svg" xmlns:xlink="http://www.w3.org/1999/xlink" x="0px" y="0px"
	 viewBox="0 0 480 480" style="enable-background:new 0 0 480 480;" xml:space="preserve">
<g>
	<path style="fill:#754C29;" d="M228,472h39.968l-16-159.712l16,159.712h32l-16-159.712l16,159.712H332l-24-160h-16h-64V472z"/>
	<path style="fill:#754C29;" d="M164,312h-16l-24,160h32.032l16-159.712l-16,159.712h32l16-159.712l-16,159.712H228V312H164z"/>
</g>
<g>
	<path style="fill:#58595B;" d="M164,248v64h128v-64H164z"/>
	<path style="fill:#58595B;" d="M178.08,54.08C169.034,63.045,163.962,75.264,164,88h128c0-26.51-21.49-48-48-48h-32
		C199.264,39.961,187.045,45.034,178.08,54.08z"/>
</g>
<g>
	<path style="fill:#A97C50;" d="M228,248h64h16l12.8-128l3.2-32h-32h-64V248z"/>
	<path style="fill:#A97C50;" d="M228,88h-64h-64l36.96,49.2L148,248h16h64L228,88z"/>
</g>
<g>
	<path style="fill:#58595B;" d="M348,120v128h32V104c0-8.837-7.163-16-16-16h-40l-3.2,32H348z"/>
	<circle style="fill:#58595B;" cx="228" cy="24" r="16"/>
</g>
<g>
	<path style="fill:#231F20;" d="M364,80h-64.64c-3.655-25.126-23.741-44.658-48.96-47.608c1.039-2.677,1.581-5.521,1.6-8.392
		c0-13.255-10.745-24-24-24c-13.255,0-24,10.745-24,24c0.019,2.871,0.561,5.715,1.6,8.392C180.353,35.285,160.235,54.844,156.632,80
		H100c-4.418,0-8,3.582-8,8c0,1.731,0.561,3.415,1.6,4.8l35.616,47.408L140.04,248.8c0.412,4.103,3.876,7.221,8,7.2h8v48H148
		c-3.961,0-7.326,2.899-7.912,6.816l-24,160c-0.654,4.37,2.358,8.442,6.728,9.096c0.392,0.059,0.788,0.088,1.184,0.088h208
		c4.418,0,8-3.582,8-8c0-0.396-0.029-0.792-0.088-1.184l-24-160C315.326,306.899,311.961,304,308,304h-8v-48h8
		c4.124,0.021,7.588-3.097,8-7.2L328.04,128H340v120c0,4.418,3.582,8,8,8h32c4.418,0,8-3.582,8-8V104C388,90.745,377.255,80,364,80z
		 M228,16c4.418,0,8,3.582,8,8s-3.582,8-8,8s-8-3.582-8-8S223.582,16,228,16z M183.76,59.712C191.216,52.17,201.395,47.948,212,48
		h32c19.002,0.021,35.375,13.387,39.2,32H172.8C174.347,72.295,178.164,65.229,183.76,59.712L183.76,59.712z M144.92,136.408
		c-0.148-1.45-0.687-2.833-1.56-4L116,96h104v144h-64.76L144.92,136.408z M244.704,320l14.4,144H236V320H244.704z M276.704,320
		l14.4,144H275.2l-14.4-144H276.704z M220,464h-23.128l14.4-144H220L220,464z M180.8,464h-15.92l14.4-144h15.92L180.8,464z
		 M154.888,320h8.312l-14.4,144h-15.512L154.888,320z M322.712,464H307.2l-14.4-144h8.328L322.712,464z M284,304H172v-16h56
		c4.418,0,8-3.582,8-8s-3.582-8-8-8h-56v-16h112V304z M300.8,240H236V96h79.2l-2.088,20.88l-0.24,2.32L300.8,240z M372,240h-16V120
		c0-4.418-3.582-8-8-8h-18.4l1.6-16H364c4.418,0,8,3.582,8,8V240z"/>
	<path style="fill:#231F20;" d="M252,288h16c4.418,0,8-3.582,8-8s-3.582-8-8-8h-16c-4.418,0-8,3.582-8,8S247.582,288,252,288z"/>
</g>
<g>
</g>
<g>
</g>
<g>
</g>
<g>
</g>
<g>
</g>
<g>
</g>
<g>
</g>
<g>
</g>
<g>
</g>
<g>
</g>
<g>
</g>
<g>
</g>
<g>
</g>
<g>
</g>
<g>
</g>
</svg>
