<?xml version="1.0" encoding="iso-8859-1"?>
<!-- Generator: Adobe Illustrator 19.0.0, SVG Export Plug-In . SVG Version: 6.00 Build 0)  -->
<svg version="1.1" id="Capa_1" xmlns="http://www.w3.org/2000/svg" xmlns:xlink="http://www.w3.org/1999/xlink" x="0px" y="0px"
	 viewBox="0 0 480.095 480.095" style="enable-background:new 0 0 480.095 480.095;" xml:space="preserve">
<path style="fill:#C49A6C;" d="M368.055,234.527c-77.621-51.307-178.379-51.307-256,0c-5.52,3.68-10.88,7.52-16,11.6
	c-8.453,6.707-16.42,14.006-23.84,21.84l-20.08-18.72l-21.84,23.36l21.44,20.08c-26.825,37.188-41.949,81.531-43.44,127.36h431.496
	c-4.386-110.339-97.389-196.23-207.728-191.844c-36.456,1.449-71.821,12.846-102.264,32.956
	c92.082-60.894,216.093-35.611,276.986,56.471c20.157,30.48,31.572,65.903,33.006,102.417h32
	C469.306,345.054,430.644,275.912,368.055,234.527L368.055,234.527z"/>
<path style="fill:#8B5E3C;" d="M40.319,420.047h-32c-0.16,2.64-0.24,5.28-0.24,8c-0.367,8.02,0.035,16.057,1.2,24h461.6
	c0.795-7.975,1.187-15.985,1.176-24c0-2.72-0.08-5.36-0.24-8H40.319z"/>
<path style="fill:#414042;" d="M312.055,60.047v-16v-16h-128v16v16H312.055z"/>
<path style="fill:#231F20;" d="M480.055,420.047c-0.049-0.574-0.164-1.141-0.344-1.688c-3.074-75.469-41.47-145.096-103.656-187.968
	V44.047c0-4.418-3.582-8-8-8h-48v-8c0-4.418-3.582-8-8-8h-128c-4.418,0-8,3.582-8,8v8h-64c-4.418,0-8,3.582-8,8v186.296
	c-4.632,3.2-8.984,6.336-12.968,9.52c-6.677,5.296-13.063,10.949-19.128,16.936l-14.4-13.4c-3.229-3.007-8.283-2.831-11.296,0.392
	l-21.808,23.36c-3.005,3.231-2.826,8.285,0.4,11.296l16.376,15.344c-24.991,36.885-39.127,80.045-40.8,124.568
	c-0.403,0.859-0.449,1.843-0.128,2.736c-0.152,2.296-0.248,4.552-0.248,6.952v5.816c-0.159,4.203,0.028,8.412,0.56,12.584l0.68,6.4
	c0.412,4.103,3.876,7.221,8,7.2h461.6c4.109,0,7.549-3.112,7.96-7.2c0.8-8.128,1.24-16.472,1.24-24.8c0-2.4-0.096-4.736-0.208-6.96
	C479.967,420.745,480.023,420.397,480.055,420.047L480.055,420.047z M192.055,36.047h112v16h-112V36.047z M120.055,52.047h56v8
	c0,4.418,3.582,8,8,8h128c4.418,0,8-3.582,8-8v-8h40v168.112c-0.48-0.28-0.984-0.512-1.464-0.8c-1.768-1.008-3.584-1.92-5.384-2.88
	c-3.112-1.672-6.232-3.32-9.408-4.848c-2.024-0.968-4.072-1.856-6.112-2.768c-3.04-1.352-6.08-2.672-9.168-3.896
	c-2.152-0.856-4.328-1.656-6.504-2.448c-3.051-1.115-6.12-2.163-9.208-3.144c-2.232-0.704-4.464-1.392-6.712-2.032
	c-3.128-0.896-6.28-1.704-9.448-2.472c-2.248-0.536-4.48-1.088-6.744-1.6c-3.296-0.696-6.616-1.272-9.944-1.832
	c-2.152-0.36-4.296-0.8-6.472-1.064c-3.688-0.52-7.408-0.88-11.136-1.224c-1.832-0.168-3.656-0.416-5.496-0.544
	c-2.92-0.2-5.864-0.248-8.8-0.344v-16.216h8c4.418,0,8-3.582,8-8s-3.582-8-8-8h-32c-4.418,0-8,3.582-8,8s3.582,8,8,8h8v16.264
	c-2.936,0.096-5.88,0.144-8.8,0.344c-1.84,0.128-3.656,0.376-5.488,0.544c-3.728,0.344-7.456,0.704-11.152,1.224
	c-2.16,0.296-4.288,0.696-6.4,1.056c-3.344,0.56-6.68,1.144-9.992,1.848c-2.248,0.472-4.472,1.016-6.696,1.552
	c-3.2,0.8-6.36,1.6-9.504,2.488c-2.229,0.64-4.448,1.312-6.656,2.016c-3.12,0.992-6.208,2.048-9.288,3.2
	c-2.152,0.8-4.296,1.6-6.4,2.4c-3.12,1.232-6.2,2.568-9.272,3.936c-2.008,0.896-4,1.776-6.008,2.728c-3.2,1.544-6.4,3.2-9.552,4.912
	c-1.752,0.944-3.528,1.832-5.256,2.816c-0.488,0.272-0.992,0.512-1.48,0.8L120.055,52.047z M57.207,286.855l-15.608-14.624
	l10.928-11.688l14.232,13.28c3.211,2.993,8.234,2.839,11.256-0.344c7.168-7.565,14.862-14.615,23.024-21.096
	c4.672-3.728,9.728-7.392,15.432-11.2c36.636-24.285,79.63-37.204,123.584-37.136c5.52,0,11.013,0.2,16.48,0.6
	c38.252,2.763,75.143,15.354,107.104,36.552c57.868,38.453,94.656,101.546,99.616,170.848h-16
	c-8.77-114.474-108.678-200.163-223.152-191.394c-35.248,2.7-69.226,14.345-98.72,33.834c-3.578,2.593-4.376,7.595-1.783,11.172
	c2.432,3.356,7.026,4.299,10.583,2.172c88.392-58.471,207.448-34.214,265.919,54.178c17.802,26.913,28.531,57.88,31.193,90.038
	H16.855c2.838-41.334,17.166-81.053,41.368-114.68C60.574,294.106,60.139,289.606,57.207,286.855L57.207,286.855z M463.511,444.047
	H16.455c-0.404-3.365-0.538-6.757-0.4-10.144v-5.856h448C464.055,433.399,463.871,438.759,463.511,444.047z"/>
<g>
</g>
<g>
</g>
<g>
</g>
<g>
</g>
<g>
</g>
<g>
</g>
<g>
</g>
<g>
</g>
<g>
</g>
<g>
</g>
<g>
</g>
<g>
</g>
<g>
</g>
<g>
</g>
<g>
</g>
</svg>
