<?xml version="1.0" encoding="iso-8859-1"?>
<!-- Generator: Adobe Illustrator 19.0.0, SVG Export Plug-In . SVG Version: 6.00 Build 0)  -->
<svg version="1.1" id="Capa_1" xmlns="http://www.w3.org/2000/svg" xmlns:xlink="http://www.w3.org/1999/xlink" x="0px" y="0px"
	 viewBox="0 0 480 480" style="enable-background:new 0 0 480 480;" xml:space="preserve">
<path style="fill:#414042;" d="M420,240v128h32V240h-16H420z"/>
<g>
	<path style="fill:#FBE0C4;" d="M114.4,408l-2.88,28.8c-1.794,17.555,10.983,33.241,28.538,35.035
		c1.097,0.112,2.199,0.167,3.302,0.165h185.28c17.647,0.03,31.976-14.252,32.005-31.898c0.002-1.103-0.053-2.205-0.165-3.302
		L356,392H116L114.4,408z"/>
	<path style="fill:#FBE0C4;" d="M119.2,360l-3.2,32h240l-8-80H124L119.2,360z"/>
	<path style="fill:#FBE0C4;" d="M317.52,152H154.48c-8.217,0-15.098,6.224-15.92,14.4L124,312h224l-11.2-112l-3.36-33.6
		C332.618,158.224,325.737,152,317.52,152z"/>
</g>
<circle style="fill:#754C29;" cx="236" cy="24" r="16"/>
<path style="fill:#C2B59B;" d="M244,40h-16c-44.183,0-80,35.817-80,80h176C324,75.817,288.183,40,244,40z"/>
<g>
	<path style="fill:#414042;" d="M324,152c8.809-0.065,15.935-7.191,16-16c-0.026-8.826-7.174-15.974-16-16H148
		c-8.809,0.065-15.935,7.191-16,16c0.026,8.826,7.174,15.974,16,16H324z"/>
	<path style="fill:#414042;" d="M119.2,360H92v24v24h22.4l1.6-16L119.2,360z"/>
</g>
<path style="fill:#231F20;" d="M452,232h-8v-32c0.022-22.091-17.868-40.018-39.96-40.04c-19.038-0.019-35.452,13.383-39.24,32.04
	H344l-2.64-26.4c-0.378-3.595-1.57-7.056-3.488-10.12c1.052-0.74,2.039-1.567,2.952-2.472c4.607-4.457,7.198-10.598,7.176-17.008
	c-0.048-10.26-6.613-19.356-16.336-22.632c-3.101-40.467-33.475-73.564-73.528-80.12c1.233-2.927,1.867-6.072,1.864-9.248
	c0-13.255-10.745-24-24-24c-13.255,0-24,10.745-24,24c-0.003,3.176,0.631,6.321,1.864,9.248
	c-40.044,6.554-70.416,39.638-73.528,80.096c-3.471,1.122-6.625,3.056-9.2,5.64c-4.594,4.465-7.171,10.61-7.136,17.016
	c0.014,7.743,3.773,15,10.088,19.48c-1.918,3.067-3.111,6.531-3.488,10.128L112,352H92c-4.418,0-8,3.582-8,8v14.528
	C74.445,371.15,68.042,362.134,68,352V184c-0.026-22.08-17.92-39.974-40-40c-4.418,0-8,3.582-8,8s3.582,8,8,8
	c13.255,0,24,10.745,24,24v168c0.024,19.001,13.389,35.373,32,39.2V408c0,4.418,3.582,8,8,8h13.6l-2,20
	c-2.236,21.951,13.747,41.559,35.698,43.794c1.35,0.137,2.705,0.206,4.062,0.206h185.28c22.065,0.03,39.976-17.833,40.006-39.898
	c0.002-1.37-0.067-2.739-0.206-4.102l-22.8-228H372c4.418,0,8-3.582,8-8c0-13.255,10.745-24,24-24s24,10.745,24,24v32h-8
	c-4.418,0-8,3.582-8,8v128c0,4.418,3.582,8,8,8h32c4.418,0,8-3.582,8-8V240C460,235.582,456.418,232,452,232z M127.2,360.8
	l4.08-40.8H340.8l6.4,64H124.84l2.32-23.2H127.2z M139.24,240H332.8l6.4,64H132.84L139.24,240z M140.84,224l5.68-56.8
	c0.411-4.088,3.851-7.2,7.96-7.2h163.04c4.124-0.021,7.588,3.097,8,7.2l5.68,56.8H140.84z M236,16c4.418,0,8,3.582,8,8s-3.582,8-8,8
	s-8-3.582-8-8S231.582,16,236,16z M228,48h16c36.653,0.044,67.441,27.579,71.56,64H156.44C160.56,75.579,191.347,48.044,228,48z
	 M142.448,130.296c1.465-1.484,3.467-2.312,5.552-2.296h176c4.418,0,8,3.582,8,8c0.007,2.158-0.879,4.223-2.448,5.704
	c-1.465,1.484-3.467,2.312-5.552,2.296H148c-4.418,0-8-3.582-8-8C139.993,133.842,140.879,131.777,142.448,130.296z M100,400v-32
	h10.4l-3.2,32H100z M352.52,437.6c1.352,13.159-8.219,24.923-21.379,26.275c-0.831,0.085-1.666,0.127-2.501,0.125H143.36
	c-13.233,0.025-23.98-10.683-24.005-23.915c-0.002-0.83,0.04-1.659,0.125-2.485l3.76-37.6H348.8l3.76,37.6H352.52z M444,360h-16V248
	h16V360z"/>
<g>
</g>
<g>
</g>
<g>
</g>
<g>
</g>
<g>
</g>
<g>
</g>
<g>
</g>
<g>
</g>
<g>
</g>
<g>
</g>
<g>
</g>
<g>
</g>
<g>
</g>
<g>
</g>
<g>
</g>
</svg>
