<?xml version="1.0" encoding="iso-8859-1"?>
<!-- Generator: Adobe Illustrator 19.0.0, SVG Export Plug-In . SVG Version: 6.00 Build 0)  -->
<svg version="1.1" id="Capa_1" xmlns="http://www.w3.org/2000/svg" xmlns:xlink="http://www.w3.org/1999/xlink" x="0px" y="0px"
	 viewBox="0 0 480 480" style="enable-background:new 0 0 480 480;" xml:space="preserve">
<path style="fill:#754C29;" d="M160,224v32h16h128h16v-32h-16H176H160z"/>
<g>
	<path style="fill:#FBE0C4;" d="M128,8l48,216h128L352,8H128z M167.888,40l3.528,15.872L167.888,40z M178.592,88.16L201.664,192
		L178.592,88.16z"/>
	<path style="fill:#FBE0C4;" d="M128,472h224l-48-216H176L128,472z M167.888,440l33.776-152L167.888,440z"/>
</g>
<g>
	<path style="fill:#231F20;" d="M171.408,63.864c-3.746-0.004-6.987-2.607-7.8-6.264l-3.528-15.864
		c-1.038-4.295,1.603-8.617,5.897-9.655c4.295-1.038,8.617,1.603,9.655,5.897c0.023,0.095,0.044,0.19,0.064,0.286l3.504,15.872
		c0.958,4.312-1.76,8.585-6.072,9.544C172.563,63.802,171.986,63.864,171.408,63.864L171.408,63.864z"/>
	<path style="fill:#231F20;" d="M320,264c4.418,0,8-3.582,8-8v-32c0-4.418-3.582-8-8-8h-6.032l45.84-206.264
		c0.959-4.313-1.76-8.587-6.073-9.545C353.165,0.064,352.583,0,352,0H128c-4.418,0.001-7.999,3.583-7.999,8.001
		c0,0.583,0.064,1.165,0.191,1.735L166.032,216H160c-4.418,0-8,3.582-8,8v32c0,4.418,3.582,8,8,8h6.032l-45.84,206.264
		c-0.959,4.313,1.76,8.587,6.073,9.545c0.57,0.127,1.151,0.191,1.735,0.191h224c4.418-0.001,7.999-3.583,7.999-8.001
		c0-0.583-0.064-1.165-0.191-1.735L313.968,264H320z M168,248v-16h144v16H168z M137.976,16h204.048L297.6,216H182.4L137.976,16z
		 M342.024,464H137.976L182.4,264h115.2L342.024,464z"/>
	<path style="fill:#231F20;" d="M186.4,86.4c-0.855-4.335-5.062-7.155-9.397-6.3c-4.335,0.855-7.155,5.062-6.3,9.397
		c0.024,0.123,0.051,0.245,0.081,0.367l23.072,103.84c0.814,3.66,4.059,6.263,7.808,6.264c0.583-0.002,1.165-0.064,1.736-0.184
		c4.314-0.954,7.037-5.225,6.083-9.539c-0.001-0.004-0.002-0.008-0.003-0.013L186.4,86.4z"/>
	<path style="fill:#231F20;" d="M166.16,447.816c0.571,0.12,1.153,0.182,1.736,0.184c3.746-0.004,6.987-2.607,7.8-6.264l33.784-152
		c0.959-4.314-1.762-8.589-6.076-9.548c-4.314-0.959-8.589,1.762-9.548,6.076l-33.776,152c-0.961,4.312,1.755,8.588,6.067,9.549
		C166.152,447.814,166.156,447.815,166.16,447.816z"/>
</g>
<g>
</g>
<g>
</g>
<g>
</g>
<g>
</g>
<g>
</g>
<g>
</g>
<g>
</g>
<g>
</g>
<g>
</g>
<g>
</g>
<g>
</g>
<g>
</g>
<g>
</g>
<g>
</g>
<g>
</g>
</svg>
