<?xml version="1.0" encoding="iso-8859-1"?>
<!-- Generator: Adobe Illustrator 19.0.0, SVG Export Plug-In . SVG Version: 6.00 Build 0)  -->
<svg version="1.1" id="Capa_1" xmlns="http://www.w3.org/2000/svg" xmlns:xlink="http://www.w3.org/1999/xlink" x="0px" y="0px"
	 viewBox="0 0 480 480" style="enable-background:new 0 0 480 480;" xml:space="preserve">
<path style="fill:#754C29;" d="M340,32V8H116v24h8h208H340z"/>
<path style="fill:#FBE0C4;" d="M276,208l56-176H124l56,176v24h96V208z"/>
<path style="fill:#754C29;" d="M292,264v-32H164v32C164,264.472,292,264,292,264z"/>
<g>
	<path style="fill:#FFAF46;" d="M292,344v-80c0,0-128,0.472-128,0v80H292z"/>
	<path style="fill:#FFAF46;" d="M292,280h32v64h-32V280z"/>
	<path style="fill:#FFAF46;" d="M292,376H164v-96h-32v160h192v-64H292z"/>
</g>
<g>
	<path style="fill:#754C29;" d="M108,440v32h240v-32h-24H132H108z"/>
	<path style="fill:#754C29;" d="M324,344h48v32h-48V344z"/>
	<path style="fill:#754C29;" d="M164,344h128v32H164V344z"/>
</g>
<path style="fill:#FFAF46;" d="M292,344h32v32h-32V344z"/>
<g>
	<path style="fill:#231F20;" d="M372,336h-40v-56c0-4.418-3.582-8-8-8h-24v-40c0-4.418-3.582-8-8-8h-8v-14.76L337.848,40H340
		c4.418,0,8-3.582,8-8V8c0-4.418-3.582-8-8-8H116c-4.418,0-8,3.582-8,8v24c0,4.418,3.582,8,8,8h2.152L172,209.24V224h-8
		c-4.418,0-8,3.582-8,8v40h-24c-4.418,0-8,3.582-8,8v152h-16c-4.418,0-8,3.582-8,8v32c0,4.418,3.582,8,8,8h240c4.418,0,8-3.582,8-8
		v-32c0-4.418-3.582-8-8-8h-16v-48h40c4.418,0,8-3.582,8-8v-32C380,339.582,376.418,336,372,336z M316,288v48h-16v-48H316z
		 M172,271.952c6.992,0.208,77.848,0.2,112,0.08v64H172V271.952z M172,352h112v16H172V352z M300,352h16v16h-16V352z M124,16h208v8
		H124V16z M187.624,205.6L134.944,40h186.112l-52.68,165.6c-0.247,0.776-0.374,1.586-0.376,2.4v16h-80v-16
		C187.998,207.186,187.871,206.376,187.624,205.6z M284,240v16c-40.216,0.136-92.888,0.256-112,0.128V240L284,240z M340,464H116v-16
		h224V464z M316,432H140V288h16v88c0,4.418,3.582,8,8,8h152V432z M364,368h-32v-16h32V368z"/>
	<path style="fill:#231F20;" d="M204,400h-16c-4.418,0-8,3.582-8,8s3.582,8,8,8h16c4.418,0,8-3.582,8-8S208.418,400,204,400z"/>
	<path style="fill:#231F20;" d="M268,400h-16c-4.418,0-8,3.582-8,8s3.582,8,8,8h16c4.418,0,8-3.582,8-8S272.418,400,268,400z"/>
</g>
<g>
</g>
<g>
</g>
<g>
</g>
<g>
</g>
<g>
</g>
<g>
</g>
<g>
</g>
<g>
</g>
<g>
</g>
<g>
</g>
<g>
</g>
<g>
</g>
<g>
</g>
<g>
</g>
<g>
</g>
</svg>
