<?xml version="1.0" encoding="iso-8859-1"?>
<!-- Generator: Adobe Illustrator 19.0.0, SVG Export Plug-In . SVG Version: 6.00 Build 0)  -->
<svg version="1.1" id="Capa_1" xmlns="http://www.w3.org/2000/svg" xmlns:xlink="http://www.w3.org/1999/xlink" x="0px" y="0px"
	 viewBox="0 0 480.106 480.106" style="enable-background:new 0 0 480.106 480.106;" xml:space="preserve">
<path style="fill:#A97C50;" d="M112.05,440.106h256v-176h-256V440.106z M160.05,360.106h160v48h-160V360.106z"/>
<g>
	<path style="fill:#754C29;" d="M80.05,440.106v32h320v-32h-32h-256H80.05z"/>
	<path style="fill:#754C29;" d="M96.05,264.106h16h256h16v-32h-144h-144V264.106z"/>
	<circle style="fill:#754C29;" cx="384.05" cy="24.106" r="16"/>
	<path style="fill:#754C29;" d="M144.05,120.106h192v-32h-96h-96V120.106z"/>
</g>
<path style="fill:#FFAF46;" d="M320.05,360.106h-160v48h160V360.106z"/>
<path style="fill:#A97C50;" d="M144.05,136.106c0,53.019,42.981,96,96,96s96-42.981,96-96v-16h-192V136.106z"/>
<g>
	<path style="fill:#231F20;" d="M400.05,432.106h-24v-160h8c4.418,0,8-3.582,8-8v-32c0-4.418-3.582-8-8-8h-88.8
		c30.327-18.98,48.762-52.223,48.8-88v-48c0-4.418-3.582-8-8-8h-88v-8h136c4.418,0,8-3.582,8-8V46.634
		c12.497-4.418,19.046-18.131,14.627-30.627S388.546-3.039,376.05,1.379s-19.046,18.131-14.627,30.627
		c2.416,6.835,7.793,12.211,14.627,14.627v9.472h-136c-4.418,0-8,3.582-8,8v16h-88c-4.418,0-8,3.582-8,8v48
		c0.038,35.777,18.473,69.02,48.8,88h-88.8c-4.418,0-8,3.582-8,8v32c0,4.418,3.582,8,8,8h8v160h-24c-4.418,0-8,3.582-8,8v32
		c0,4.418,3.582,8,8,8h320c4.418,0,8-3.582,8-8v-32C408.05,435.688,404.468,432.106,400.05,432.106z M384.05,16.106
		c4.418,0,8,3.582,8,8s-3.582,8-8,8s-8-3.582-8-8S379.631,16.106,384.05,16.106z M152.05,96.106h176v16h-176V96.106z
		 M152.05,136.106v-8h176v8c0,48.601-39.399,88-88,88S152.05,184.707,152.05,136.106z M104.05,240.106h272v16h-272V240.106z
		 M120.05,272.106h240v160h-240V272.106z M392.05,464.106h-304v-16h304V464.106z"/>
	<path style="fill:#231F20;" d="M320.05,352.106h-160c-4.418,0-8,3.582-8,8v48c0,4.418,3.582,8,8,8h160c4.418,0,8-3.582,8-8v-48
		C328.05,355.688,324.468,352.106,320.05,352.106z M312.05,400.106h-144v-32h144V400.106z"/>
	<path style="fill:#231F20;" d="M184.05,392.106h112c4.418,0,8-3.582,8-8s-3.582-8-8-8h-112c-4.418,0-8,3.582-8,8
		S179.631,392.106,184.05,392.106z"/>
</g>
<g>
</g>
<g>
</g>
<g>
</g>
<g>
</g>
<g>
</g>
<g>
</g>
<g>
</g>
<g>
</g>
<g>
</g>
<g>
</g>
<g>
</g>
<g>
</g>
<g>
</g>
<g>
</g>
<g>
</g>
</svg>
