<?xml version="1.0" encoding="iso-8859-1"?>
<!-- Generator: Adobe Illustrator 19.0.0, SVG Export Plug-In . SVG Version: 6.00 Build 0)  -->
<svg version="1.1" id="Capa_1" xmlns="http://www.w3.org/2000/svg" xmlns:xlink="http://www.w3.org/1999/xlink" x="0px" y="0px"
	 viewBox="0 0 480 480" style="enable-background:new 0 0 480 480;" xml:space="preserve">
<g>
	<path style="fill:#754C29;" d="M24,440v32h432v-32h-24H48H24z"/>
	<path style="fill:#754C29;" d="M104.24,200H24v32h24h384h24v-32h-80.24H104.24z"/>
</g>
<g>
	<path style="fill:#603913;" d="M440,32c0-8.837-7.163-16-16-16s-16,7.163-16,16v16h32V32z"/>
	<path style="fill:#603913;" d="M240,104c-61.023,0.002-115.419,38.467-135.76,96h271.52C355.419,142.467,301.023,104.002,240,104z"
		/>
</g>
<path style="fill:#A97C50;" d="M48,440h384V232H48V440z M96,280h288v112H96V280z"/>
<path style="fill:#FFAF46;" d="M384,280H96v112h288V280z M240,352c-8.837,0-16-7.163-16-16s7.163-16,16-16c8.837,0,16,7.163,16,16
	S248.837,352,240,352z"/>
<circle style="fill:#A97C50;" cx="240" cy="336" r="16"/>
<g>
	<path style="fill:#231F20;" d="M456,240c4.418,0,8-3.582,8-8v-32c0-4.418-3.582-8-8-8h-74.824
		C359.248,136.858,307.256,99.502,248,96.312V80h184V56h8c4.418,0,8-3.582,8-8V32c-0.042-10.134-6.445-19.15-16-22.528V8
		c0-4.418-3.582-8-8-8s-8,3.582-8,8v1.472C406.445,12.85,400.042,21.866,400,32v16c0,4.418,3.582,8,8,8h8v8H232v32.312
		C172.744,99.502,120.752,136.858,98.824,192H24c-4.418,0-8,3.582-8,8v32c0,4.418,3.582,8,8,8h16v192H24c-4.418,0-8,3.582-8,8v32
		c0,4.418,3.582,8,8,8h432c4.418,0,8-3.582,8-8v-32c0-4.418-3.582-8-8-8h-16V240H456z M416,32c0-4.418,3.582-8,8-8s8,3.582,8,8v8
		h-16V32z M240,112c53.423,0.058,101.881,31.339,123.928,80H116.072C138.119,143.339,186.577,112.058,240,112z M32,208h416v16H32
		V208z M448,464H32v-16h416V464z M424,432H56V240h368V432z"/>
	<path style="fill:#231F20;" d="M96,400h288c4.418,0,8-3.582,8-8V280c0-4.418-3.582-8-8-8H96c-4.418,0-8,3.582-8,8v112
		C88,396.418,91.582,400,96,400z M104,288h272v96H104V288z"/>
	<path style="fill:#231F20;" d="M240,312c-13.255,0-24,10.745-24,24s10.745,24,24,24c13.255,0,24-10.745,24-24S253.255,312,240,312z
		 M240,344c-4.418,0-8-3.582-8-8s3.582-8,8-8s8,3.582,8,8S244.418,344,240,344z"/>
</g>
<g>
</g>
<g>
</g>
<g>
</g>
<g>
</g>
<g>
</g>
<g>
</g>
<g>
</g>
<g>
</g>
<g>
</g>
<g>
</g>
<g>
</g>
<g>
</g>
<g>
</g>
<g>
</g>
<g>
</g>
</svg>
