<?xml version="1.0" encoding="iso-8859-1"?>
<!-- Generator: Adobe Illustrator 19.0.0, SVG Export Plug-In . SVG Version: 6.00 Build 0)  -->
<svg version="1.1" id="Capa_1" xmlns="http://www.w3.org/2000/svg" xmlns:xlink="http://www.w3.org/1999/xlink" x="0px" y="0px"
	 viewBox="0 0 480 480" style="enable-background:new 0 0 480 480;" xml:space="preserve">
<path style="fill:#414042;" d="M420,8c-8.837,0-16,7.163-16,16v8h32v-8C436,15.163,428.837,8,420,8z"/>
<g>
	<path style="fill:#A97C50;" d="M348,440V296H60v144H348z M92,328h224v80H92V328z"/>
	<path style="fill:#A97C50;" d="M340,168v-16H68v16c0,53.019,42.981,96,96,96h80C297.019,264,340,221.019,340,168z"/>
</g>
<g>
	<path style="fill:#754C29;" d="M364,296v-32H244h-80H44v32h16h288H364z"/>
	<path style="fill:#754C29;" d="M44,440v32h320v-32h-16H60H44z"/>
</g>
<g>
	<path style="fill:#414042;" d="M188,88h32v32h-32V88z"/>
	<path style="fill:#414042;" d="M188,24v16h32V24c0-8.837-7.163-16-16-16C195.163,8,188,15.163,188,24z"/>
</g>
<path style="fill:#754C29;" d="M348,152v-32H220h-32H60v32h8h272H348z"/>
<path style="fill:#FFAF46;" d="M92,328h224v80H92V328z"/>
<g>
	<path style="fill:#231F20;" d="M364,256h-64.8c30.327-18.98,48.762-52.223,48.8-88v-8c4.418,0,8-3.582,8-8v-32c0-4.418-3.582-8-8-8
		H228V80h-48v32H60c-4.418,0-8,3.582-8,8v32c0,4.418,3.582,8,8,8v8c0.038,35.777,18.473,69.02,48.8,88H44c-4.418,0-8,3.582-8,8v32
		c0,4.418,3.582,8,8,8h8v128h-8c-4.418,0-8,3.582-8,8v32c0,4.418,3.582,8,8,8h320c4.418,0,8-3.582,8-8v-32c0-4.418-3.582-8-8-8h-8
		V304h8c4.418,0,8-3.582,8-8v-32C372,259.582,368.418,256,364,256z M196,96h16v16h-16V96z M68,128h272v16H68V128z M76,168v-8h256v8
		c-0.057,48.577-39.423,87.943-88,88h-80C115.423,255.943,76.057,216.577,76,168z M356,464H52v-16h304V464z M340,432H68V304h272V432
		z M356,288H52v-16h304V288z"/>
	<path style="fill:#231F20;" d="M188,48h32c4.418,0,8-3.582,8-8V24c0-13.255-10.745-24-24-24c-13.255,0-24,10.745-24,24v16
		C180,44.418,183.582,48,188,48z M196,24c0-4.418,3.582-8,8-8s8,3.582,8,8v8h-16V24z"/>
	<path style="fill:#231F20;" d="M92,416h224c4.418,0,8-3.582,8-8v-80c0-4.418-3.582-8-8-8H92c-4.418,0-8,3.582-8,8v80
		C84,412.418,87.582,416,92,416z M100,336h208v64H100V336z"/>
	<path style="fill:#231F20;" d="M420,0c-13.255,0-24,10.745-24,24h-40c-2.122,0-4.156,0.844-5.656,2.344L320.688,56H164
		c-4.418,0-8,3.582-8,8s3.582,8,8,8h160c2.122,0,4.156-0.844,5.656-2.344L359.312,40H436c4.418,0,8-3.582,8-8v-8
		C444,10.745,433.255,0,420,0z M420,16c4.418,0,8,3.582,8,8h-16C412,19.582,415.582,16,420,16z"/>
</g>
<g>
</g>
<g>
</g>
<g>
</g>
<g>
</g>
<g>
</g>
<g>
</g>
<g>
</g>
<g>
</g>
<g>
</g>
<g>
</g>
<g>
</g>
<g>
</g>
<g>
</g>
<g>
</g>
<g>
</g>
</svg>
