<?xml version="1.0" encoding="iso-8859-1"?>
<!-- Generator: Adobe Illustrator 19.0.0, SVG Export Plug-In . SVG Version: 6.00 Build 0)  -->
<svg version="1.1" id="Capa_1" xmlns="http://www.w3.org/2000/svg" xmlns:xlink="http://www.w3.org/1999/xlink" x="0px" y="0px"
	 viewBox="0 0 480 480" style="enable-background:new 0 0 480 480;" xml:space="preserve">
<g>
	<path style="fill:#ACABB1;" d="M214.5,120h120v32h-120V120z"/>
	<path style="fill:#ACABB1;" d="M94.5,120h120v32h-120V120z"/>
</g>
<path style="fill:#A97C50;" d="M214.5,416V280h-120v136v40c0,8.837,7.163,16,16,16h208c8.837,0,16-7.163,16-16v-40V280h-120V416z"/>
<g>
	<path style="fill:#F6F4F1;" d="M94.5,240h120v-88h-120h-29l29,48V240z"/>
	<path style="fill:#F6F4F1;" d="M214.5,152h120v88h-120V152z"/>
</g>
<circle style="fill:#414042;" cx="214.5" cy="32" r="24"/>
<g>
	<path style="fill:#ACABB1;" d="M334.5,120c0-35.346-28.654-64-64-64h-56v64H334.5z"/>
	<path style="fill:#ACABB1;" d="M214.5,56h-56c-35.346,0-64,28.654-64,64h120V56z"/>
</g>
<g>
	<path style="fill:#414042;" d="M94.5,240h120v40h-120V240z"/>
	<path style="fill:#414042;" d="M214.5,240h120v40h-120V240z"/>
	<path style="fill:#414042;" d="M366.5,152c8.837,0,16,7.163,16,16v128h32V152c0-17.673-14.327-32-32-32h-48v32H366.5z"/>
</g>
<path style="fill:#231F20;" d="M382.5,112h-40.472c-4.111-36.412-34.885-63.947-71.528-64h-28.448
	c2.879-4.843,4.415-10.366,4.448-16c0-17.673-14.327-32-32-32s-32,14.327-32,32c0.033,5.634,1.569,11.157,4.448,16H158.5
	c-39.744,0.048-71.952,32.256-72,72v24h-21c-4.418,0-8,3.582-8,8c0,1.458,0.398,2.888,1.152,4.136L86.5,202.232V456
	c0,13.255,10.745,24,24,24h208c13.255,0,24-10.745,24-24V160h24c4.418,0,8,3.582,8,8v128c0,4.418,3.582,8,8,8h32
	c4.418,0,8-3.582,8-8V152C422.474,129.92,404.58,112.026,382.5,112z M326.5,248v24h-104v-24H326.5z M222.5,232v-72h104v72H222.5z
	 M326.5,144h-104v-16h104V144z M270.5,64c27.826,0.035,51.419,20.465,55.432,48H222.5V64H270.5z M214.5,16c8.837,0,16,7.163,16,16
	s-7.163,16-16,16c-8.837,0-16-7.163-16-16S205.663,16,214.5,16z M206.5,272h-104v-24h104V272z M158.5,64h48v48H103.068
	C107.081,84.465,130.674,64.035,158.5,64z M102.5,128h104v16h-104V128z M79.676,160H206.5v72h-104v-32
	c0-1.458-0.398-2.888-1.152-4.136L79.676,160z M318.5,464h-208c-4.418,0-8-3.582-8-8v-32h16v-16h-16V288h104v120h-72v16h160v-16h-72
	V288h104v120h-16v16h16v32C326.5,460.418,322.918,464,318.5,464z M406.5,288h-16V168c0-13.255-10.745-24-24-24h-24v-16h40
	c13.255,0,24,10.745,24,24V288z"/>
<g>
</g>
<g>
</g>
<g>
</g>
<g>
</g>
<g>
</g>
<g>
</g>
<g>
</g>
<g>
</g>
<g>
</g>
<g>
</g>
<g>
</g>
<g>
</g>
<g>
</g>
<g>
</g>
<g>
</g>
</svg>
