<?xml version="1.0" encoding="iso-8859-1"?>
<!-- Generator: Adobe Illustrator 19.0.0, SVG Export Plug-In . SVG Version: 6.00 Build 0)  -->
<svg version="1.1" id="Capa_1" xmlns="http://www.w3.org/2000/svg" xmlns:xlink="http://www.w3.org/1999/xlink" x="0px" y="0px"
	 viewBox="0 0 479.998 479.998" style="enable-background:new 0 0 479.998 479.998;" xml:space="preserve">
<path style="fill:#8B5E3C;" d="M295.999,87.998h-176v64h176v-16v-32V87.998z"/>
<path style="fill:#414042;" d="M423.999,103.998h-128v32h112c8.837,0,16,7.163,16,16v160h32v-176
	C455.999,118.325,441.672,103.998,423.999,103.998z"/>
<path style="fill:#78B9EB;" d="M28.367,359.998c10.192,45.617,37.343,85.654,75.952,112h207.36
	c36.277-24.757,62.52-61.656,74-104.048c1.16-4.304-26.864-12.552-67.664-12.76c-22.936-0.112-49.912,7.784-78.016,6.984
	c-22.104-0.624-44.904-9.04-66.992-9.232c-24.536-0.216-48.208,7.856-69.008,8.224C59.199,361.966,27.511,356.166,28.367,359.998
	L28.367,359.998z"/>
<g>
	<path style="fill:#231F20;" d="M423.999,95.998h-120v-88c-0.001-4.418-3.584-7.999-8.002-7.998c-0.353,0-0.705,0.023-1.054,0.07
		l-240,32c-4.379,0.584-7.456,4.609-6.871,8.988c0.284,2.127,1.411,4.052,3.127,5.34l60.8,45.6v55.032
		c-61.04,29.552-96,92.168-96,172.968c0.002,63.472,31.373,122.841,83.808,158.608c1.331,0.905,2.903,1.39,4.512,1.392h207.36
		c1.609-0.002,3.181-0.487,4.512-1.392c52.435-35.767,83.806-95.136,83.808-158.608c0-80.8-34.96-143.416-96-172.968v-3.032h104
		c4.418,0,8,3.582,8,8v160c0,4.418,3.582,8,8,8h32c4.418,0,8-3.582,8-8v-176C463.973,113.918,446.079,96.024,423.999,95.998z
		 M127.999,95.998h160v48h-160V95.998z M287.999,17.142v62.856H122.663l-46.2-34.656L287.999,17.142z M309.175,463.998H106.823
		c-34.59-24.318-59.275-60.271-69.544-101.288c20.644,8.595,42.759,13.107,65.12,13.288c11.882-0.749,23.565-3.41,34.6-7.88
		c11.424-4.597,23.51-7.338,35.8-8.12c11.216,0.793,22.237,3.35,32.656,7.576c12.042,4.833,24.79,7.678,37.744,8.424
		c14.054-0.71,27.895-3.74,40.96-8.968c9.399-3.826,19.326-6.198,29.44-7.032c12.118-0.77,24.208,1.877,34.896,7.64
		c8.138,4.487,17.137,7.192,26.4,7.936C363.016,411.322,339.98,442.316,309.175,463.998L309.175,463.998z M383.999,319.998
		c-0.015,13.424-1.567,26.801-4.624,39.872c-8.314-0.215-16.45-2.462-23.696-6.544c-12.912-6.894-27.465-10.12-42.08-9.328
		c-11.876,0.75-23.553,3.408-34.584,7.872c-11.43,4.599-23.521,7.343-35.816,8.128c-11.216-0.793-22.237-3.35-32.656-7.576
		c-12.042-4.833-24.79-7.678-37.744-8.424c-14.047,0.706-27.88,3.736-40.936,8.968c-9.407,3.827-19.342,6.198-29.464,7.032
		c-21.788-0.27-43.292-4.976-63.2-13.832c-1.749-0.833-3.573-1.497-5.448-1.984c-1.14-8.011-1.725-16.092-1.752-24.184
		c0-75.592,32.68-133.8,89.728-160h172.544C351.319,186.198,383.999,244.406,383.999,319.998L383.999,319.998z M447.999,303.998h-16
		v-152c0-13.255-10.745-24-24-24h-104v-16h120c13.255,0,24,10.745,24,24V303.998z"/>
	<path style="fill:#231F20;" d="M135.999,215.998h-32c-4.418,0-8,3.582-8,8s3.582,8,8,8h32c4.418,0,8-3.582,8-8
		S140.417,215.998,135.999,215.998z"/>
	<path style="fill:#231F20;" d="M135.999,247.998h-64c-4.418,0-8,3.582-8,8c0,4.418,3.582,8,8,8h64c4.418,0,8-3.582,8-8
		C143.999,251.58,140.417,247.998,135.999,247.998z"/>
	<path style="fill:#231F20;" d="M135.999,279.998h-32c-4.418,0-8,3.582-8,8s3.582,8,8,8h32c4.418,0,8-3.582,8-8
		S140.417,279.998,135.999,279.998z"/>
	<path style="fill:#231F20;" d="M135.999,311.998h-64c-4.418,0-8,3.582-8,8s3.582,8,8,8h64c4.418,0,8-3.582,8-8
		S140.417,311.998,135.999,311.998z"/>
</g>
<g>
</g>
<g>
</g>
<g>
</g>
<g>
</g>
<g>
</g>
<g>
</g>
<g>
</g>
<g>
</g>
<g>
</g>
<g>
</g>
<g>
</g>
<g>
</g>
<g>
</g>
<g>
</g>
<g>
</g>
</svg>
