<?xml version="1.0" encoding="iso-8859-1"?>
<!-- Generator: Adobe Illustrator 19.0.0, SVG Export Plug-In . SVG Version: 6.00 Build 0)  -->
<svg version="1.1" id="Capa_1" xmlns="http://www.w3.org/2000/svg" xmlns:xlink="http://www.w3.org/1999/xlink" x="0px" y="0px"
	 viewBox="0 0 480.104 480.104" style="enable-background:new 0 0 480.104 480.104;" xml:space="preserve">
<path style="fill:#414042;" d="M324.239,108.555l-9.728-4.592h-50.44v32h45.6l3.248,1.528
	c85.408,40.312,113.48,106.856,113.48,166.472h29.672C456.071,232.027,420.799,154.123,324.239,108.555z"/>
<path style="fill:#8B5E3C;" d="M192.071,439.963c75.076-0.084,135.916-60.924,136-136h-272
	C56.154,379.039,116.995,439.879,192.071,439.963z"/>
<path style="fill:#414042;" d="M264.071,87.963h-144v64h0.4h143.28h0.32v-16v-32V87.963z"/>
<g>
	<path style="fill:#231F20;" d="M327.655,101.323l-9.736-4.56c-1.061-0.519-2.226-0.793-3.408-0.8h-42.44v-6.696l15.592-46.776
		c1.376-4.199-0.913-8.718-5.111-10.093c-0.42-0.138-0.851-0.24-1.289-0.307l-208-32c-4.369-0.661-8.446,2.345-9.107,6.713
		c-0.277,1.829,0.089,3.697,1.035,5.287l46.88,78.088v57.12C25.49,191.482-8.88,297.486,35.303,384.066
		s150.187,120.95,236.767,76.767s120.95-150.187,76.767-236.767c-16.86-33.039-43.728-59.907-76.767-76.767v-3.336h35.8l1.6,0.8
		c94.752,44.72,108.904,118.96,108.904,159.2c0,4.418,3.582,8,8,8h29.696c4.418,0,8-3.582,8-8
		C464.071,216.099,414.351,142.235,327.655,101.323L327.655,101.323z M128.071,95.963h128v48h-128L128.071,95.963z M269.487,46.435
		l-11.184,33.528H124.599L87.703,18.459L269.487,46.435z M352.071,303.963c-0.013,88.366-71.658,159.989-160.024,159.976
		S32.057,392.281,32.071,303.915c0.009-61.303,35.044-117.212,90.208-143.952h139.656
		C316.953,186.879,351.902,242.714,352.071,303.963z M434.231,295.963c-1.896-45.336-21.112-120-117.912-165.704l-3.248-1.528
		c-1.062-0.507-2.223-0.77-3.4-0.768h-37.6v-16h40.648l8.104,3.832c104.848,49.472,125.208,131.016,127.08,180.168H434.231z"/>
	<path style="fill:#231F20;" d="M192.071,303.963c-22.307,0.414-44.567-2.207-66.168-7.792c-22.805-5.851-46.292-8.611-69.832-8.208
		c-4.418,0-8,3.582-8,8v8c0,79.529,64.471,144,144,144s144-64.471,144-144v-8c0-4.418-3.582-8-8-8
		c-23.54-0.403-47.027,2.357-69.832,8.208C236.638,301.756,214.378,304.377,192.071,303.963z M320.071,304.083
		c0,70.692-57.308,128-128,128s-128-57.308-128-128c19.626,0.189,39.156,2.766,58.16,7.672c22.807,5.851,46.297,8.612,69.84,8.208
		c23.54,0.403,47.027-2.357,69.832-8.208C280.909,306.848,300.442,304.272,320.071,304.083z"/>
</g>
<g>
</g>
<g>
</g>
<g>
</g>
<g>
</g>
<g>
</g>
<g>
</g>
<g>
</g>
<g>
</g>
<g>
</g>
<g>
</g>
<g>
</g>
<g>
</g>
<g>
</g>
<g>
</g>
<g>
</g>
</svg>
