<?xml version="1.0" encoding="iso-8859-1"?>
<!-- Generator: Adobe Illustrator 19.0.0, SVG Export Plug-In . SVG Version: 6.00 Build 0)  -->
<svg version="1.1" id="Capa_1" xmlns="http://www.w3.org/2000/svg" xmlns:xlink="http://www.w3.org/1999/xlink" x="0px" y="0px"
	 viewBox="0 0 480 480" style="enable-background:new 0 0 480 480;" xml:space="preserve">
<path style="fill:#E6E7E8;" d="M336,144h32v32h-32V144z"/>
<g>
	<path style="fill:#ACABB1;" d="M128,104V8H32v400h96V104z"/>
	<path style="fill:#ACABB1;" d="M192,104h216V72c0-35.346-28.654-64-64-64H128v96H192z M320,24c17.673,0,32,14.327,32,32
		s-14.327,32-32,32s-32-14.327-32-32S302.327,24,320,24z M208,24c17.673,0,32,14.327,32,32s-14.327,32-32,32s-32-14.327-32-32
		S190.327,24,208,24z"/>
	<path style="fill:#ACABB1;" d="M400,440v-32H32v24v40h336C385.673,472,400,457.673,400,440z"/>
</g>
<g>
	<path style="fill:#E6E7E8;" d="M208,88c17.673,0,32-14.327,32-32s-14.327-32-32-32s-32,14.327-32,32S190.327,88,208,88z M208,48
		c4.418,0,8,3.582,8,8s-3.582,8-8,8s-8-3.582-8-8S203.582,48,208,48z"/>
	<path style="fill:#E6E7E8;" d="M320,88c17.673,0,32-14.327,32-32s-14.327-32-32-32s-32,14.327-32,32S302.327,88,320,88z M320,48
		c4.418,0,8,3.582,8,8s-3.582,8-8,8s-8-3.582-8-8S315.582,48,320,48z"/>
</g>
<g>
	<circle style="fill:#A97C50;" cx="208" cy="56" r="8"/>
	<circle style="fill:#A97C50;" cx="320" cy="56" r="8"/>
</g>
<g>
	<path style="fill:#E6E7E8;" d="M192,104h32v80h-32V104z"/>
	<path style="fill:#E6E7E8;" d="M304,240h32v-64v-32v-40h-32V240z"/>
	<path style="fill:#E6E7E8;" d="M288,240v32h24h16h24v-32h-16h-32H288z"/>
</g>
<path style="fill:#A97C50;" d="M368,312h-96v32c0,26.51,21.49,48,48,48s48-21.49,48-48V312z"/>
<g>
	<path style="fill:#414042;" d="M184,184v80c0,8.837,7.163,16,16,16h16c8.837,0,16-7.163,16-16v-80H184z"/>
	<path style="fill:#414042;" d="M368,184h64c8.837,0,16-7.163,16-16v-16c0-8.837-7.163-16-16-16h-64V184z"/>
</g>
<g>
	<path style="fill:#231F20;" d="M168,56c0,22.091,17.909,40,40,40s40-17.909,40-40s-17.909-40-40-40
		C185.92,16.026,168.026,33.92,168,56z M208,32c13.255,0,24,10.745,24,24s-10.745,24-24,24s-24-10.745-24-24S194.745,32,208,32z"/>
	<path style="fill:#231F20;" d="M280,56c0,22.091,17.909,40,40,40s40-17.909,40-40s-17.909-40-40-40
		C297.92,16.026,280.026,33.92,280,56z M320,32c13.255,0,24,10.745,24,24s-10.745,24-24,24s-24-10.745-24-24S306.745,32,320,32z"/>
	<circle style="fill:#231F20;" cx="208" cy="56" r="16"/>
	<circle style="fill:#231F20;" cx="320" cy="56" r="16"/>
	<path style="fill:#231F20;" d="M376,344h16v-16h-16v-16c0-4.418-3.582-8-8-8h-96c-4.418,0-8,3.582-8,8v32c0,30.928,25.072,56,56,56
		S376,374.928,376,344z M320,384c-22.08-0.026-39.974-17.92-40-40v-24h80v24C359.974,366.08,342.08,383.974,320,384z"/>
	<path style="fill:#231F20;" d="M432,128h-64c-4.418,0-8,3.582-8,8h-16v-24h64c4.418,0,8-3.582,8-8V72
		c-0.048-39.744-32.256-71.952-72-72H32c-4.418,0-8,3.582-8,8v464c0,4.418,3.582,8,8,8h336c22.08-0.026,39.974-17.92,40-40v-32
		c0-4.418-3.582-8-8-8H136V112h48v64c-4.418,0-8,3.582-8,8v80c0,13.255,10.745,24,24,24h16c13.255,0,24-10.745,24-24v-80
		c0-4.418-3.582-8-8-8v-64h64v120h-8c-4.418,0-8,3.582-8,8v32c0,4.418,3.582,8,8,8h16v8h32v-8h16c4.418,0,8-3.582,8-8v-32
		c0-4.418-3.582-8-8-8h-8v-48h16c0,4.418,3.582,8,8,8h64c13.255,0,24-10.745,24-24v-16C456,138.745,445.255,128,432,128z M392,416
		v24c0,13.255-10.745,24-24,24H40v-24h312c4.418,0,8-3.582,8-8s-3.582-8-8-8H40v-8H392z M40,400V16h80v384H40z M136,16h208
		c30.913,0.035,55.965,25.087,56,56v24H136V16z M224,264c0,4.418-3.582,8-8,8h-16c-4.418,0-8-3.582-8-8v-72h32V264z M216,176h-16
		v-64h16V176z M344,264h-48v-16h48V264z M312,232V112h16v120H312z M344,168v-16h16v16H344z M440,168c0,4.418-3.582,8-8,8h-56v-32h56
		c4.418,0,8,3.582,8,8V168z"/>
</g>
<g>
</g>
<g>
</g>
<g>
</g>
<g>
</g>
<g>
</g>
<g>
</g>
<g>
</g>
<g>
</g>
<g>
</g>
<g>
</g>
<g>
</g>
<g>
</g>
<g>
</g>
<g>
</g>
<g>
</g>
</svg>
