<?xml version="1.0" encoding="iso-8859-1"?>
<!-- Generator: Adobe Illustrator 19.0.0, SVG Export Plug-In . SVG Version: 6.00 Build 0)  -->
<svg version="1.1" id="Capa_1" xmlns="http://www.w3.org/2000/svg" xmlns:xlink="http://www.w3.org/1999/xlink" x="0px" y="0px"
	 viewBox="0 0 480 480" style="enable-background:new 0 0 480 480;" xml:space="preserve">
<g>
	<path style="fill:#ACABB1;" d="M312,136h144V72c0-35.346-28.654-64-64-64H88C52.654,8,24,36.654,24,72v64H312z M144,40h192v64H144
		V40z"/>
	<path style="fill:#ACABB1;" d="M24,408v32c0,17.673,14.327,32,32,32h368c17.673,0,32-14.327,32-32v-32H24z"/>
	<path style="fill:#ACABB1;" d="M312,136v48h-16v32h-32v-32h-40v32h-32v-32h-24v-48H56v272h368V136H312z M344,312h-24v16
		c0,35.346-28.654,64-64,64h-32c-35.346,0-64-28.654-64-64v-80h160v16h24c13.255,0,24,10.745,24,24S357.255,312,344,312z"/>
	<path style="fill:#ACABB1;" d="M344,264h-24v48h24c13.255,0,24-10.745,24-24S357.255,264,344,264z"/>
</g>
<g>
	<path style="fill:#414042;" d="M168,184h24h32h40h32h16v-48H168V184z"/>
	<path style="fill:#414042;" d="M192,184h32v32h-32V184z"/>
	<path style="fill:#414042;" d="M264,184h32v32h-32V184z"/>
</g>
<path style="fill:#A97C50;" d="M320,248H160v80c0,35.346,28.654,64,64,64h32c35.346,0,64-28.654,64-64V248z"/>
<path style="fill:#E6E7E8;" d="M144,40h192v64H144V40z"/>
<g>
	<path style="fill:#231F20;" d="M456,144c4.418,0,8-3.582,8-8V72c-0.044-39.746-32.254-71.956-72-72H88
		C48.254,0.044,16.044,32.254,16,72v64c0,4.418,3.582,8,8,8h24v256H24c-4.418,0-8,3.582-8,8v32c0.026,22.08,17.92,39.974,40,40h368
		c22.08-0.026,39.974-17.92,40-40v-32c0-4.418-3.582-8-8-8h-24V144H456z M32,72c0.04-30.911,25.089-55.96,56-56h304
		c30.911,0.04,55.96,25.089,56,56v56H32V72z M272,192h16v16h-16V192z M296,176H176v-32h128v32H296z M200,192h16v16h-16V192z
		 M448,440c0,13.255-10.745,24-24,24H56c-13.255,0-24-10.745-24-24v-24h416V440z M416,400H256c39.746-0.044,71.956-32.254,72-72v-8
		h16c17.673,0,32-14.327,32-32s-14.327-32-32-32h-16v-8c0-4.418-3.582-8-8-8H160c-4.418,0-8,3.582-8,8v80
		c0.044,39.746,32.254,71.956,72,72H64V144h96v40c0,4.418,3.582,8,8,8h16v24c0,4.418,3.582,8,8,8h32c4.418,0,8-3.582,8-8v-24h24v24
		c0,4.418,3.582,8,8,8h32c4.418,0,8-3.582,8-8v-24h8c4.418,0,8-3.582,8-8v-40h96V400z M328,272h16c8.837,0,16,7.163,16,16
		s-7.163,16-16,16h-16V272z M312,264v64c-0.04,30.911-25.089,55.96-56,56h-32c-30.911-0.04-55.96-25.089-56-56v-72h144V264z"/>
	<path style="fill:#231F20;" d="M56,432c-4.418,0-8,3.582-8,8s3.582,8,8,8h368c4.418,0,8-3.582,8-8s-3.582-8-8-8H56z"/>
	<path style="fill:#231F20;" d="M144,112h192c4.418,0,8-3.582,8-8V40c0-4.418-3.582-8-8-8H144c-4.418,0-8,3.582-8,8v64
		C136,108.418,139.582,112,144,112z M152,48h176v48H152V48z"/>
</g>
<g>
</g>
<g>
</g>
<g>
</g>
<g>
</g>
<g>
</g>
<g>
</g>
<g>
</g>
<g>
</g>
<g>
</g>
<g>
</g>
<g>
</g>
<g>
</g>
<g>
</g>
<g>
</g>
<g>
</g>
</svg>
