<?xml version="1.0" encoding="iso-8859-1"?>
<!-- Generator: Adobe Illustrator 19.0.0, SVG Export Plug-In . SVG Version: 6.00 Build 0)  -->
<svg version="1.1" id="Capa_1" xmlns="http://www.w3.org/2000/svg" xmlns:xlink="http://www.w3.org/1999/xlink" x="0px" y="0px"
	 viewBox="0 0 480 480" style="enable-background:new 0 0 480 480;" xml:space="preserve">
<g>
	<path style="fill:#ACABB1;" d="M328,120v352h112V8H120v80c0,17.673,14.327,32,32,32H328z M376,32c17.673,0,32,14.327,32,32
		s-14.327,32-32,32s-32-14.327-32-32S358.327,32,376,32z"/>
	<path style="fill:#ACABB1;" d="M160,360c-17.673,0-32,14.327-32,32v80h200V360H160z"/>
</g>
<g>
	<path style="fill:#414042;" d="M216,184h32h24v-64h-80v40v24H216z"/>
	<path style="fill:#414042;" d="M168,160v-8l-128-8v32l128-8V160z"/>
	<path style="fill:#414042;" d="M216,216h16h16v-32h-32V216z"/>
</g>
<path style="fill:#A97C50;" d="M224,344h16c17.673,0,32-14.327,32-32v-48h-80v48C192,329.673,206.327,344,224,344z"/>
<path style="fill:#414042;" d="M376,96c17.673,0,32-14.327,32-32s-14.327-32-32-32s-32,14.327-32,32S358.327,96,376,96z"/>
<g>
	<path style="fill:#231F20;" d="M440,0H120c-4.418,0-8,3.582-8,8v80c0.026,22.08,17.92,39.974,40,40h32v24h-8
		c0.008-4.232-3.281-7.738-7.504-8l-128-8c-4.41-0.274-8.207,3.079-8.481,7.489C32.005,143.659,32,143.829,32,144v32
		c0,4.418,3.582,8,8,8h0.496l128-8c4.223-0.262,7.512-3.768,7.504-8h8v16c0,4.418,3.582,8,8,8h16v24c0,4.418,3.582,8,8,8h8v8
		c0,4.418,3.582,8,8,8s8-3.582,8-8v-8h8c4.418,0,8-3.582,8-8v-24h16c4.418,0,8-3.582,8-8v-56h40v224h-80
		c22.08-0.026,39.974-17.92,40-40v-48c0-4.418-3.582-8-8-8h-80c-4.418,0-8,3.582-8,8v8h-8c-4.418,0-8,3.582-8,8s3.582,8,8,8h8v24
		c0.026,22.08,17.92,39.974,40,40h-64c-22.08,0.026-39.974,17.92-40,40v80c0,4.418,3.582,8,8,8h312c4.418,0,8-3.582,8-8V8
		C448,3.582,444.418,0,440,0z M160,160.488l-112,7v-14.976l112,7V160.488z M200,312v-40h64v40c0,13.255-10.745,24-24,24h-16
		C210.745,336,200,325.255,200,312z M240,208h-16v-16h16V208z M264,176h-64v-48h64V176z M136,392c0-13.255,10.745-24,24-24h160v96
		H136V392z M432,464h-96V120c0-4.418-3.582-8-8-8H152c-13.255,0-24-10.745-24-24V16h304V464z"/>
	<path style="fill:#231F20;" d="M376,104c22.091,0,40-17.909,40-40s-17.909-40-40-40s-40,17.909-40,40
		C336.026,86.08,353.92,103.974,376,104z M376,40c13.255-0.055,24.044,10.646,24.099,23.9S389.453,87.945,376.199,88
		c-10.207,0.042-19.324-6.376-22.727-16H376c4.418,0,8-3.582,8-8s-3.582-8-8-8h-22.528C356.85,46.445,365.866,40.042,376,40z"/>
	<path style="fill:#231F20;" d="M360,176c-4.418,0-8,3.582-8,8v16c0,4.418,3.582,8,8,8s8-3.582,8-8v-16
		C368,179.582,364.418,176,360,176z"/>
	<path style="fill:#231F20;" d="M360,224c-4.418,0-8,3.582-8,8v16c0,4.418,3.582,8,8,8s8-3.582,8-8v-16
		C368,227.582,364.418,224,360,224z"/>
	<path style="fill:#231F20;" d="M360,272c-4.418,0-8,3.582-8,8v16c0,4.418,3.582,8,8,8s8-3.582,8-8v-16
		C368,275.582,364.418,272,360,272z"/>
</g>
<g>
</g>
<g>
</g>
<g>
</g>
<g>
</g>
<g>
</g>
<g>
</g>
<g>
</g>
<g>
</g>
<g>
</g>
<g>
</g>
<g>
</g>
<g>
</g>
<g>
</g>
<g>
</g>
<g>
</g>
</svg>
