<?xml version="1.0" encoding="iso-8859-1"?>
<!-- Generator: Adobe Illustrator 19.0.0, SVG Export Plug-In . SVG Version: 6.00 Build 0)  -->
<svg version="1.1" id="Capa_1" xmlns="http://www.w3.org/2000/svg" xmlns:xlink="http://www.w3.org/1999/xlink" x="0px" y="0px"
	 viewBox="0 0 480 480" style="enable-background:new 0 0 480 480;" xml:space="preserve">
<g>
	<path style="fill:#ACABB1;" d="M8,120c0,17.673,14.327,32,32,32h400c17.673,0,32-14.327,32-32V8H8V120z M192,40
		c22.091,0,40,17.909,40,40s-17.909,40-40,40s-40-17.909-40-40S169.909,40,192,40z M80,40c22.091,0,40,17.909,40,40
		s-17.909,40-40,40s-40-17.909-40-40S57.909,40,80,40z"/>
	<path style="fill:#ACABB1;" d="M384,184c0,26.51-21.49,48-48,48h-24v40h-32v-40h-80v40h-32v-40h-24c-26.51,0-48-21.49-48-48v-32H48
		v272h384V152h-48V184z M224,376c0,17.673-14.327,32-32,32h-16c-17.673,0-32-14.327-32-32v-48h80V376z M336,376
		c0,17.673-14.327,32-32,32h-16c-17.673,0-32-14.327-32-32v-48h80V376z"/>
	<path style="fill:#ACABB1;" d="M16,456v16h448v-16c0-17.673-14.327-32-32-32H48C30.327,424,16,438.327,16,456z"/>
</g>
<g>
	<path style="fill:#58595B;" d="M80,120c22.091,0,40-17.909,40-40s-17.909-40-40-40S40,57.909,40,80S57.909,120,80,120z"/>
	<path style="fill:#58595B;" d="M192,120c22.091,0,40-17.909,40-40s-17.909-40-40-40s-40,17.909-40,40S169.909,120,192,120z"/>
</g>
<path style="fill:#414042;" d="M144,232h192c26.51,0,48-21.49,48-48v-32H96v32C96,210.51,117.49,232,144,232z"/>
<g>
	<path style="fill:#A97C50;" d="M144,376c0,17.673,14.327,32,32,32h16c17.673,0,32-14.327,32-32v-48h-80V376z"/>
	<path style="fill:#A97C50;" d="M256,376c0,17.673,14.327,32,32,32h16c17.673,0,32-14.327,32-32v-48h-80V376z"/>
</g>
<g>
	<path style="fill:#414042;" d="M168,232h32v40h-32V232z"/>
	<path style="fill:#414042;" d="M280,232h32v40h-32V232z"/>
</g>
<g>
	<path style="fill:#231F20;" d="M480,120V8c0-4.418-3.582-8-8-8H8C3.582,0,0,3.582,0,8v112c0.026,22.08,17.92,39.974,40,40v256.8
		C21.389,420.627,8.024,436.999,8,456v16c0,4.418,3.582,8,8,8h448c4.418,0,8-3.582,8-8v-16c-0.024-19.001-13.389-35.373-32-39.2V160
		C462.08,159.974,479.974,142.08,480,120z M16,120V16h448v104c0,13.255-10.745,24-24,24H40C26.745,144,16,133.255,16,120z M288,240
		h16v24h-16V240z M144,224c-22.08-0.026-39.974-17.92-40-40v-24h272v24c-0.026,22.08-17.92,39.974-40,40H144z M176,240h16v24h-16
		V240z M456,456v8H24v-8c0-13.255,10.745-24,24-24h384C445.255,432,456,442.745,456,456z M424,416H304
		c22.08-0.026,39.974-17.92,40-40v-48c0-4.418-3.582-8-8-8h-80c-4.418,0-8,3.582-8,8v48c0.026,22.08,17.92,39.974,40,40h-96
		c22.08-0.026,39.974-17.92,40-40v-48c0-4.418-3.582-8-8-8h-80c-4.418,0-8,3.582-8,8v48c0.026,22.08,17.92,39.974,40,40H56V160h32
		v24c0.035,30.913,25.087,55.965,56,56h16v32c0,4.418,3.582,8,8,8h32c4.418,0,8-3.582,8-8v-32h64v32c0,4.418,3.582,8,8,8h32
		c4.418,0,8-3.582,8-8v-32h16c30.913-0.035,55.965-25.087,56-56v-24h32V416z M288,400c-13.255,0-24-10.745-24-24v-40h64v40
		c0,13.255-10.745,24-24,24H288z M176,400c-13.255,0-24-10.745-24-24v-40h64v40c0,13.255-10.745,24-24,24H176z"/>
	<path style="fill:#231F20;" d="M80,128c26.51,0,48-21.49,48-48s-21.49-48-48-48S32,53.49,32,80
		C32.026,106.499,53.501,127.974,80,128z M80,48c14.547,0.055,27.227,9.915,30.864,24H80c-4.418,0-8,3.582-8,8s3.582,8,8,8h30.864
		c-4.449,17.072-21.896,27.305-38.968,22.855S44.592,88.96,49.041,71.888C52.712,57.801,65.443,47.978,80,48z"/>
	<path style="fill:#231F20;" d="M192,128c26.51,0,48-21.49,48-48s-21.49-48-48-48s-48,21.49-48,48
		C144.026,106.499,165.501,127.974,192,128z M192,48c14.547,0.055,27.227,9.915,30.864,24H192c-4.418,0-8,3.582-8,8s3.582,8,8,8
		h30.864c-4.449,17.072-21.896,27.305-38.968,22.855s-27.305-21.896-22.855-38.968C164.712,57.801,177.443,47.978,192,48z"/>
	<path style="fill:#231F20;" d="M272,56h128c4.418,0,8-3.582,8-8s-3.582-8-8-8H272c-4.418,0-8,3.582-8,8S267.582,56,272,56z"/>
	<path style="fill:#231F20;" d="M272,88h128c4.418,0,8-3.582,8-8s-3.582-8-8-8H272c-4.418,0-8,3.582-8,8S267.582,88,272,88z"/>
	<path style="fill:#231F20;" d="M424,56h16c4.418,0,8-3.582,8-8s-3.582-8-8-8h-16c-4.418,0-8,3.582-8,8S419.582,56,424,56z"/>
	<path style="fill:#231F20;" d="M424,88h16c4.418,0,8-3.582,8-8s-3.582-8-8-8h-16c-4.418,0-8,3.582-8,8S419.582,88,424,88z"/>
	<path style="fill:#231F20;" d="M176,176h-32c-4.418,0-8,3.582-8,8s3.582,8,8,8h32c4.418,0,8-3.582,8-8S180.418,176,176,176z"/>
	<path style="fill:#231F20;" d="M256,176h-32c-4.418,0-8,3.582-8,8s3.582,8,8,8h32c4.418,0,8-3.582,8-8S260.418,176,256,176z"/>
	<path style="fill:#231F20;" d="M344,184c0-4.418-3.582-8-8-8h-32c-4.418,0-8,3.582-8,8s3.582,8,8,8h32
		C340.418,192,344,188.418,344,184z"/>
</g>
<g>
</g>
<g>
</g>
<g>
</g>
<g>
</g>
<g>
</g>
<g>
</g>
<g>
</g>
<g>
</g>
<g>
</g>
<g>
</g>
<g>
</g>
<g>
</g>
<g>
</g>
<g>
</g>
<g>
</g>
</svg>
