<?xml version="1.0" encoding="iso-8859-1"?>
<!-- Generator: Adobe Illustrator 19.0.0, SVG Export Plug-In . SVG Version: 6.00 Build 0)  -->
<svg version="1.1" id="Capa_1" xmlns="http://www.w3.org/2000/svg" xmlns:xlink="http://www.w3.org/1999/xlink" x="0px" y="0px"
	 viewBox="0 0 480 480" style="enable-background:new 0 0 480 480;" xml:space="preserve">
<path style="fill:#C49A6C;" d="M464,152v-32h-16H272h-16v32h8h192H464z"/>
<g>
	<path style="fill:#A97C50;" d="M46.8,425.36c0.683,8.282,7.61,14.651,15.92,14.64h114.56c8.31,0.011,15.237-6.358,15.92-14.64
		l1.44-17.36H45.36L46.8,425.36z"/>
	<path style="fill:#A97C50;" d="M200,344H40l2.64,32h154.72L200,344z"/>
</g>
<path style="fill:#FF9811;" d="M282.64,376h-85.28H42.64H8v32h37.36h149.28h90.72h149.28H472v-32h-34.64H282.64z"/>
<path style="fill:#FFDA44;" d="M208,344l8-144H24l8,144H208z M120,296c-13.255,0-24-10.745-24-24s10.745-24,24-24s24,10.745,24,24
	S133.255,296,120,296z"/>
<circle style="fill:#FFAF46;" cx="120" cy="272" r="24"/>
<g>
	<path style="fill:#A97C50;" d="M286.8,425.36c0.683,8.282,7.61,14.652,15.92,14.64h114.56c8.31,0.012,15.237-6.358,15.92-14.64
		l1.44-17.36H285.36L286.8,425.36z"/>
	<path style="fill:#A97C50;" d="M440,344H280l2.64,32h154.72L440,344z"/>
	<path style="fill:#A97C50;" d="M456,152H264l4,48h184L456,152z"/>
</g>
<path style="fill:#FFDA44;" d="M448,344l8-144H264l8,144H448z M360,296c-13.255,0-24-10.745-24-24s10.745-24,24-24s24,10.745,24,24
	S373.255,296,360,296z"/>
<circle style="fill:#FFAF46;" cx="360" cy="272" r="24"/>
<path style="fill:#754C29;" d="M368,40h-16c-44.183,0-80,35.817-80,80h176C448,75.817,412.183,40,368,40z"/>
<path style="fill:#C49A6C;" d="M224,152v-32h-16H32H16v32h8h192H224z"/>
<path style="fill:#A97C50;" d="M216,152H24l4,48h184L216,152z"/>
<path style="fill:#754C29;" d="M128,40h-16c-44.183,0-80,35.817-80,80h176C208,75.817,172.183,40,128,40z"/>
<g>
	<path style="fill:#231F20;" d="M480,368h-33.952l1.32-16H448c4.249,0.007,7.762-3.31,8-7.552l8-144
		c0.125-2.195-0.659-4.345-2.168-5.944c-0.393-0.332-0.816-0.627-1.264-0.88L463.36,160H464c4.418,0,8-3.582,8-8v-32
		c0-4.418-3.582-8-8-8h-8.408C451.421,66.722,413.47,32.06,368,32h-16c-45.47,0.06-83.421,34.722-87.592,80H256
		c-4.418,0-8,3.582-8,8v32c0,4.418,3.582,8,8,8h0.64l2.808,33.6c-0.448,0.253-0.871,0.548-1.264,0.88
		c-1.509,1.599-2.293,3.749-2.168,5.944l8,144c0.225,4.246,3.732,7.573,7.984,7.576h0.632l1.32,16h-67.904l1.32-16H208
		c4.249,0.007,7.762-3.31,8-7.552l8-144c0.125-2.195-0.659-4.345-2.168-5.944c-0.393-0.332-0.816-0.627-1.264-0.88L223.36,160H224
		c4.418,0,8-3.582,8-8v-32c0-4.418-3.582-8-8-8h-8.408C211.421,66.722,173.47,32.06,128,32h-16c-45.47,0.06-83.421,34.722-87.592,80
		H16c-4.418,0-8,3.582-8,8v32c0,4.418,3.582,8,8,8h0.64l2.808,33.6c-0.448,0.253-0.871,0.548-1.264,0.88
		c-1.521,1.602-2.311,3.762-2.184,5.968l8,144c0.238,4.242,3.751,7.559,8,7.552h0.632l1.32,16H0v48h37.992l0.8,9.984
		C39.824,438.431,50.23,448.005,62.72,448h114.56c12.466-0.01,22.849-9.562,23.896-21.984l0.8-10.016h76l0.8,9.984
		c1.033,12.453,11.448,22.03,23.944,22.016h114.56c12.466-0.01,22.849-9.562,23.896-21.984l0.8-10.016H480L480,368z M279.568,336
		l-7.112-128h175.088l-7.112,128H279.568z M352,48h16c36.651,0.045,67.436,27.581,71.552,64H280.448
		C284.564,75.581,315.349,48.045,352,48z M264,128h192v16H264V128z M447.304,160l-2.664,32H275.36l-2.664-32H447.304z M288.688,352
		h142.624l-1.32,16h-140L288.688,352z M39.568,336l-7.112-128h175.088l-7.112,128H39.568z M112,48h16
		c36.651,0.045,67.436,27.581,71.552,64H40.448C44.564,75.581,75.349,48.045,112,48z M24,128h192v16H24V128z M207.304,160l-2.664,32
		H35.36l-2.664-32H207.304z M48.688,352h142.624l-1.32,16H50.008L48.688,352z M185.224,424.736
		c-0.358,4.118-3.811,7.275-7.944,7.264H62.72c-4.148,0.01-7.606-3.17-7.944-7.304L54.048,416h131.904L185.224,424.736z
		 M425.224,424.736c-0.358,4.118-3.811,7.275-7.944,7.264H302.72c-4.148,0.01-7.606-3.17-7.944-7.304L294.048,416h131.904
		L425.224,424.736z M464,400H16v-16h448V400z"/>
	<path style="fill:#231F20;" d="M120,240c-17.673,0-32,14.327-32,32s14.327,32,32,32s32-14.327,32-32S137.673,240,120,240z M120,288
		c-8.837,0-16-7.163-16-16s7.163-16,16-16c8.837,0,16,7.163,16,16S128.837,288,120,288z"/>
	<path style="fill:#231F20;" d="M360,240c-17.673,0-32,14.327-32,32s14.327,32,32,32s32-14.327,32-32S377.673,240,360,240z M360,288
		c-8.837,0-16-7.163-16-16s7.163-16,16-16s16,7.163,16,16S368.837,288,360,288z"/>
</g>
<g>
</g>
<g>
</g>
<g>
</g>
<g>
</g>
<g>
</g>
<g>
</g>
<g>
</g>
<g>
</g>
<g>
</g>
<g>
</g>
<g>
</g>
<g>
</g>
<g>
</g>
<g>
</g>
<g>
</g>
</svg>
