<?xml version="1.0" encoding="iso-8859-1"?>
<!-- Generator: Adobe Illustrator 19.0.0, SVG Export Plug-In . SVG Version: 6.00 Build 0)  -->
<svg version="1.1" id="Capa_1" xmlns="http://www.w3.org/2000/svg" xmlns:xlink="http://www.w3.org/1999/xlink" x="0px" y="0px"
	 viewBox="0 0 480 480" style="enable-background:new 0 0 480 480;" xml:space="preserve">
<g>
	<path style="fill:#754C29;" d="M152,472h176l11.12-128H140.88L152,472z"/>
	<path style="fill:#754C29;" d="M128.32,200h223.36l8.32-96H120L128.32,200z"/>
</g>
<path style="fill:#A97C50;" d="M360,104h16V72h-8H112h-8v32h16H360z"/>
<path style="fill:#754C29;" d="M352,8H128l-16,64h256L352,8z"/>
<path style="fill:#FFDA44;" d="M112,200l16,144h224l16-144H112z M240,232c22.091,0,40,17.909,40,40s-17.909,40-40,40
	s-40-17.909-40-40S217.909,232,240,232z"/>
<circle style="fill:#FFAF46;" cx="240" cy="272" r="40"/>
<g>
	<path style="fill:#231F20;" d="M376,64h-1.752L359.76,6.056C358.868,2.497,355.669,0,352,0H128c-3.669,0-6.868,2.497-7.76,6.056
		L105.752,64H104c-4.418,0-8,3.582-8,8v32c0,4.418,3.582,8,8,8h8.664l6.936,80H112c-4.418,0-8,3.581-8.001,7.999
		c0,0.294,0.016,0.588,0.049,0.881l16,144c0.449,4.053,3.874,7.12,7.952,7.12h5.544L144,472.688c0.358,4.148,3.837,7.327,8,7.312
		h176c4.163,0.015,7.642-3.164,8-7.312L346.456,352H352c4.078,0,7.503-3.067,7.952-7.12l16-144c0.486-4.391-2.68-8.345-7.071-8.831
		C368.588,192.016,368.294,192,368,192h-7.6l6.936-80H376c4.418,0,8-3.582,8-8V72C384,67.582,380.418,64,376,64L376,64z M134.248,16
		h211.504l12,48H122.248L134.248,16z M320.648,464H159.336L149.6,352h180.8L320.648,464z M344.824,336H135.2l-14.264-128h238.128
		L344.824,336z M344.328,192H135.656l-6.936-80h222.56L344.328,192z M368,96H112V80h256V96z"/>
	<path style="fill:#231F20;" d="M240,224c-26.51,0-48,21.49-48,48s21.49,48,48,48s48-21.49,48-48
		C287.974,245.501,266.499,224.026,240,224z M240,304c-17.673,0-32-14.327-32-32s14.327-32,32-32s32,14.327,32,32
		S257.673,304,240,304z"/>
</g>
<g>
</g>
<g>
</g>
<g>
</g>
<g>
</g>
<g>
</g>
<g>
</g>
<g>
</g>
<g>
</g>
<g>
</g>
<g>
</g>
<g>
</g>
<g>
</g>
<g>
</g>
<g>
</g>
<g>
</g>
</svg>
