<?xml version="1.0" encoding="iso-8859-1"?>
<!-- Generator: Adobe Illustrator 19.0.0, SVG Export Plug-In . SVG Version: 6.00 Build 0)  -->
<svg version="1.1" id="Capa_1" xmlns="http://www.w3.org/2000/svg" xmlns:xlink="http://www.w3.org/1999/xlink" x="0px" y="0px"
	 viewBox="0 0 480.051 480.051" style="enable-background:new 0 0 480.051 480.051;" xml:space="preserve">
<path style="fill:#FBE0C4;" d="M391.789,320c0.16-2.64,0.24-5.28,0.24-8l6.56-151.76l1.44-32.24h-320v176
	c0.007,61.274,38.779,115.836,96.64,136h128.4C355.469,422.64,388.989,378,391.789,320L391.789,320z"/>
<path style="fill:#754C29;" d="M8.029,440l1.6,1.28c28.494,20.791,63.057,31.59,98.32,30.72h264.16
	c35.263,0.87,69.826-9.929,98.32-30.72l1.6-1.28H8.029z"/>
<g>
	<path style="fill:#231F20;" d="M472.029,432h-132.8c35.079-23.621,57.236-62.16,60-104.36
		c48.434-4.031,84.429-46.563,80.397-94.996c-3.322-39.916-33.181-72.553-72.645-79.404l1.048-24.88
		c0.199-4.414-3.218-8.153-7.632-8.352c-0.123-0.006-0.245-0.008-0.368-0.008h-320c-4.418,0-8,3.582-8,8v176
		c0.037,51.805,26.424,100.033,70.032,128H8.029c-4.418-0.002-8.002,3.578-8.004,7.996c-0.001,2.432,1.104,4.733,3.004,6.252
		l1.6,1.272c29.894,21.968,66.234,33.392,103.32,32.48h264.16c37.083,0.912,73.419-10.509,103.312-32.472l1.6-1.28
		c3.451-2.759,4.011-7.794,1.252-11.244C476.756,433.106,474.459,432.001,472.029,432L472.029,432z M464.029,240
		c-0.064,36.639-27.593,67.406-64,71.528l6.184-142.136C439.745,176.316,463.856,205.762,464.029,240z M88.029,304V136h303.632
		c0,0-7.704,181.024-7.864,183.616c-2.584,53.536-32.488,95.448-80.088,112.384H178.045C124.069,412.56,88.07,361.37,88.029,304z
		 M372.109,464h-264.16c-25.169,0.282-50.069-5.191-72.8-16h409.768C422.184,458.811,397.281,464.283,372.109,464L372.109,464z"/>
	<path style="fill:#231F20;" d="M232.029,112c-4.418,0-8-3.582-8-8c-0.147-10.257,3.142-20.269,9.344-28.44
		c4.446-5.536,6.803-12.461,6.656-19.56c0.147-7.099-2.21-14.024-6.656-19.56c-6.202-8.171-9.491-18.183-9.344-28.44
		c0-4.418,3.582-8,8-8s8,3.582,8,8c-0.147,7.099,2.21,14.024,6.656,19.56c6.202,8.171,9.491,18.183,9.344,28.44
		c0.147,10.257-3.142,20.269-9.344,28.44c-4.446,5.536-6.803,12.461-6.656,19.56C240.029,108.418,236.447,112,232.029,112z"/>
	<path style="fill:#231F20;" d="M296.029,112c-4.418,0-8-3.582-8-8c-0.147-10.257,3.142-20.269,9.344-28.44
		c4.446-5.536,6.803-12.461,6.656-19.56c0.147-7.099-2.21-14.024-6.656-19.56c-6.202-8.171-9.491-18.183-9.344-28.44
		c0-4.418,3.582-8,8-8s8,3.582,8,8c-0.147,7.099,2.21,14.024,6.656,19.56c6.202,8.171,9.491,18.183,9.344,28.44
		c0.147,10.257-3.142,20.269-9.344,28.44c-4.446,5.536-6.803,12.461-6.656,19.56C304.029,108.418,300.447,112,296.029,112z"/>
	<path style="fill:#231F20;" d="M168.029,112c-4.418,0-8-3.582-8-8c-0.147-10.257,3.142-20.269,9.344-28.44
		c4.446-5.536,6.803-12.461,6.656-19.56c0.147-7.099-2.21-14.024-6.656-19.56c-6.202-8.171-9.491-18.183-9.344-28.44
		c0-4.418,3.582-8,8-8s8,3.582,8,8c-0.147,7.099,2.21,14.024,6.656,19.56c6.202,8.171,9.491,18.183,9.344,28.44
		c0.147,10.257-3.142,20.269-9.344,28.44c-4.446,5.536-6.803,12.461-6.656,19.56C176.029,108.418,172.447,112,168.029,112z"/>
</g>
<g>
</g>
<g>
</g>
<g>
</g>
<g>
</g>
<g>
</g>
<g>
</g>
<g>
</g>
<g>
</g>
<g>
</g>
<g>
</g>
<g>
</g>
<g>
</g>
<g>
</g>
<g>
</g>
<g>
</g>
</svg>
