<?xml version="1.0" encoding="iso-8859-1"?>
<!-- Generator: Adobe Illustrator 19.0.0, SVG Export Plug-In . SVG Version: 6.00 Build 0)  -->
<svg version="1.1" id="Capa_1" xmlns="http://www.w3.org/2000/svg" xmlns:xlink="http://www.w3.org/1999/xlink" x="0px" y="0px"
	 viewBox="0 0 479.984 479.984" style="enable-background:new 0 0 479.984 479.984;" xml:space="preserve">
<path style="fill:#754C29;" d="M223.992,8h32v80h-32V8z"/>
<g>
	<path style="fill:#A97C50;" d="M159.992,472h160l4-40h-168L159.992,472z"/>
	<path style="fill:#A97C50;" d="M127.992,152l8.8,88h206.4l8.8-88H127.992z"/>
</g>
<path style="fill:#C49A6C;" d="M367.992,152v-32h-16h-224h-16v32h16h224H367.992z"/>
<path style="fill:#8B5E3C;" d="M347.024,100.12c-1.781-7.125-8.184-12.123-15.528-12.12H148.488
	c-7.344-0.003-13.747,4.995-15.528,12.12L127.992,120h224L347.024,100.12z"/>
<path style="fill:#FFDA44;" d="M127.992,240l24,192h176l24-192H127.992z M239.992,296c22.091,0,40,17.909,40,40s-17.909,40-40,40
	s-40-17.909-40-40S217.901,296,239.992,296z"/>
<circle style="fill:#FFAF46;" cx="239.992" cy="336" r="40"/>
<g>
	<path style="fill:#231F20;" d="M367.992,112h-9.76l-3.448-13.824C352.111,87.492,342.51,79.998,331.496,80h-67.504V8
		c0-4.418-3.582-8-8-8h-32c-4.418,0-8,3.582-8,8v72h-67.504c-11.014-0.002-20.615,7.492-23.288,18.176L121.752,112h-9.76
		c-4.418,0-8,3.582-8,8v32c0,4.418,3.582,8,8,8h8.8l7.2,72c-4.418,0.024-7.981,3.625-7.957,8.043
		c0.002,0.315,0.022,0.629,0.061,0.941l24,192c0.362,2.726,2.108,5.072,4.616,6.2l3.36,33.6c0.412,4.103,3.876,7.221,8,7.2h159.92
		c4.118,0.021,7.58-3.087,8-7.184l3.36-33.6c2.508-1.128,4.254-3.474,4.616-6.2l24-192c0.552-4.384-2.554-8.385-6.937-8.937
		c-0.331-0.042-0.665-0.063-0.999-0.063l7.2-72h8.76c4.418,0,8-3.582,8-8v-32C375.992,115.582,372.41,112,367.992,112L367.992,112z
		 M231.992,16h16v64h-16V16z M140.72,102.064c0.889-3.566,4.093-6.067,7.768-6.064h183.008c3.675-0.003,6.879,2.498,7.768,6.064
		l2.488,9.936h-203.52L140.72,102.064z M312.792,464h-145.56l-2.4-24h150.36L312.792,464z M320.968,424H159.056l-22-176h205.872
		L320.968,424z M335.992,232h-191.96l-7.2-72h206.36L335.992,232z M359.992,144h-240v-16h240V144z"/>
	<path style="fill:#231F20;" d="M239.992,384c26.51,0,48-21.49,48-48s-21.49-48-48-48s-48,21.49-48,48
		C192.019,362.499,213.493,383.974,239.992,384z M239.992,304c17.673,0,32,14.327,32,32s-14.327,32-32,32s-32-14.327-32-32
		S222.319,304,239.992,304z"/>
</g>
<g>
</g>
<g>
</g>
<g>
</g>
<g>
</g>
<g>
</g>
<g>
</g>
<g>
</g>
<g>
</g>
<g>
</g>
<g>
</g>
<g>
</g>
<g>
</g>
<g>
</g>
<g>
</g>
<g>
</g>
</svg>
