<?xml version="1.0" encoding="iso-8859-1"?>
<!-- Generator: Adobe Illustrator 19.0.0, SVG Export Plug-In . SVG Version: 6.00 Build 0)  -->
<svg version="1.1" id="Capa_1" xmlns="http://www.w3.org/2000/svg" xmlns:xlink="http://www.w3.org/1999/xlink" x="0px" y="0px"
	 viewBox="0 0 480 480" style="enable-background:new 0 0 480 480;" xml:space="preserve">
<g>
	<path style="fill:#A97C50;" d="M296,408h-32h-24h-24h-32h-32h-26.8l2.8,64h224l2.8-64H328H296z"/>
	<path style="fill:#A97C50;" d="M112,104l2.8,64H136h32h32h40h40h32h32h21.2l2.8-64H112z"/>
</g>
<path style="fill:#C49A6C;" d="M384,104V72h-16H112H96v32h16h256H384z"/>
<g>
	<path style="fill:#754C29;" d="M344,8H136l-24,64h256L344,8z"/>
	<path style="fill:#754C29;" d="M240,408V168h-40l16,240H240z"/>
	<path style="fill:#754C29;" d="M296,408l16-240h-32l-16,240H296z"/>
	<path style="fill:#754C29;" d="M216,408l-16-240h-32l16,240H216z"/>
	<path style="fill:#754C29;" d="M136,168h-21.2H104l16,240h5.2H152L136,168z"/>
	<path style="fill:#754C29;" d="M328,408h26.8h5.2l16-240h-10.8H344L328,408z"/>
	<path style="fill:#754C29;" d="M184,408l-16-240h-32l16,240H184z"/>
	<path style="fill:#754C29;" d="M328,408l16-240h-32l-16,240H328z"/>
	<path style="fill:#754C29;" d="M264,408l16-240h-40v240H264z"/>
</g>
<path style="fill:#231F20;" d="M384,64h-10.456L351.496,5.192C350.325,2.067,347.337-0.002,344,0H136
	c-3.337-0.002-6.325,2.067-7.496,5.192L106.456,64H96c-4.418,0-8,3.582-8,8v32c0,4.418,3.582,8,8,8h8.344l2.096,48H104
	c-4.418-0.01-8.008,3.564-8.017,7.983c0,0.182,0.005,0.364,0.017,0.545l16,240c0.23,3.238,2.411,6.008,5.504,6.992l2.488,56.8
	c0.172,4.296,3.709,7.688,8.008,7.68h224c4.284,0.004,7.811-3.368,8-7.648l2.488-56.8c3.106-0.986,5.293-3.772,5.512-7.024l16-240
	c0.292-4.409-3.046-8.219-7.455-8.511C376.364,160.005,376.182,160,376,160h-2.4l2.096-48H384c4.418,0,8-3.582,8-8V72
	C392,67.582,388.418,64,384,64L384,64z M141.544,16h196.912l18,48H123.544L141.544,16z M112.552,176h16l14.928,224h-16L112.552,176z
	 M271.448,176L256.52,400H248V176H271.448z M304.552,400l14.928-224h16l-14.96,224H304.552z M288.552,400h-16l14.928-224h16
	L288.552,400z M232,400h-8.52l-14.928-224H232V400z M192.52,176l14.928,224h-16l-14.896-224H192.52z M160.52,176l14.928,224h-16
	l-14.896-224H160.52z M344.344,464H135.656l-2.056-48h212.88L344.344,464z M352.512,400h-15.96l14.928-224h16L352.512,400z
	 M357.544,160H122.456l-2.096-48h239.28L357.544,160z M376,96H104V80h272V96z"/>
<g>
</g>
<g>
</g>
<g>
</g>
<g>
</g>
<g>
</g>
<g>
</g>
<g>
</g>
<g>
</g>
<g>
</g>
<g>
</g>
<g>
</g>
<g>
</g>
<g>
</g>
<g>
</g>
<g>
</g>
</svg>
