<?xml version="1.0" encoding="iso-8859-1"?>
<!-- Generator: Adobe Illustrator 19.0.0, SVG Export Plug-In . SVG Version: 6.00 Build 0)  -->
<svg version="1.1" id="Capa_1" xmlns="http://www.w3.org/2000/svg" xmlns:xlink="http://www.w3.org/1999/xlink" x="0px" y="0px"
	 viewBox="0 0 480 480" style="enable-background:new 0 0 480 480;" xml:space="preserve">
<path style="fill:#C49A6C;" d="M111.999,120h256c8.837,0,16-7.163,16-16s-7.163-16-16-16h-256c-8.837,0-16,7.163-16,16
	S103.162,120,111.999,120z"/>
<path style="fill:#754C29;" d="M355.031,36.12c-1.781-7.125-8.184-12.123-15.528-12.12H140.495
	c-7.344-0.003-13.747,4.995-15.528,12.12L111.999,88h256L355.031,36.12z"/>
<g>
	<path style="fill:#A97C50;" d="M159.999,8h32v16h-32V8z"/>
	<path style="fill:#A97C50;" d="M142.639,457.44c0.78,8.254,7.71,14.56,16,14.56h162.72c8.29,0,15.22-6.306,16-14.56l5.92-65.44
		h-206.56L142.639,457.44z"/>
	<path style="fill:#A97C50;" d="M119.279,200h241.44l7.28-80h-256L119.279,200z"/>
</g>
<path style="fill:#FFDA44;" d="M111.999,200l16,192h224l16-192H111.999z M239.999,256c22.091,0,40,17.909,40,40s-17.909,40-40,40
	c-22.091,0-40-17.909-40-40S217.908,256,239.999,256z"/>
<circle style="fill:#FFAF46;" cx="239.999" cy="296" r="40"/>
<g>
	<path style="fill:#231F20;" d="M391.999,104c-0.034-10.717-7.183-20.107-17.504-22.992l-11.704-46.832
		C360.118,23.492,350.517,15.998,339.503,16H199.999V8c0-4.418-3.582-8-8-8h-32c-4.418,0-8,3.582-8,8v8h-11.504
		c-11.014-0.002-20.615,7.492-23.288,18.176l-11.704,46.832c-12.695,3.508-20.142,16.644-16.634,29.339
		c2.142,7.752,8.048,13.902,15.706,16.357l5.968,65.6c-1.685,0.261-3.24,1.061-4.432,2.28c-1.513,1.647-2.267,3.852-2.08,6.08
		l16,192c0.345,4.145,3.809,7.334,7.968,7.336h1.408l5.272,58.208c1.143,12.37,11.537,21.824,23.96,21.792h162.72
		c12.452,0.051,22.875-9.43,24-21.832L350.591,400h1.408c4.171,0.014,7.654-3.179,8-7.336l16-192c0.187-2.228-0.567-4.433-2.08-6.08
		c-1.192-1.219-2.747-2.019-4.432-2.28l5.968-65.6C385.296,123.506,391.97,114.348,391.999,104z M132.727,38.064
		c0.889-3.566,4.093-6.067,7.768-6.064h199.008c3.675-0.003,6.879,2.498,7.768,6.064L357.759,80h-235.52L132.727,38.064z
		 M111.999,96h256c4.418,0,8,3.582,8,8s-3.582,8-8,8h-256c-4.418,0-8-3.582-8-8S107.581,96,111.999,96z M353.415,192H126.583
		l-5.784-64h238.48L353.415,192z M329.415,456.672c-0.379,4.139-3.843,7.312-8,7.328H158.639c-4.143-0.006-7.605-3.156-8-7.28
		l-5.16-56.72h189.04L329.415,456.672z M344.639,384h-209.28l-14.664-176h238.608L344.639,384z"/>
	<path style="fill:#231F20;" d="M239.999,344c26.51,0,48-21.49,48-48s-21.49-48-48-48s-48,21.49-48,48
		C192.025,322.499,213.5,343.974,239.999,344z M239.999,264c17.673,0,32,14.327,32,32s-14.327,32-32,32c-17.673,0-32-14.327-32-32
		S222.326,264,239.999,264z"/>
</g>
<g>
</g>
<g>
</g>
<g>
</g>
<g>
</g>
<g>
</g>
<g>
</g>
<g>
</g>
<g>
</g>
<g>
</g>
<g>
</g>
<g>
</g>
<g>
</g>
<g>
</g>
<g>
</g>
<g>
</g>
</svg>
