<?xml version="1.0" encoding="iso-8859-1"?>
<!-- Generator: Adobe Illustrator 19.0.0, SVG Export Plug-In . SVG Version: 6.00 Build 0)  -->
<svg version="1.1" id="Capa_1" xmlns="http://www.w3.org/2000/svg" xmlns:xlink="http://www.w3.org/1999/xlink" x="0px" y="0px"
	 viewBox="0 0 480 480" style="enable-background:new 0 0 480 480;" xml:space="preserve">
<g>
	<path style="fill:#A97C50;" d="M360,200h8v-32h-16H248h-16H120h-8v32h8H360z"/>
	<path style="fill:#A97C50;" d="M142.712,457.408c0.73,8.258,7.646,14.591,15.936,14.592h162.704
		c8.29-0.001,15.206-6.334,15.936-14.592L360,200H120L142.712,457.408z M223.048,319.032c15.616-15.624,35.88-20.688,45.256-11.32
		s4.304,29.6-11.32,45.256s-35.88,20.688-45.256,11.32s-4.32-29.64,11.304-45.256H223.048z"/>
	<path style="fill:#A97C50;" d="M248,56.4V8h-16v48h8C242.704,56,245.344,56.216,248,56.4z"/>
</g>
<g>
	<path style="fill:#754C29;" d="M256.968,352.968c15.624-15.616,20.688-35.88,11.32-45.256l-55.2,55.2l55.2-55.2
		c-9.376-9.368-29.64-4.304-45.256,11.32s-20.688,35.88-11.32,45.256S241.352,368.592,256.968,352.968L256.968,352.968z"/>
	<path style="fill:#754C29;" d="M232,56c-61.856,0-112,50.144-112,112h112V56z"/>
	<path style="fill:#754C29;" d="M352,168c-0.029-58.72-45.428-107.437-104-111.6V168H352z"/>
</g>
<path style="fill:#A97C50;" d="M248,168V56.4c-2.656-0.184-5.296-0.4-8-0.4h-8v112H248z"/>
<path style="fill:#FFDA44;" d="M344,392H136l-8-112h224L344,392z"/>
<g>
	<path style="fill:#231F20;" d="M368,160h-8.408C355.745,103.155,312.458,56.852,256,49.192V8c0-4.418-3.582-8-8-8h-16
		c-4.418,0-8,3.582-8,8v40.408C164.135,52.474,116.474,100.135,112.408,160H112c-4.418,0-8,3.582-8,8v32c0,4.418,3.582,8,8,8h0.672
		l22.072,250.112c1.028,12.42,11.442,21.956,23.904,21.888h162.704c12.462,0.068,22.876-9.468,23.904-21.888L367.328,208H368
		c4.418,0,8-3.582,8-8v-32C376,163.582,372.418,160,368,160L368,160z M120,176h240v16H120V176z M343.696,160H256V65.344
		C303.614,72.802,339.889,111.956,343.696,160z M224,64.384V160h-95.696C132.33,108.923,172.92,68.367,224,64.384z M135.792,288
		h208.416l-8.408,95.296H144.2L135.792,288z M321.352,464H158.648c-4.157,0.016-7.634-3.155-8-7.296l-5.048-57.408h188.8
		l-5.064,57.408C328.971,460.839,325.503,464.008,321.352,464z M345.6,272H134.4l-5.648-64h222.512L345.6,272z"/>
	<path style="fill:#231F20;" d="M273.936,302.056c-7.594-6.76-18.208-8.975-27.872-5.816c-22.005,6.603-39.221,23.819-45.824,45.824
		c-3.153,9.668-0.936,20.283,5.824,27.88c4.962,4.727,11.615,7.26,18.464,7.032c3.174-0.021,6.333-0.429,9.408-1.216
		c22.005-6.603,39.221-23.819,45.824-45.824C282.913,320.268,280.696,309.653,273.936,302.056z M228.688,324.688
		c5.837-6.085,13.161-10.541,21.248-12.928c1.136-0.241,2.289-0.397,3.448-0.464l-38.24,38.248c0.118-1.213,0.324-2.417,0.616-3.6
		C218.139,337.851,222.596,330.522,228.688,324.688L228.688,324.688z M251.312,347.312c-5.837,6.085-13.161,10.541-21.248,12.928
		c-1.184,0.288-2.387,0.494-3.6,0.616l38.4-38.4c-0.117,1.213-0.323,2.417-0.616,3.6
		C261.867,334.15,257.407,341.479,251.312,347.312L251.312,347.312z"/>
</g>
<g>
</g>
<g>
</g>
<g>
</g>
<g>
</g>
<g>
</g>
<g>
</g>
<g>
</g>
<g>
</g>
<g>
</g>
<g>
</g>
<g>
</g>
<g>
</g>
<g>
</g>
<g>
</g>
<g>
</g>
</svg>
