<?xml version="1.0" encoding="iso-8859-1"?>
<!-- Generator: Adobe Illustrator 19.0.0, SVG Export Plug-In . SVG Version: 6.00 Build 0)  -->
<svg version="1.1" id="Capa_1" xmlns="http://www.w3.org/2000/svg" xmlns:xlink="http://www.w3.org/1999/xlink" x="0px" y="0px"
	 viewBox="0 0 480 480" style="enable-background:new 0 0 480 480;" xml:space="preserve">
<g>
	<path style="fill:#A97C50;" d="M125.68,368.8L128,392l6.56,65.6c0.822,8.176,7.703,14.4,15.92,14.4h179.04
		c8.217,0,15.098-6.224,15.92-14.4L352,392l2.4-24H125.6L125.68,368.8z"/>
	<path style="fill:#A97C50;" d="M112.8,240h254.4l8.8-88H104L112.8,240z"/>
	<path style="fill:#A97C50;" d="M376,152h8v-32h-16H112H96v32h8H376z"/>
</g>
<path style="fill:#754C29;" d="M256,8h-32c-61.856,0-112,50.144-112,112h256C368,58.144,317.856,8,256,8z"/>
<path style="fill:#FFDA44;" d="M125.6,368h228.8l12.8-128H112.8L125.6,368z M240,272c17.673,0,32,14.327,32,32s-14.327,32-32,32
	c-17.673,0-32-14.327-32-32S222.327,272,240,272z"/>
<circle style="fill:#FFAF46;" cx="240" cy="304" r="32"/>
<g>
	<path style="fill:#231F20;" d="M384,112h-8.408C371.362,49.037,319.105,0.098,256,0h-32c-63.105,0.098-115.362,49.037-119.592,112
		H96c-4.418,0-8,3.582-8,8v32c0,4.418,3.582,8,8,8h0.8l29.84,298.4c1.185,12.272,11.511,21.628,23.84,21.6h179.04
		c12.346,0.053,22.698-9.311,23.88-21.6L383.24,160H384c4.418,0,8-3.582,8-8v-32C392,115.582,388.418,112,384,112z M224,16h32
		c54.309,0.067,99.449,41.857,103.696,96H120.304C124.551,57.857,169.691,16.067,224,16L224,16z M104,128h272v16H104V128z
		 M347.2,360H132.84L121.6,248h236.8L347.2,360z M329.52,464H150.48c-4.117,0.023-7.571-3.101-7.96-7.2l-5.68-56.8H160v-16h-24.76
		l-0.8-8H345.6l-0.8,8H176v16h167.2l-5.68,56.8C337.13,460.914,333.653,464.043,329.52,464L329.52,464z M362.4,208H336v16h24.8
		l-0.8,8H120.04l-0.8-8H320v-16H117.6l-4.8-48h254.4L362.4,208z"/>
	<path style="fill:#231F20;" d="M240,344c22.091,0,40-17.909,40-40s-17.909-40-40-40c-22.091,0-40,17.909-40,40
		C200.027,326.08,217.92,343.974,240,344z M240,280c13.255,0,24,10.745,24,24s-10.745,24-24,24c-13.255,0-24-10.745-24-24
		S226.745,280,240,280z"/>
</g>
<g>
</g>
<g>
</g>
<g>
</g>
<g>
</g>
<g>
</g>
<g>
</g>
<g>
</g>
<g>
</g>
<g>
</g>
<g>
</g>
<g>
</g>
<g>
</g>
<g>
</g>
<g>
</g>
<g>
</g>
</svg>
