<?xml version="1.0" encoding="iso-8859-1"?>
<!-- Generator: Adobe Illustrator 19.0.0, SVG Export Plug-In . SVG Version: 6.00 Build 0)  -->
<svg version="1.1" id="Capa_1" xmlns="http://www.w3.org/2000/svg" xmlns:xlink="http://www.w3.org/1999/xlink" x="0px" y="0px"
	 viewBox="0 0 480 480" style="enable-background:new 0 0 480 480;" xml:space="preserve">
<path style="fill:#A97C50;" d="M123.688,176L146.4,472h187.2L360,128H120L123.688,176z M256.968,296.968
	c-15.616,15.624-35.88,20.688-45.256,11.32s-4.304-29.6,11.32-45.256s35.88-20.688,45.256-11.32S272.592,281.352,256.968,296.968z"
	/>
<path style="fill:#C49A6C;" d="M360,128h16V96h-8H112h-8v32h16H360z"/>
<path style="fill:#754C29;" d="M352,32h-80h-64h-80l-16,64h256L352,32z"/>
<path style="fill:#A97C50;" d="M272,24c0-8.837-7.163-16-16-16h-32c-8.837,0-16,7.163-16,16v8h64V24z"/>
<path style="fill:#754C29;" d="M223.032,263.032c-15.624,15.616-20.688,35.88-11.32,45.256s29.6,4.304,45.256-11.32
	s20.688-35.88,11.32-45.256l-55.2,55.2l55.2-55.2C258.912,242.344,238.648,247.408,223.032,263.032L223.032,263.032z"/>
<path style="fill:#FFDA44;" d="M344,360H136l-8-152h224L344,360z"/>
<g>
	<path style="fill:#231F20;" d="M376,88h-1.752L359.76,30.056C358.868,26.497,355.669,24,352,24h-72c0-13.255-10.745-24-24-24h-32
		c-13.255,0-24,10.745-24,24h-72c-3.669,0-6.868,2.497-7.76,6.056L105.752,88H104c-4.418,0-8,3.582-8,8v32c0,4.418,3.582,8,8,8
		h8.592l25.864,336.616c0.322,4.176,3.812,7.396,8,7.384H333.6c4.188,0.012,7.677-3.208,8-7.384L367.408,136H376
		c4.418,0,8-3.582,8-8V96C384,91.582,380.418,88,376,88z M224,16h32c4.418,0,8,3.582,8,8h-48C216,19.582,219.582,16,224,16z
		 M134.248,40h211.504l12,48H122.248L134.248,40z M153.84,464l-4.912-64h182.144l-4.912,64H153.84z M334.76,352H192v16h141.536
		l-1.232,16H147.696l-1.232-16H176v-16h-30.76l-10.456-136H296v-16H133.552l-1.224-16h215.344l-1.224,16H312v16h33.216L334.76,352z
		 M348.904,168H131.096l-2.456-32h222.72L348.904,168z M368,120H112v-16h256V120z"/>
	<path style="fill:#231F20;" d="M217.376,257.376c-19.032,19.032-24,43.872-11.32,56.568c4.936,4.724,11.572,7.252,18.4,7.008
		c14.616-0.97,28.297-7.534,38.2-18.328c19.032-19.032,24-43.872,11.32-56.568S236.408,238.344,217.376,257.376z M228.688,268.688
		c6.539-7.035,15.207-11.728,24.672-13.36l-38.16,38.184C216.867,283.987,221.604,275.269,228.688,268.688L228.688,268.688z
		 M251.312,291.312c-6.569,7.093-15.279,11.841-24.8,13.52l38.288-38.344C263.133,276.013,258.396,284.731,251.312,291.312z"/>
</g>
<g>
</g>
<g>
</g>
<g>
</g>
<g>
</g>
<g>
</g>
<g>
</g>
<g>
</g>
<g>
</g>
<g>
</g>
<g>
</g>
<g>
</g>
<g>
</g>
<g>
</g>
<g>
</g>
<g>
</g>
</svg>
