<?xml version="1.0" encoding="iso-8859-1"?>
<!-- Generator: Adobe Illustrator 19.0.0, SVG Export Plug-In . SVG Version: 6.00 Build 0)  -->
<svg version="1.1" id="Capa_1" xmlns="http://www.w3.org/2000/svg" xmlns:xlink="http://www.w3.org/1999/xlink" x="0px" y="0px"
	 viewBox="0 0 479.998 479.998" style="enable-background:new 0 0 479.998 479.998;" xml:space="preserve">
<path style="fill:#A97C50;" d="M7.998,359.999l13.28,13.28c11.986,11.991,28.246,18.725,45.2,18.72h347.04
	c16.954,0.005,33.214-6.729,45.2-18.72l13.28-13.28H7.998z"/>
<path style="fill:#8B5E3C;" d="M125.254,405.255c12.003,12.002,28.282,18.745,45.256,18.744h138.976
	c16.974,0.001,33.253-6.742,45.256-18.744l13.256-13.256h-256L125.254,405.255z"/>
<path style="fill:#FBE0C4;" d="M399.998,55.999h-320v208c0,53.019,42.981,96,96,96h128c52.994-0.062,95.938-43.006,96-96V55.999z"/>
<path style="fill:#231F20;" d="M406.526,281.335c0.974-5.727,1.466-11.526,1.472-17.336c39.746-0.044,71.956-32.254,72-72v-32
	c-0.044-39.746-32.254-71.956-72-72v-32c0-4.418-3.582-8-8-8h-320c-4.418,0-8,3.582-8,8v208c0.038,35.777,18.473,69.02,48.8,88
	H7.998C3.58,352-0.001,355.582,0,360.001c0,2.121,0.843,4.154,2.342,5.654l13.28,13.28c13.457,13.534,31.771,21.119,50.856,21.064
	h42.208l10.912,10.912c13.469,13.548,31.8,21.142,50.904,21.088h138.992c19.104,0.054,37.435-7.54,50.904-21.088l10.912-10.912
	h42.208c19.085,0.055,37.399-7.53,50.856-21.064l13.28-13.28c3.124-3.125,3.123-8.19-0.002-11.314
	c-1.5-1.499-3.534-2.342-5.654-2.342H359.462C384.547,336.272,401.683,310.543,406.526,281.335L406.526,281.335z M463.998,159.999
	v32c-0.04,30.911-25.089,55.96-56,56v-144C438.91,104.039,463.959,129.088,463.998,159.999z M309.494,415.999H170.502
	c-14.665,0.044-28.754-5.707-39.2-16h217.36C338.224,410.284,324.148,416.034,309.494,415.999z M452.694,367.999
	c-10.442,10.3-24.533,16.051-39.2,16H66.478c-14.667,0.051-28.758-5.7-39.2-16H452.694z M303.998,351.999h-128
	c-48.577-0.057-87.943-39.423-88-88v-200h304v200c-0.008,4.919-0.425,9.83-1.248,14.68
	C383.73,321.088,346.985,352.144,303.998,351.999z"/>
<g>
</g>
<g>
</g>
<g>
</g>
<g>
</g>
<g>
</g>
<g>
</g>
<g>
</g>
<g>
</g>
<g>
</g>
<g>
</g>
<g>
</g>
<g>
</g>
<g>
</g>
<g>
</g>
<g>
</g>
</svg>
