<?xml version="1.0" encoding="iso-8859-1"?>
<!-- Generator: Adobe Illustrator 19.0.0, SVG Export Plug-In . SVG Version: 6.00 Build 0)  -->
<svg version="1.1" id="Capa_1" xmlns="http://www.w3.org/2000/svg" xmlns:xlink="http://www.w3.org/1999/xlink" x="0px" y="0px"
	 viewBox="0 0 480 480" style="enable-background:new 0 0 480 480;" xml:space="preserve">
<path style="fill:#8B5E3C;" d="M47.569,440l13.328,6.664C94.222,463.326,130.968,472,168.225,472h142.688
	c37.258,0,74.004-8.674,107.328-25.336L431.569,440H47.569z"/>
<path style="fill:#FBE0C4;" d="M367.569,120h-256v256c0,35.346,28.654,64,64,64h128c35.346,0,64-28.654,64-64V120z"/>
<g>
	<path style="fill:#231F20;" d="M231.569,96c-4.418,0-8-3.582-8-8c0.265-7.874,4.317-15.136,10.88-19.496
		c3.872-3.2,5.12-4.488,5.12-7.2c0-2.712-1.248-4-5.128-7.2c-6.553-4.354-10.601-11.602-10.872-19.464
		c0.276-7.856,4.328-15.096,10.88-19.44c4.096-3.4,5.12-4.6,5.12-7.2c0-4.418,3.582-8,8-8s8,3.582,8,8
		c-0.266,7.868-4.319,15.121-10.88,19.472c-4.096,3.4-5.12,4.6-5.12,7.2c0,2.696,1.248,4,5.12,7.2
		c6.553,4.347,10.605,11.589,10.88,19.448c-0.266,7.868-4.315,15.123-10.872,19.48c-3.88,3.2-5.128,4.496-5.128,7.2
		C239.569,92.418,235.987,96,231.569,96L231.569,96z"/>
	<path style="fill:#231F20;" d="M183.569,96c-4.418,0-8-3.582-8-8c0.265-7.874,4.317-15.136,10.88-19.496
		c3.872-3.2,5.12-4.488,5.12-7.2c0-2.712-1.248-4-5.128-7.2c-6.553-4.354-10.601-11.602-10.872-19.464
		c0.276-7.856,4.328-15.096,10.88-19.44c4.096-3.4,5.12-4.6,5.12-7.2c0-4.418,3.582-8,8-8s8,3.582,8,8
		c-0.266,7.868-4.319,15.121-10.88,19.472c-4.096,3.4-5.12,4.6-5.12,7.2c0,2.696,1.248,4,5.12,7.2
		c6.553,4.347,10.605,11.589,10.88,19.448c-0.266,7.868-4.315,15.123-10.872,19.48c-3.88,3.2-5.128,4.496-5.128,7.2
		C191.569,92.418,187.987,96,183.569,96z"/>
	<path style="fill:#231F20;" d="M279.569,96c-4.418,0-8-3.582-8-8c0.265-7.874,4.317-15.136,10.88-19.496
		c3.872-3.2,5.12-4.488,5.12-7.2c0-2.712-1.248-4-5.128-7.2c-6.553-4.354-10.601-11.602-10.872-19.464
		c0.276-7.856,4.328-15.096,10.88-19.44c4.096-3.4,5.12-4.6,5.12-7.2c0-4.418,3.582-8,8-8s8,3.582,8,8
		c-0.266,7.868-4.319,15.121-10.88,19.472c-4.096,3.4-5.12,4.6-5.12,7.2c0,2.696,1.248,4,5.12,7.2
		c6.553,4.347,10.605,11.589,10.88,19.448c-0.266,7.868-4.315,15.123-10.872,19.48c-3.88,3.2-5.128,4.496-5.128,7.2
		C287.569,92.418,283.987,96,279.569,96z"/>
	<path style="fill:#231F20;" d="M375.569,376v-40h5.768c19.045-0.052,35.427-13.492,39.2-32.16l19.2-96
		c4.33-21.663-9.721-42.734-31.384-47.064c-2.574-0.514-5.191-0.774-7.816-0.776h-24.968v-40c0-4.418-3.582-8-8-8h-256
		c-4.418,0-8,3.582-8,8v256c0.005,21.77,9.879,42.363,26.848,56H47.569c-4.418-0.05-8.04,3.492-8.089,7.91
		c-0.035,3.099,1.724,5.94,4.513,7.29l13.32,6.664c34.458,17.156,72.42,26.102,110.912,26.136h142.688
		c38.496-0.047,76.458-9.006,110.912-26.176l13.32-6.664c3.954-1.971,5.562-6.774,3.591-10.729
		c-1.354-2.718-4.131-4.434-7.167-4.431h-82.848C365.691,418.363,375.564,397.77,375.569,376L375.569,376z M400.537,176
		c13.255,0.004,23.997,10.752,23.993,24.007c0,1.577-0.156,3.151-0.466,4.697l-19.2,96c-2.27,11.2-12.1,19.262-23.528,19.296h-5.768
		V176L400.537,176z M395.569,448c-26.977,10.537-55.678,15.962-84.64,16H168.225c-28.967-0.036-57.674-5.461-84.656-16H395.569z
		 M175.569,432c-30.913-0.035-55.965-25.087-56-56V128h240v248c-0.035,30.913-25.087,55.965-56,56H175.569z"/>
</g>
<g>
</g>
<g>
</g>
<g>
</g>
<g>
</g>
<g>
</g>
<g>
</g>
<g>
</g>
<g>
</g>
<g>
</g>
<g>
</g>
<g>
</g>
<g>
</g>
<g>
</g>
<g>
</g>
<g>
</g>
</svg>
