<?xml version="1.0" encoding="iso-8859-1"?>
<!-- Generator: Adobe Illustrator 19.0.0, SVG Export Plug-In . SVG Version: 6.00 Build 0)  -->
<svg version="1.1" id="Capa_1" xmlns="http://www.w3.org/2000/svg" xmlns:xlink="http://www.w3.org/1999/xlink" x="0px" y="0px"
	 viewBox="0 0 480 480" style="enable-background:new 0 0 480 480;" xml:space="preserve">
<path style="fill:#C49A6C;" d="M240,8C111.87,8,8,111.87,8,240s103.87,232,232,232s232-103.87,232-232S368.13,8,240,8z M40,240
	c0.123,110.406,89.594,199.877,200,200C129.594,439.877,40.123,350.406,40,240z M271.864,437.464
	c10.915-1.751,21.664-4.411,32.136-7.952C293.528,433.053,282.779,435.713,271.864,437.464z M384,240c0,79.529-64.471,144-144,144
	S96,319.529,96,240S160.471,96,240,96S384,160.471,384,240z"/>
<path style="fill:#8B5E3C;" d="M240,96c-79.529,0-144,64.471-144,144s64.471,144,144,144s144-64.471,144-144S319.529,96,240,96z
	 M240,360c-66.274,0-120-53.726-120-120s53.726-120,120-120s120,53.726,120,120C359.925,306.243,306.243,359.925,240,360z"/>
<path style="fill:#A97C50;" d="M240,120c-66.274,0-120,53.726-120,120s53.726,120,120,120s120-53.726,120-120
	C359.925,173.757,306.243,120.075,240,120z M302.24,257.76L240,320l-62.24-62.24c-15.347-15.89-14.907-41.213,0.983-56.56
	c15.501-14.971,40.076-14.971,55.577,0l5.68,5.68l5.68-5.68c15.347-15.89,40.67-16.33,56.56-0.983s16.33,40.67,0.983,56.56
	C302.901,257.11,302.573,257.438,302.24,257.76L302.24,257.76z"/>
<path style="fill:#754C29;" d="M273.92,189.52c-10.591-0.014-20.753,4.189-28.24,11.68l-5.68,5.68l-5.68-5.68
	c-15.89-15.347-41.213-14.907-56.56,0.983c-14.971,15.501-14.971,40.076,0,55.577L240,320l62.24-62.24
	c15.597-15.645,15.557-40.972-0.089-56.568C294.656,193.719,284.504,189.522,273.92,189.52L273.92,189.52z"/>
<g>
	<path style="fill:#231F20;" d="M240,480C107.452,480,0,372.548,0,240S107.452,0,240,0s240,107.452,240,240
		C479.85,372.486,372.486,479.85,240,480z M240,16C116.288,16,16,116.288,16,240s100.288,224,224,224s224-100.288,224-224
		C463.859,116.347,363.653,16.141,240,16z"/>
	<path style="fill:#231F20;" d="M240,448c-114.822-0.128-207.872-93.178-208-208c0-4.418,3.582-8,8-8s8,3.582,8,8
		c0.123,105.987,86.012,191.877,192,192c4.418,0,8,3.582,8,8S244.418,448,240,448z"/>
	<path style="fill:#231F20;" d="M271.856,445.464c-4.418,0.011-8.009-3.561-8.02-7.979c-0.01-3.949,2.863-7.315,6.764-7.924
		c10.464-1.683,20.769-4.236,30.808-7.632c4.197-1.418,8.75,0.835,10.168,5.032s-0.835,8.75-5.032,10.168
		c-10.888,3.678-22.062,6.445-33.408,8.272C272.712,445.457,272.284,445.478,271.856,445.464L271.856,445.464z"/>
	<path style="fill:#231F20;" d="M240,368c-70.692,0-128-57.308-128-128s57.308-128,128-128s128,57.308,128,128
		C367.916,310.658,310.658,367.916,240,368z M240,128c-61.856,0-112,50.144-112,112s50.144,112,112,112s112-50.144,112-112
		C351.934,178.172,301.828,128.066,240,128z"/>
	<path style="fill:#231F20;" d="M432,232h-40.408c-4.418-83.831-75.958-148.208-159.789-143.789
		C147.972,92.629,83.595,164.169,88.013,248c4.418,83.831,75.958,148.208,159.789,143.789
		c77.654-4.093,139.697-66.135,143.789-143.789H432c4.418,0,8-3.582,8-8S436.418,232,432,232z M240,376
		c-75.111,0-136-60.889-136-136s60.889-136,136-136s136,60.889,136,136C375.916,315.076,315.076,375.916,240,376z"/>
	<path style="fill:#231F20;" d="M240,328c-2.122,0-4.156-0.844-5.656-2.344l-62.24-62.24c-18.742-18.749-18.737-49.142,0.012-67.884
		s49.142-18.737,67.884,0.012c19.068-18.417,49.455-17.889,67.872,1.179c17.966,18.601,17.966,48.092,0,66.693l-62.24,62.24
		C244.138,327.151,242.113,327.993,240,328L240,328z M206.08,197.52c-8.508-0.01-16.672,3.36-22.696,9.368
		c-12.471,12.492-12.471,32.724,0,45.216L240,308.688l56.584-56.584c12.492-12.496,12.492-32.752,0-45.248
		c-12.683-12.032-32.565-12.032-45.248,0l-5.68,5.68c-3.124,3.123-8.188,3.123-11.312,0l-5.68-5.68
		C222.687,200.85,214.553,197.488,206.08,197.52L206.08,197.52z"/>
</g>
<g>
</g>
<g>
</g>
<g>
</g>
<g>
</g>
<g>
</g>
<g>
</g>
<g>
</g>
<g>
</g>
<g>
</g>
<g>
</g>
<g>
</g>
<g>
</g>
<g>
</g>
<g>
</g>
<g>
</g>
</svg>
