<?xml version="1.0" encoding="iso-8859-1"?>
<!-- Generator: Adobe Illustrator 19.0.0, SVG Export Plug-In . SVG Version: 6.00 Build 0)  -->
<svg version="1.1" id="Capa_1" xmlns="http://www.w3.org/2000/svg" xmlns:xlink="http://www.w3.org/1999/xlink" x="0px" y="0px"
	 viewBox="0 0 480.001 480.001" style="enable-background:new 0 0 480.001 480.001;" xml:space="preserve">
<g>
	<path style="fill:#754C29;" d="M149.439,442.8c1.453,16.541,15.316,29.222,31.92,29.2h117.28
		c16.604,0.022,30.467-12.659,31.92-29.2l14.16-162.8h-209.44L149.439,442.8z"/>
	<path style="fill:#754C29;" d="M124.159,152h231.68l4.16-48h-240L124.159,152z"/>
</g>
<path style="fill:#A97C50;" d="M119.999,104h240c8.837,0,16-7.163,16-16s-7.163-16-16-16h-240c-8.837,0-16,7.163-16,16
	S111.162,104,119.999,104z"/>
<path style="fill:#754C29;" d="M348.543,26.176C345.871,15.495,336.274,8.001,325.263,8H154.735
	c-11.011,0.001-20.608,7.494-23.28,18.176L119.999,72h240L348.543,26.176z"/>
<path style="fill:#FFDA44;" d="M119.999,152l8,128h224l8-128H119.999z M239.999,176c22.091,0,40,17.909,40,40s-17.909,40-40,40
	s-40-17.909-40-40S217.908,176,239.999,176z"/>
<circle style="fill:#A97C50;" cx="239.999" cy="216" r="40"/>
<g>
	<path style="fill:#231F20;" d="M383.999,88c-0.05-10.711-7.192-20.093-17.504-22.992l-10.192-40.8
		C352.748,9.965,339.943-0.022,325.263,0H154.735c-14.689-0.018-27.497,9.984-31.04,24.24l-10.192,40.8
		c-12.695,3.509-20.142,16.644-16.634,29.339c2.14,7.743,8.034,13.888,15.682,16.349l3.016,34.84c-0.5,0.278-0.969,0.608-1.4,0.984
		c-1.511,1.61-2.29,3.772-2.152,5.976l8,128c0.265,4.193,3.727,7.467,7.928,7.496l13.528,155.504
		c1.733,20.707,19.109,36.595,39.888,36.472h117.28c20.791,0.121,38.17-15.784,39.888-36.504L352.055,288
		c4.21-0.021,7.683-3.302,7.944-7.504l8-128c0.138-2.204-0.641-4.366-2.152-5.976c-0.431-0.376-0.9-0.706-1.4-0.984l3.016-34.84
		C377.297,107.494,383.965,98.342,383.999,88L383.999,88z M139.199,28.12c1.782-7.128,8.189-12.126,15.536-12.12h170.528
		c7.347-0.006,13.754,4.992,15.536,12.12L349.751,64H130.247L139.199,28.12z M119.999,80h240c4.418,0,8,3.582,8,8s-3.582,8-8,8h-240
		c-4.418,0-8-3.582-8-8S115.581,80,119.999,80z M344.487,272H135.511l-7-112h222.976L344.487,272z M348.487,144H131.495l-2.776-32
		h222.56L348.487,144z M322.591,442.104c-1.172,12.369-11.528,21.836-23.952,21.896h-117.28
		c-12.421-0.059-22.777-9.522-23.952-21.888L143.999,288h192L322.591,442.104z"/>
	<path style="fill:#231F20;" d="M239.999,264c26.51,0,48-21.49,48-48s-21.49-48-48-48s-48,21.49-48,48
		C192.025,242.499,213.5,263.974,239.999,264z M239.999,184c17.673,0,32,14.327,32,32s-14.327,32-32,32s-32-14.327-32-32
		S222.326,184,239.999,184z"/>
</g>
<g>
</g>
<g>
</g>
<g>
</g>
<g>
</g>
<g>
</g>
<g>
</g>
<g>
</g>
<g>
</g>
<g>
</g>
<g>
</g>
<g>
</g>
<g>
</g>
<g>
</g>
<g>
</g>
<g>
</g>
</svg>
