<?xml version="1.0" encoding="iso-8859-1"?>
<!-- Generator: Adobe Illustrator 19.0.0, SVG Export Plug-In . SVG Version: 6.00 Build 0)  -->
<svg version="1.1" id="Capa_1" xmlns="http://www.w3.org/2000/svg" xmlns:xlink="http://www.w3.org/1999/xlink" x="0px" y="0px"
	 viewBox="0 0 480 480" style="enable-background:new 0 0 480 480;" xml:space="preserve">
<path style="fill:#C49A6C;" d="M248,72H8v400h240V72z M208,392H48V144h160V392z"/>
<path style="fill:#A97C50;" d="M8,16h240v56H8V16z"/>
<path style="fill:#FFDA44;" d="M48,392h160V144H48V392z M105.816,249.816c18.4-18.4,43.2-23.344,55.464-11.096
	s7.288,37.088-11.096,55.464s-43.2,23.344-55.464,11.096S87.432,268.192,105.816,249.816L105.816,249.816z"/>
<g>
	<path style="fill:#754C29;" d="M150.184,294.184c18.4-18.4,23.344-43.2,11.096-55.464s-37.088-7.288-55.464,11.096
		s-23.344,43.2-11.096,55.464S131.808,312.568,150.184,294.184L150.184,294.184z M156.288,243.712l-56.576,56.576L156.288,243.712z"
		/>
	<path style="fill:#754C29;" d="M376,88l96,112L376,8V88z"/>
	<path style="fill:#754C29;" d="M376,8l-96,192l96-112V8z"/>
</g>
<path style="fill:#C49A6C;" d="M280,472l96-112l96,112V200H280V472z"/>
<g>
	<path style="fill:#8B5E3C;" d="M280,472h192l-96-112L280,472z"/>
	<path style="fill:#8B5E3C;" d="M280,200h192L376,88L280,200z"/>
</g>
<g>
	<path style="fill:#231F20;" d="M252.8,1.6c-3.535-2.651-8.549-1.935-11.2,1.6c0,0,0,0,0,0L237.976,8h-4.056l-3.632-4.8
		c-2.651-3.535-7.665-4.251-11.2-1.6c-0.606,0.455-1.145,0.994-1.6,1.6L213.872,8h-4l-3.6-4.8c-2.651-3.535-7.665-4.251-11.2-1.6
		c-0.606,0.455-1.145,0.994-1.6,1.6L189.864,8h-4l-3.608-4.8c-2.651-3.535-7.665-4.251-11.2-1.6c-0.606,0.455-1.145,0.994-1.6,1.6
		l-3.6,4.8h-4l-3.6-4.8c-1.511-2.014-3.882-3.2-6.4-3.2c-2.518,0-4.889,1.186-6.4,3.2L141.872,8h-4l-3.592-4.8
		c-2.651-3.535-7.665-4.251-11.2-1.6c-0.606,0.455-1.145,0.994-1.6,1.6L117.872,8h-4l-3.6-4.8c-2.651-3.535-7.665-4.251-11.2-1.6
		c-0.606,0.455-1.145,0.994-1.6,1.6L93.88,8h-4l-3.592-4.8c-2.651-3.535-7.665-4.251-11.2-1.6c-0.606,0.455-1.145,0.994-1.6,1.6
		L69.92,8h-4l-3.592-4.8c-2.922-3.535-8.157-4.031-11.691-1.109c-0.404,0.334-0.775,0.705-1.109,1.109L45.936,8h-4L38.4,3.2
		c-2.651-3.535-7.665-4.251-11.2-1.6c-0.606,0.455-1.145,0.994-1.6,1.6L21.968,8h-4L14.4,3.2C11.749-0.334,6.735-1.05,3.2,1.6l0,0
		C-0.088,4.064,0,14.512,0,16v456c0,4.418,3.582,8,8,8h240c4.418,0,8-3.582,8-8V16C256,14.512,256.096,4.08,252.8,1.6L252.8,1.6z
		 M16,30.832c1.204,0.742,2.586,1.146,4,1.168c2.518,0,4.889-1.186,6.4-3.2L30,24h4l3.584,4.8c2.922,3.535,8.157,4.031,11.691,1.109
		c0.404-0.334,0.775-0.705,1.109-1.109l3.56-4.8h4l3.584,4.8c2.651,3.535,7.665,4.251,11.2,1.6c0.606-0.455,1.145-0.994,1.6-1.6
		l3.6-4.8h4l3.6,4.8c2.651,3.535,7.665,4.251,11.2,1.6c0.606-0.455,1.145-0.994,1.6-1.6l3.6-4.8h4l3.6,4.8
		c2.651,3.535,7.665,4.251,11.2,1.6c0.606-0.455,1.145-0.994,1.6-1.6l3.6-4.8h4l3.592,4.8c2.901,3.535,8.119,4.048,11.653,1.147
		c0.419-0.344,0.803-0.728,1.147-1.147l3.584-4.8h4l3.608,4.8c2.651,3.535,7.665,4.251,11.2,1.6c0.606-0.455,1.145-0.994,1.6-1.6
		l3.6-4.8h4l3.6,4.8c2.651,3.535,7.665,4.251,11.2,1.6c0.606-0.455,1.145-0.994,1.6-1.6l3.608-4.8h4l3.608,4.8
		c1.511,2.014,3.882,3.2,6.4,3.2c2.518,0,4.889-1.186,6.4-3.2l3.624-4.8h4.056l3.624,4.8c2.564,3.049,6.94,3.83,10.4,1.856V64H16
		V30.832z M240,464H16V80h224V464z"/>
	<path style="fill:#231F20;" d="M208,400H48c-4.418,0-8-3.582-8-8V144c0-4.418,3.582-8,8-8h160c4.418,0,8,3.582,8,8v248
		C216,396.419,212.419,400,208,400z M56,384h144V152H56V384z"/>
	<path style="fill:#231F20;" d="M166.936,233.064c-15.608-15.616-44.944-10.736-66.776,11.096s-26.704,51.2-11.096,66.776
		c6.305,6.099,14.808,9.391,23.576,9.128c16.479-0.878,31.971-8.131,43.2-20.224C177.672,278,182.544,248.672,166.936,233.064
		L166.936,233.064z M111.472,255.464c8.315-9.011,19.721-14.556,31.944-15.528c4.488-0.217,8.877,1.374,12.184,4.416
		c-8.652,8.92-19.147,15.844-30.752,20.288c-10.243,3.985-19.755,9.637-28.152,16.728c2.35-9.867,7.477-18.853,14.776-25.896
		L111.472,255.464z M144.528,288.52c-14.96,14.968-35.2,20-44.128,11.112c8.652-8.92,19.147-15.844,30.752-20.288
		c10.243-3.985,19.755-9.637,28.152-16.728c-2.347,9.872-7.475,18.865-14.776,25.912L144.528,288.52z"/>
	<path style="fill:#231F20;" d="M479.92,472.408c0-0.144,0.08-0.264,0.08-0.408V200c0-0.12-0.072-0.224-0.08-0.336
		c-0.03-1.077-0.281-2.136-0.736-3.112c0,0,0-0.088,0-0.128l-96-192c-0.338-0.667-0.781-1.274-1.312-1.8
		c-2.877-3.23-7.828-3.516-11.058-0.638c-0.225,0.2-0.438,0.413-0.638,0.638c-0.531,0.526-0.974,1.133-1.312,1.8l-96,192
		c0,0,0,0.088,0,0.128c-0.455,0.976-0.706,2.035-0.736,3.112c0,0.112-0.08,0.216-0.08,0.336v272c0,0.144,0.072,0.264,0.08,0.408
		c0.04,0.787,0.197,1.563,0.464,2.304c0.064,0.16,0.08,0.344,0.152,0.504v0.128c0.371,0.787,0.872,1.506,1.48,2.128
		c0.168,0.176,0.36,0.304,0.544,0.464c0.522,0.464,1.103,0.857,1.728,1.168c0.239,0.126,0.484,0.239,0.736,0.336
		c0.882,0.351,1.819,0.541,2.768,0.56h192c0.951-0.018,1.892-0.208,2.776-0.56c0.254-0.099,0.502-0.211,0.744-0.336
		c0.621-0.313,1.2-0.706,1.72-1.168c0.184-0.16,0.376-0.288,0.544-0.464c0.608-0.622,1.109-1.341,1.48-2.128v-0.128
		c0.072-0.16,0.088-0.344,0.152-0.512C479.698,473.968,479.868,473.195,479.92,472.408z M376,100.296L454.608,192H297.392
		L376,100.296z M384,85.048v-43.16l51.792,103.576L384,85.048z M368,85.048l-51.792,60.416L368,41.888V85.048z M288,208h176v242.4
		l-81.928-95.608c-3.096-3.353-8.324-3.562-11.678-0.466c-0.162,0.149-0.317,0.305-0.466,0.466L288,450.4L288,208z M297.392,464
		L376,372.296L454.608,464H297.392z"/>
</g>
<g>
</g>
<g>
</g>
<g>
</g>
<g>
</g>
<g>
</g>
<g>
</g>
<g>
</g>
<g>
</g>
<g>
</g>
<g>
</g>
<g>
</g>
<g>
</g>
<g>
</g>
<g>
</g>
<g>
</g>
</svg>
