<?xml version="1.0" encoding="iso-8859-1"?>
<!-- Generator: Adobe Illustrator 19.0.0, SVG Export Plug-In . SVG Version: 6.00 Build 0)  -->
<svg version="1.1" id="Capa_1" xmlns="http://www.w3.org/2000/svg" xmlns:xlink="http://www.w3.org/1999/xlink" x="0px" y="0px"
	 viewBox="0 0 480 480" style="enable-background:new 0 0 480 480;" xml:space="preserve">
<path style="fill:#414042;" d="M112,440h256v32H112V440z"/>
<path style="fill:#603913;" d="M317.888,80.8c4.86-35.01-19.582-67.332-54.592-72.192C260.38,8.203,257.44,8,254.496,8h-28.992
	c-35.346,0-64,28.654-64,64c0,2.944,0.203,5.884,0.608,8.8L192,296h96L317.888,80.8z"/>
<g>
	<path style="fill:#ACABB1;" d="M112,440h256v-16c-0.062-52.994-43.006-95.938-96-96h-64c-52.994,0.062-95.938,43.006-96,96V440z"/>
	<path style="fill:#ACABB1;" d="M272,328c5.362,0.006,10.714,0.461,16,1.36V296h-96v33.36c5.286-0.899,10.638-1.354,16-1.36H272z"/>
</g>
<path style="fill:#231F20;" d="M296,322.896v-26.4l29.816-214.632c5.448-39.39-22.068-75.737-61.457-81.185
	C261.091,0.227,257.795,0,254.496,0h-29c-39.764,0.002-71.998,32.239-71.996,72.004c0,3.312,0.229,6.62,0.684,9.9L184,296.536v26.4
	c-46.947,10.95-80.12,52.857-80,101.064v48c0,4.418,3.582,8,8,8h256c4.418,0,8-3.582,8-8v-48
	C376.139,375.779,342.961,333.849,296,322.896z M200,320.312V304h80v16.312C277.328,320.112,202.672,320.112,200,320.312z
	 M183.264,35.2c10.64-12.204,26.041-19.206,42.232-19.2h29c30.928-0.002,56.002,25.068,56.004,55.996
	c0,2.579-0.178,5.154-0.532,7.708L281.032,288h-82.064L170.032,79.704C167.795,63.654,172.622,47.421,183.264,35.2L183.264,35.2z
	 M120,424c0.062-48.575,39.425-87.938,88-88h64c4.914,0.007,9.819,0.425,14.664,1.248C329.078,344.264,360.141,381.01,360,424v8H120
	V424z M360,464H120v-16h240V464z"/>
<g>
</g>
<g>
</g>
<g>
</g>
<g>
</g>
<g>
</g>
<g>
</g>
<g>
</g>
<g>
</g>
<g>
</g>
<g>
</g>
<g>
</g>
<g>
</g>
<g>
</g>
<g>
</g>
<g>
</g>
</svg>
