<?xml version="1.0" encoding="iso-8859-1"?>
<!-- Generator: Adobe Illustrator 19.0.0, SVG Export Plug-In . SVG Version: 6.00 Build 0)  -->
<svg version="1.1" id="Capa_1" xmlns="http://www.w3.org/2000/svg" xmlns:xlink="http://www.w3.org/1999/xlink" x="0px" y="0px"
	 viewBox="0 0 479.198 479.198" style="enable-background:new 0 0 479.198 479.198;" xml:space="preserve">
<path style="fill:#C49A6C;" d="M255.198,307.691h-96v-96c0,0-3.624-7.56-9.6-6.992c-13.176,1.232-37.832,11.048-61.096,10.112
	c-27.576-1.104-53.2-8.8-55.432-4c-29.445,63.446-22.072,137.883,19.248,194.32c18.064,24.357,46.635,38.672,76.96,38.56h155.84
	c30.095,0.16,58.49-13.933,76.56-38c23.463-31.597,36.544-69.695,37.44-109.04c0.08-1.04,0.08-2,0.08-3.04
	c0.071-9.174-0.49-18.343-1.68-27.44c-2.84-21.91-9.509-43.151-19.704-62.752c-5.352-10.312-22.096,11.648-41.56,13.336
	c-35.896,3.12-81.056-13.064-81.056-13.064"/>
<circle style="fill:#414042;" cx="207.198" cy="59.691" r="24"/>
<g>
	<path style="fill:#FFAF46;" d="M159.198,307.691h96v-96h-96V307.691z"/>
	<path style="fill:#FFAF46;" d="M159.198,211.691h96v-32l-48-32l-48,32V211.691z"/>
</g>
<path style="fill:#231F20;" d="M479.198,203.691c0.061-57.393-46.417-103.969-103.81-104.03c-23.001-0.024-45.36,7.583-63.574,21.63
	c-6.069-3.804-12.339-7.276-18.784-10.4c-19.951-9.538-41.375-15.627-63.36-18.008c-4.84-0.528-9.656-0.8-14.472-1.008v-1.376
	c17.112-4.418,27.402-21.872,22.984-38.984c-4.418-17.112-21.872-27.402-38.984-22.984c-17.112,4.418-27.402,21.872-22.984,38.984
	c2.91,11.272,11.712,20.074,22.984,22.984v1.368c-47.476,1.843-92.736,20.566-127.64,52.8l-35.264-35.192
	c-3.124-3.123-8.188-3.123-11.312,0l-22.64,22.64c-3.123,3.124-3.123,8.188,0,11.312l38.016,38.008
	c-46.153,69.79-43.954,160.941,5.512,228.424c19.597,26.381,50.545,41.903,83.408,41.832h155.84
	c32.611,0.102,63.362-15.178,82.976-41.232c23.268-31.303,36.723-68.805,38.664-107.76
	C449.923,289.04,479.244,248.965,479.198,203.691z M227.942,108.851c28.601,3.133,56.044,13.036,80.056,28.888
	c23.059,15.108,42.446,35.182,56.744,58.752c-6.824,1.2-13.297,3.899-18.952,7.904c-7.733,5.445-17.124,8.019-26.552,7.28
	c-7.653-0.899-15.08-3.179-21.92-6.728c-10.619-5.352-22.212-8.501-34.08-9.256h-0.04v-16c0-2.674-1.335-5.172-3.56-6.656
	l-44.44-29.624v-35.48C219.438,108.107,223.686,108.379,227.942,108.851L227.942,108.851z M167.198,215.579
	c2.648,1.032,5.336,2.136,8.104,3.312c9.929,5.057,20.779,8.051,31.896,8.8c11.119-0.753,21.971-3.746,31.904-8.8
	c2.768-1.176,5.464-2.288,8.12-3.32v84.12h-80.024L167.198,215.579z M232.798,204.179c-7.975,4.117-16.665,6.667-25.6,7.512
	c-8.936-0.84-17.627-3.391-25.6-7.512c-4.712-2.016-9.504-4-14.4-5.6v-14.608l40-26.68l40,26.664v14.592
	C242.318,200.139,237.518,202.163,232.798,204.179z M191.198,59.691c0-8.837,7.163-16,16-16s16,7.163,16,16s-7.163,16-16,16
	S191.198,68.527,191.198,59.691z M19.31,137.771l11.328-11.328l35.144,35.144c3.123,3.118,8.181,3.118,11.304,0
	c32.548-32.544,76.126-51.684,122.112-53.632v35.456l-44.44,29.6c-2.232,1.489-3.568,3.997-3.56,6.68v16
	c-11.864,0.76-23.451,3.914-34.064,9.272c-6.844,3.553-14.277,5.832-21.936,6.728c-16.454-0.23-32.597-4.522-46.992-12.496
	c2.808-4.8,5.768-9.504,9.024-14.056c2.271-3.182,1.909-7.54-0.856-10.304L19.31,137.771z M355.246,400.923
	c-16.592,21.992-42.579,34.876-70.128,34.768h-155.84c-27.774,0.076-53.938-13.023-70.52-35.304
	c-39.832-54.33-46.725-126.106-17.96-187.024c16.691,9.147,35.369,14.066,54.4,14.328c9.832-0.788,19.412-3.507,28.192-8
	c8.662-4.446,18.107-7.163,27.808-8v96c0,4.418,3.582,8,8,8h96c4.418,0,8-3.582,8-8v-96h0.04c9.695,0.839,19.134,3.556,27.792,8
	c8.787,4.492,18.372,7.21,28.208,8c12.481,0.73,24.85-2.712,35.16-9.784c5.408-3.997,11.955-6.153,18.68-6.152
	c8.444,17.474,14.022,36.194,16.52,55.44c1.138,8.753,1.673,17.574,1.6,26.4c0,0.8,0,1.472-0.048,2.232v0.624
	C390.325,334.159,377.776,370.674,355.246,400.923z M407.102,285.723c-0.04-1.368-0.16-2.744-0.224-4.112
	c-0.064-1.232-0.12-2.456-0.208-3.696c-0.288-4.256-0.664-8.512-1.216-12.8c-0.448-3.48-1-6.936-1.6-10.4
	c-0.2-1.096-0.456-2.168-0.68-3.256c-0.464-2.328-0.936-4.648-1.488-6.952c-0.312-1.304-0.68-2.584-1.016-3.872
	c-0.536-2.072-1.072-4.136-1.68-6.176c-0.4-1.368-0.856-2.712-1.288-4.064c-0.624-1.936-1.24-3.872-1.92-5.792
	c-0.496-1.392-1.032-2.768-1.552-4.152c-0.704-1.84-1.408-3.68-2.16-5.496c-0.576-1.4-1.192-2.776-1.8-4.152
	c-0.8-1.776-1.6-3.536-2.4-5.28c-0.656-1.384-1.344-2.752-2.032-4.112c-0.864-1.712-1.752-3.408-2.664-5.088
	c-0.725-1.349-1.475-2.683-2.248-4c-0.952-1.656-1.92-3.296-2.92-4.928c-0.8-1.312-1.6-2.616-2.456-3.92
	c-1.032-1.6-2.096-3.2-3.2-4.8c-0.872-1.264-1.744-2.536-2.648-3.784c-1.128-1.6-2.296-3.104-3.464-4.632
	c-0.928-1.208-1.848-2.4-2.8-3.6c-1.224-1.536-2.496-3.032-3.776-4.528c-0.968-1.136-1.92-2.28-2.92-3.4
	c-1.352-1.512-2.752-2.984-4.152-4.464c-0.984-1.04-1.944-2.096-2.952-3.112c-1.528-1.544-3.112-3.032-4.696-4.536
	c-0.944-0.896-1.864-1.808-2.824-2.688c-1.92-1.744-3.896-3.432-5.88-5.104c-0.688-0.576-1.336-1.176-2.032-1.744
	c-2.667-2.208-5.416-4.341-8.248-6.4c40.403-27.012,95.054-16.157,122.066,24.246s16.157,95.054-24.246,122.066
	C418.547,280.492,412.957,283.418,407.102,285.723L407.102,285.723z"/>
<g>
</g>
<g>
</g>
<g>
</g>
<g>
</g>
<g>
</g>
<g>
</g>
<g>
</g>
<g>
</g>
<g>
</g>
<g>
</g>
<g>
</g>
<g>
</g>
<g>
</g>
<g>
</g>
<g>
</g>
</svg>
