<?xml version="1.0" encoding="iso-8859-1"?>
<!-- Generator: Adobe Illustrator 19.0.0, SVG Export Plug-In . SVG Version: 6.00 Build 0)  -->
<svg version="1.1" id="Capa_1" xmlns="http://www.w3.org/2000/svg" xmlns:xlink="http://www.w3.org/1999/xlink" x="0px" y="0px"
	 viewBox="0 0 480 480" style="enable-background:new 0 0 480 480;" xml:space="preserve">
<path style="fill:#FFAF46;" d="M40,136v336h272V136l-48-80H88L40,136z"/>
<path style="fill:#754C29;" d="M360,392h80v-64h-40h-40V392z"/>
<g>
	<path style="fill:#231F20;" d="M440,320h-32V136C407.916,60.924,347.076,0.084,272,0h-8c-39.882-0.045-77.749,17.522-103.472,48H88
		c-2.808,0.001-5.41,1.473-6.856,3.88l-48,80c-0.748,1.244-1.144,2.668-1.144,4.12v336c0,4.418,3.582,8,8,8l0,0h272
		c4.418,0,8-3.582,8-8V136c0-1.452-0.396-2.876-1.144-4.12l-48-80c-1.446-2.407-4.048-3.879-6.856-3.88h-81.376
		C204.716,27.41,233.8,15.973,264,16h8c66.243,0.075,119.925,53.757,120,120v184h-32c-4.418,0-8,3.582-8,8v64c0,4.418,3.582,8,8,8
		h80c4.418,0,8-3.582,8-8v-64C448,323.582,444.418,320,440,320z M304,138.216V464H48V138.216L92.528,64h166.944L304,138.216z
		 M432,384h-64v-48h64V384z"/>
	<path style="fill:#231F20;" d="M112,96h128c4.418,0,8-3.582,8-8s-3.582-8-8-8H112c-4.418,0-8,3.582-8,8S107.582,96,112,96z"/>
</g>
<g>
</g>
<g>
</g>
<g>
</g>
<g>
</g>
<g>
</g>
<g>
</g>
<g>
</g>
<g>
</g>
<g>
</g>
<g>
</g>
<g>
</g>
<g>
</g>
<g>
</g>
<g>
</g>
<g>
</g>
</svg>
