<?xml version="1.0" encoding="iso-8859-1"?>
<!-- Generator: Adobe Illustrator 19.0.0, SVG Export Plug-In . SVG Version: 6.00 Build 0)  -->
<svg version="1.1" id="Capa_1" xmlns="http://www.w3.org/2000/svg" xmlns:xlink="http://www.w3.org/1999/xlink" x="0px" y="0px"
	 viewBox="0 0 484.944 484.944" style="enable-background:new 0 0 484.944 484.944;" xml:space="preserve">
<path style="fill:#ACABB1;" d="M258.472,28.944l-32-16v64h32V28.944z"/>
<g>
	<path style="fill:#754C29;" d="M290.472,76.944h-32h-32h-32v32h96V76.944z"/>
	<path style="fill:#754C29;" d="M258.472,156.944h64v-48h-160v48H258.472z"/>
</g>
<path style="fill:#E6E7E8;" d="M342.392,395.904l-19.92-238.96h-64v32h34.56l17.44,209.6c0.264,3.37-0.93,6.691-3.28,9.12
	c-3.295,3.442-7.876,5.355-12.64,5.28h-104.16c-4.764,0.075-9.345-1.838-12.64-5.28c-2.35-2.429-3.544-5.75-3.28-9.12l17.44-209.6
	h34.56v-32h-64l-19.92,238.96c-1.371,25.687,18.34,47.621,44.027,48.993c1.27,0.068,2.542,0.084,3.813,0.047h104.16
	c25.713,0.735,47.153-19.514,47.887-45.227C342.475,398.446,342.459,397.174,342.392,395.904L342.392,395.904z"/>
<path style="fill:#78B9EB;" d="M226.472,204.944v-16h-34.56l-17.44,209.6c-0.264,3.37,0.93,6.691,3.28,9.12
	c3.295,3.442,7.876,5.355,12.64,5.28h104.16c4.764,0.075,9.345-1.838,12.64-5.28c2.35-2.429,3.544-5.75,3.28-9.12l-17.44-209.6
	h-34.56v16H226.472z"/>
<path style="fill:#754C29;" d="M161.24,444.944c-8.837,0.685-15.445,8.404-14.76,17.24c0.611,7.885,6.875,14.148,14.76,14.76
	h162.464c8.837-0.685,15.445-8.404,14.76-17.24c-0.611-7.885-6.875-14.148-14.76-14.76H161.24z"/>
<path style="fill:#ACABB1;" d="M226.472,188.944v16h32v-16v-32h-32V188.944z"/>
<path style="fill:#231F20;" d="M332.456,438.8c1.438-1.259,2.808-2.595,4.104-4c9.982-10.646,14.997-25.015,13.808-39.56
	l-19.896-238.632v-47.664c0-4.418-3.582-8-8-8h-24v-24c0-4.418-3.582-8-8-8h-24V24l-48-24v68.944h-24c-4.418,0-8,3.582-8,8v24h-24
	c-4.418,0-8,3.582-8,8v47.664l-19.896,238.648c-1.187,14.54,3.829,28.903,13.808,39.544c1.294,1.407,2.664,2.743,4.104,4
	c-8.633,3.969-14.124,12.643-14.016,22.144c-0.314,12.904,9.865,23.634,22.768,24h162.464c12.903-0.366,23.082-11.096,22.768-24
	C346.581,451.443,341.09,442.767,332.456,438.8L332.456,438.8z M234.472,25.888l16,8v35.056h-16V25.888z M202.472,84.944h80v16h-80
	V84.944z M170.472,116.944h144v32h-144v-8h112c4.418,0,8-3.582,8-8s-3.582-8-8-8h-112V116.944z M182.472,399.208l6.816-81.976
	c4.069,0.767,7.796,2.79,10.656,5.784c13.109,13.184,34.424,13.245,47.608,0.136c0.046-0.045,0.091-0.091,0.136-0.136
	c6.558-7.436,17.902-8.148,25.338-1.59c0.563,0.496,1.094,1.027,1.59,1.59c5.969,5.971,13.964,9.48,22.4,9.832l5.52,66.352v0.144
	c0.083,1.099-0.352,2.173-1.176,2.904c-1.797,1.804-4.263,2.78-6.808,2.696h-104.16c-2.518,0.068-4.953-0.901-6.736-2.68
	C182.799,401.491,182.359,400.357,182.472,399.208L182.472,399.208z M285.008,310.864c-13.132-13.186-34.467-13.231-47.653-0.099
	c-0.033,0.033-0.066,0.066-0.099,0.099c-6.554,7.434-17.893,8.147-25.327,1.593c-0.564-0.497-1.096-1.029-1.593-1.593
	c-5.329-5.32-12.268-8.729-19.736-9.696l8.672-104.224h19.2v16h48v-16h19.2l9.968,119.704
	C291.578,315.878,287.86,313.855,285.008,310.864z M250.472,188.944v8h-16v-32h16V188.944z M169.832,164.944h48.64v16h-26.56
	c-4.171-0.014-7.654,3.179-8,7.336l-17.44,209.464c-0.484,5.647,1.476,11.231,5.384,15.336c4.82,5.079,11.534,7.927,18.536,7.864
	h104.16c7.007,0.06,13.724-2.794,18.544-7.88c3.867-4.073,5.811-9.603,5.344-15.2L301,188.304c-0.346-4.157-3.829-7.35-8-7.336
	h-26.528v-16.024h48.64l19.312,231.608c0.811,10.081-2.676,20.036-9.6,27.408c-7.842,8.355-18.813,13.061-30.272,12.984h-104.16
	c-11.448,0.068-22.406-4.637-30.24-12.984c-6.921-7.367-10.408-17.316-9.6-27.392L169.832,164.944z M323.704,468.944H161.24
	c-4.418-0.742-7.399-4.925-6.657-9.343c0.573-3.411,3.246-6.084,6.657-6.657h162.464c4.418,0.742,7.399,4.925,6.657,9.343
	C329.788,465.698,327.115,468.371,323.704,468.944z"/>
<g>
</g>
<g>
</g>
<g>
</g>
<g>
</g>
<g>
</g>
<g>
</g>
<g>
</g>
<g>
</g>
<g>
</g>
<g>
</g>
<g>
</g>
<g>
</g>
<g>
</g>
<g>
</g>
<g>
</g>
</svg>
