<?xml version="1.0" encoding="iso-8859-1"?>
<!-- Generator: Adobe Illustrator 19.0.0, SVG Export Plug-In . SVG Version: 6.00 Build 0)  -->
<svg version="1.1" id="Capa_1" xmlns="http://www.w3.org/2000/svg" xmlns:xlink="http://www.w3.org/1999/xlink" x="0px" y="0px"
	 viewBox="0 0 480 480" style="enable-background:new 0 0 480 480;" xml:space="preserve">
<g>
	<path style="fill:#FF5023;" d="M376,136L344,8h-72l16,128H376z"/>
	<path style="fill:#FF5023;" d="M456,136L416,8h-72l32,128H456z"/>
	<path style="fill:#FF5023;" d="M136,8H64L24,136h80L136,8z"/>
	<path style="fill:#FF5023;" d="M192,136L208,8h-72l-32,128H192z"/>
	<path style="fill:#FF5023;" d="M288,136L272,8h-64l-16,128H288z"/>
</g>
<g>
	<path style="fill:#FFE26E;" d="M196.32,168c5.686,9.915,16.25,16.021,27.68,16h32c17.655-0.044,31.956-14.345,32-32v-16h-96v16
		C192.006,157.621,193.496,163.14,196.32,168z"/>
	<path style="fill:#FFE26E;" d="M292.32,168c5.686,9.915,16.25,16.021,27.68,16h24c17.655-0.044,31.956-14.345,32-32v-16h-88v16
		C288.006,157.621,289.496,163.14,292.32,168z"/>
	<path style="fill:#FFE26E;" d="M136,184h24c17.655-0.044,31.956-14.345,32-32v-16h-88v16C104.044,169.655,118.345,183.956,136,184z
		"/>
	<path style="fill:#FFE26E;" d="M376,152c0.044,17.655,14.345,31.956,32,32h16c2.702,0.024,5.394-0.326,8-1.04
		c14.133-3.626,24.012-16.369,24-30.96v-16h-80V152z"/>
	<path style="fill:#FFE26E;" d="M48,182.96c2.606,0.714,5.298,1.064,8,1.04h16c17.655-0.044,31.956-14.345,32-32v-16H24v16
		C23.988,166.591,33.867,179.334,48,182.96L48,182.96z"/>
</g>
<path style="fill:#FFAF46;" d="M408,184c-17.655-0.044-31.956-14.345-32-32c-0.044,17.655-14.345,31.956-32,32h-24
	c-17.655-0.044-31.956-14.345-32-32c-0.044,17.655-14.345,31.956-32,32h-32c-17.655-0.044-31.956-14.345-32-32
	c-0.044,17.655-14.345,31.956-32,32h-24c-17.655-0.044-31.956-14.345-32-32c-0.044,17.655-14.345,31.956-32,32H56
	c-2.702,0.024-5.394-0.326-8-1.04V472h48V304c0-35.346,28.654-64,64-64s64,28.654,64,64v168h208V182.96
	c-2.606,0.714-5.298,1.064-8,1.04L408,184z M376,376H264v-80h112V376z"/>
<path style="fill:#FFDA44;" d="M160,240c-35.346,0-64,28.654-64,64v168h128V304C224,268.654,195.346,240,160,240z"/>
<path style="fill:#78B9EB;" d="M264,296h112v80H264V296z"/>
<g>
	<path style="fill:#231F20;" d="M376,288H264c-4.418,0-8,3.582-8,8v80c0,4.418,3.582,8,8,8h112c4.418,0,8-3.582,8-8v-80
		C384,291.582,380.418,288,376,288z M368,368h-96v-64h96V368z"/>
	<path style="fill:#231F20;" d="M463.696,134.48c-0.005-0.289-0.026-0.577-0.064-0.864l-40-128C422.59,2.277,419.498,0.002,416,0H64
		c-3.494,0-6.584,2.267-7.632,5.6l-40,128c-0.038,0.287-0.059,0.575-0.064,0.864C16.152,134.965,16.05,135.479,16,136v16
		c-0.021,15.906,9.41,30.304,24,36.64V472c0,4.418,3.582,8,8,8l0,0h384c4.418,0,8-3.582,8-8V188.624
		c14.587-6.33,24.019-20.722,24-36.624v-16C463.949,135.485,463.847,134.975,463.696,134.48L463.696,134.48z M445.12,128h-62.88
		l-28-112h55.88L445.12,128z M295.064,128l-14-112h56.696l28,112H295.064z M278.936,128h-77.872l14-112h49.872L278.936,128z
		 M184.936,128H114.24l28-112h56.696L184.936,128z M112,144h72v8c-0.048,13.235-10.765,23.952-24,24h-24
		c-13.24-0.035-23.965-10.76-24-24V144z M200,144h80v8c-0.048,13.235-10.765,23.952-24,24h-32c-13.24-0.035-23.965-10.76-24-24V144z
		 M296,144h72v8c-0.048,13.235-10.765,23.952-24,24h-24c-13.24-0.035-23.965-10.76-24-24V144z M69.88,16h55.88l-28,112H34.88
		L69.88,16z M32,152v-8h64v8c-0.048,13.235-10.765,23.952-24,24H56c-1.931,0.018-3.855-0.227-5.72-0.728c-0.104,0-0.2,0-0.304-0.064
		C39.38,172.496,31.977,162.938,32,152z M104,464V304c0-30.928,25.072-56,56-56s56,25.072,56,56v160H104z M424,464H232V304
		c0-39.764-32.236-72-72-72s-72,32.236-72,72v160H56V192h16c1.677-0.007,3.353-0.12,5.016-0.336c0.544-0.072,1.072-0.2,1.6-0.288
		c1.104-0.184,2.2-0.384,3.272-0.664c0.624-0.16,1.232-0.368,1.848-0.56c0.96-0.296,1.912-0.6,2.84-0.968
		c0.64-0.248,1.256-0.528,1.872-0.8c0.888-0.4,1.752-0.8,2.6-1.28c0.608-0.328,1.2-0.672,1.784-1.032c0.8-0.504,1.6-1.048,2.4-1.6
		c0.552-0.4,1.096-0.8,1.6-1.216c0.8-0.624,1.528-1.296,2.264-1.984c0.472-0.432,0.952-0.856,1.4-1.312
		c0.8-0.8,1.512-1.664,2.232-2.536c0.336-0.408,0.704-0.8,1.024-1.216c0.087-0.064,0.17-0.134,0.248-0.208l0.16,0.192
		c0.376,0.496,0.8,0.944,1.192,1.416c0.672,0.8,1.336,1.6,2.056,2.328c0.488,0.504,1.016,0.968,1.528,1.44
		c0.704,0.64,1.4,1.272,2.136,1.864c0.568,0.456,1.152,0.872,1.744,1.296c0.752,0.528,1.512,1.048,2.296,1.528
		c0.616,0.384,1.24,0.744,1.88,1.088c0.8,0.44,1.656,0.848,2.504,1.24c0.648,0.288,1.288,0.584,1.944,0.84
		c0.912,0.36,1.84,0.656,2.776,0.952c0.632,0.192,1.256,0.408,1.904,0.576c1.056,0.272,2.136,0.464,3.2,0.648
		c0.552,0.096,1.088,0.224,1.648,0.296c1.669,0.204,3.35,0.303,5.032,0.296h24c1.677-0.007,3.353-0.12,5.016-0.336
		c0.544-0.072,1.072-0.2,1.6-0.288c1.104-0.184,2.2-0.384,3.272-0.664c0.624-0.16,1.232-0.368,1.848-0.56
		c0.96-0.296,1.912-0.6,2.84-0.968c0.64-0.248,1.256-0.528,1.872-0.8c0.888-0.4,1.752-0.8,2.6-1.28
		c0.608-0.328,1.2-0.672,1.784-1.032c0.8-0.504,1.6-1.048,2.4-1.6c0.552-0.4,1.096-0.8,1.6-1.216c0.8-0.624,1.528-1.296,2.264-1.984
		c0.472-0.432,0.952-0.856,1.4-1.312c0.8-0.8,1.512-1.664,2.232-2.536c0.336-0.408,0.704-0.8,1.024-1.216
		c0.087-0.064,0.17-0.134,0.248-0.208l0.16,0.192c0.376,0.496,0.8,0.944,1.192,1.416c0.672,0.8,1.336,1.6,2.056,2.328
		c0.488,0.504,1.016,0.968,1.528,1.44c0.704,0.64,1.4,1.272,2.136,1.864c0.568,0.456,1.152,0.872,1.744,1.296
		c0.752,0.528,1.512,1.048,2.296,1.528c0.616,0.384,1.24,0.744,1.88,1.088c0.8,0.44,1.656,0.848,2.504,1.24
		c0.648,0.288,1.288,0.584,1.944,0.84c0.912,0.36,1.84,0.656,2.776,0.952c0.632,0.192,1.256,0.408,1.904,0.576
		c1.056,0.272,2.136,0.464,3.2,0.648c0.552,0.096,1.088,0.224,1.648,0.296c1.669,0.204,3.35,0.303,5.032,0.296h32
		c1.677-0.007,3.353-0.12,5.016-0.336c0.544-0.072,1.072-0.2,1.6-0.288c1.104-0.184,2.2-0.384,3.272-0.664
		c0.624-0.16,1.232-0.368,1.848-0.56c0.96-0.296,1.912-0.6,2.84-0.968c0.64-0.248,1.256-0.528,1.872-0.8
		c0.888-0.4,1.752-0.8,2.6-1.28c0.608-0.328,1.2-0.672,1.784-1.032c0.8-0.504,1.6-1.048,2.4-1.6c0.552-0.4,1.096-0.8,1.6-1.216
		c0.8-0.624,1.528-1.296,2.264-1.984c0.472-0.432,0.952-0.856,1.4-1.312c0.8-0.8,1.512-1.664,2.232-2.536
		c0.336-0.408,0.704-0.8,1.024-1.216c0.087-0.064,0.17-0.134,0.248-0.208l0.16,0.192c0.376,0.496,0.8,0.944,1.192,1.416
		c0.672,0.8,1.336,1.6,2.056,2.328c0.488,0.504,1.016,0.968,1.528,1.44c0.704,0.64,1.4,1.272,2.136,1.864
		c0.568,0.456,1.152,0.872,1.744,1.296c0.752,0.528,1.512,1.048,2.296,1.528c0.616,0.384,1.24,0.744,1.88,1.088
		c0.8,0.44,1.656,0.848,2.504,1.24c0.648,0.288,1.288,0.584,1.944,0.84c0.912,0.36,1.84,0.656,2.776,0.952
		c0.632,0.192,1.256,0.408,1.904,0.576c1.056,0.272,2.136,0.464,3.2,0.648c0.552,0.096,1.088,0.224,1.648,0.296
		c1.669,0.204,3.35,0.303,5.032,0.296h24c1.677-0.007,3.353-0.12,5.016-0.336c0.544-0.072,1.072-0.2,1.6-0.288
		c1.104-0.184,2.2-0.384,3.272-0.664c0.624-0.16,1.232-0.368,1.848-0.56c0.96-0.296,1.912-0.6,2.84-0.968
		c0.64-0.248,1.256-0.528,1.872-0.8c0.888-0.4,1.752-0.8,2.6-1.28c0.608-0.328,1.2-0.672,1.784-1.032c0.8-0.504,1.6-1.048,2.4-1.6
		c0.552-0.4,1.096-0.8,1.6-1.216c0.8-0.624,1.528-1.296,2.264-1.984c0.472-0.432,0.952-0.856,1.4-1.312
		c0.8-0.8,1.512-1.664,2.232-2.536c0.336-0.408,0.704-0.8,1.024-1.216c0.087-0.064,0.17-0.134,0.248-0.208l0.16,0.192
		c0.376,0.496,0.8,0.944,1.192,1.416c0.672,0.8,1.336,1.6,2.056,2.328c0.488,0.504,1.016,0.968,1.528,1.44
		c0.704,0.64,1.4,1.272,2.136,1.864c0.568,0.456,1.152,0.872,1.744,1.296c0.752,0.528,1.512,1.048,2.296,1.528
		c0.616,0.384,1.24,0.744,1.88,1.088c0.8,0.44,1.656,0.848,2.504,1.24c0.648,0.288,1.288,0.584,1.944,0.84
		c0.912,0.36,1.84,0.656,2.776,0.952c0.632,0.192,1.256,0.408,1.904,0.576c1.056,0.272,2.136,0.464,3.2,0.648
		c0.552,0.096,1.088,0.224,1.648,0.296c1.669,0.204,3.35,0.303,5.032,0.296h16L424,464z M448,152
		c-0.011,10.999-7.498,20.583-18.168,23.256c-1.9,0.519-3.863,0.77-5.832,0.744h-16c-13.24-0.035-23.965-10.76-24-24v-8h64V152z"/>
</g>
<g>
</g>
<g>
</g>
<g>
</g>
<g>
</g>
<g>
</g>
<g>
</g>
<g>
</g>
<g>
</g>
<g>
</g>
<g>
</g>
<g>
</g>
<g>
</g>
<g>
</g>
<g>
</g>
<g>
</g>
</svg>
