<?xml version="1.0" encoding="iso-8859-1"?>
<!-- Generator: Adobe Illustrator 19.0.0, SVG Export Plug-In . SVG Version: 6.00 Build 0)  -->
<svg version="1.1" id="Capa_1" xmlns="http://www.w3.org/2000/svg" xmlns:xlink="http://www.w3.org/1999/xlink" x="0px" y="0px"
	 viewBox="0 0 480 480" style="enable-background:new 0 0 480 480;" xml:space="preserve">
<path style="fill:#414042;" d="M392,72l-1.28,16H440v160h32V56h-80V72z"/>
<path style="fill:#E6E7E8;" d="M392,56V8H8l40,64l32,400h280l30.72-384L392,72V56z M224,72v368v-48v-48v-48v-48v-48v-48v-48V72z"/>
<path style="fill:#231F20;" d="M472,48h-72V8c0-4.418-3.582-8-8-8H8C3.582,0,0,3.582,0,8c0,1.499,0.421,2.969,1.216,4.24
	l38.96,62.344L72,472.64c0.334,4.167,3.82,7.373,8,7.36h280c4.18,0.013,7.666-3.193,8-7.36L398.104,96H432v152c0,4.418,3.582,8,8,8
	h32c4.418,0,8-3.582,8-8V56C480,51.582,476.418,48,472,48z M352.616,464H87.384L56,71.36c-0.103-1.278-0.512-2.513-1.192-3.6
	L22.4,16H384v39.896V56v8H224c-4.418,0-8,3.582-8,8v24h-72c-4.418,0-8,3.582-8,8s3.582,8,8,8h72v32h-40c-4.418,0-8,3.582-8,8
	s3.582,8,8,8h40v32h-72c-4.418,0-8,3.582-8,8s3.582,8,8,8h72v32h-40c-4.418,0-8,3.582-8,8c0,4.418,3.582,8,8,8h40v32h-72
	c-4.418,0-8,3.582-8,8s3.582,8,8,8h72v32h-40c-4.418,0-8,3.582-8,8s3.582,8,8,8h40v32h-72c-4.418,0-8,3.582-8,8s3.582,8,8,8h72v32
	h-40c-4.418,0-8,3.582-8,8s3.582,8,8,8h48c4.418,0,8-3.582,8-8v-16h16c4.418,0,8-3.582,8-8s-3.582-8-8-8h-16v-32h16
	c4.418,0,8-3.582,8-8s-3.582-8-8-8h-16v-32h16c4.418,0,8-3.582,8-8s-3.582-8-8-8h-16v-32h16c4.418,0,8-3.582,8-8s-3.582-8-8-8h-16
	v-32h16c4.418,0,8-3.582,8-8s-3.582-8-8-8h-16v-32h16c4.418,0,8-3.582,8-8s-3.582-8-8-8h-16v-32h16c4.418,0,8-3.582,8-8
	s-3.582-8-8-8h-16V80h151.336l-0.592,7.36L352.616,464z M464,240h-16V88c0-4.418-3.582-8-8-8h-40.632L400,72v-8h64V240z"/>
<g>
</g>
<g>
</g>
<g>
</g>
<g>
</g>
<g>
</g>
<g>
</g>
<g>
</g>
<g>
</g>
<g>
</g>
<g>
</g>
<g>
</g>
<g>
</g>
<g>
</g>
<g>
</g>
<g>
</g>
</svg>
