<?xml version="1.0" encoding="iso-8859-1"?>
<!-- Generator: Adobe Illustrator 19.0.0, SVG Export Plug-In . SVG Version: 6.00 Build 0)  -->
<svg version="1.1" id="Capa_1" xmlns="http://www.w3.org/2000/svg" xmlns:xlink="http://www.w3.org/1999/xlink" x="0px" y="0px"
	 viewBox="0 0 480.001 480.001" style="enable-background:new 0 0 480.001 480.001;" xml:space="preserve">
<g>
	<path style="fill:#C49A6C;" d="M131.52,416.48c-4.813,25.404,11.878,49.9,37.282,54.713c3.216,0.609,6.486,0.88,9.758,0.807h122.88
		c25.849,0.576,47.271-19.913,47.847-45.762c0.073-3.272-0.198-6.542-0.807-9.758L312,240H168L131.52,416.48z"/>
	<path style="fill:#C49A6C;" d="M128.08,53.6L168,160h29.6L160.96,56l-8.48-24h-9.36c-8.837-0.029-16.023,7.111-16.052,15.948
		C127.062,49.878,127.405,51.792,128.08,53.6L128.08,53.6z"/>
	<path style="fill:#C49A6C;" d="M282.4,160H312l39.92-106.4c3.093-8.278-1.11-17.495-9.388-20.588
		c-1.808-0.675-3.722-1.018-5.652-1.012h-9.36l-8.48,24L282.4,160z"/>
</g>
<g>
	<path style="fill:#E6E7E8;" d="M336,8H144l8.48,24h175.04L336,8z"/>
	<path style="fill:#E6E7E8;" d="M197.6,160h84.8l36.64-104l8.48-24h-175.04l8.48,24L197.6,160z"/>
</g>
<path style="fill:#754C29;" d="M197.6,160H152l4.88,24.32c2.08,10.35,2.08,21.01,0,31.36L152,240h176l-4.88-24.32
	c-2.08-10.35-2.08-21.01,0-31.36L328,160H197.6z"/>
<path style="fill:#231F20;" d="M356.664,34.344c-4.142-5.894-10.718-9.608-17.904-10.112l4.8-13.6
	c1.454-4.172-0.75-8.733-4.923-10.187C337.79,0.15,336.898-0.001,336,0H144c-4.418,0.004-7.997,3.589-7.993,8.007
	c0.001,0.905,0.155,1.803,0.457,2.657l4.8,13.6c-13.119,0.889-23.033,12.244-22.144,25.363c0.158,2.334,0.66,4.633,1.488,6.821
	L156.448,152H152c-4.418-0.001-8.001,3.58-8.002,7.998c0,0.538,0.054,1.075,0.162,1.602l4.88,24.32
	c1.856,9.311,1.856,18.897,0,28.208l-4.88,24.32c-0.857,4.334,1.962,8.543,6.296,9.4c0.509,0.101,1.026,0.151,1.544,0.152h6.176
	l-34.48,166.84c-3.276,15.709,0.729,32.057,10.896,44.472c10.773,13.191,26.937,20.797,43.968,20.688h122.88
	c17.042,0.118,33.22-7.488,44-20.688c10.162-12.411,14.17-28.751,10.904-44.456L321.824,248H328c4.418,0.001,8.001-3.58,8.002-7.998
	c0-0.538-0.054-1.075-0.162-1.602l-4.88-24.32c-1.856-9.311-1.856-18.897,0-28.208l4.88-24.32c0.857-4.334-1.962-8.543-6.296-9.4
	C329.036,152.051,328.519,152,328,152h-4.448l35.864-95.584C362.17,49.052,361.142,40.806,356.664,34.344L356.664,34.344z
	 M324.688,16l-2.824,8H158.136l-2.824-8H324.688z M318.232,168l-2.96,14.744c-2.272,11.392-2.272,23.12,0,34.512l2.96,14.744
	H161.768l2.96-14.744c2.272-11.392,2.272-23.12,0-34.512L161.768,168L318.232,168z M203.264,152L163.776,40h152.448l-39.488,112
	H203.264z M135.568,50.8c-0.938-2.445-0.593-5.198,0.92-7.336c1.493-2.191,3.981-3.491,6.632-3.464h3.688l39.488,112h-12.76
	L135.568,50.8z M332.984,449.2c-7.736,9.449-19.332,14.89-31.544,14.8H178.56c-12.209,0.094-23.805-5.341-31.544-14.784
	c-7.132-8.679-9.948-20.123-7.656-31.12L153.024,352h173.96l13.664,66.112c2.282,10.994-0.536,22.429-7.664,31.104V449.2z
	 M323.672,336H156.328l18.184-88h130.976L323.672,336z M344.432,50.792L306.465,152h-12.76l39.488-112h3.688
	c4.418-0.03,8.024,3.527,8.055,7.945C344.942,48.916,344.772,49.881,344.432,50.792z"/>
<g>
</g>
<g>
</g>
<g>
</g>
<g>
</g>
<g>
</g>
<g>
</g>
<g>
</g>
<g>
</g>
<g>
</g>
<g>
</g>
<g>
</g>
<g>
</g>
<g>
</g>
<g>
</g>
<g>
</g>
</svg>
