<?xml version="1.0" encoding="iso-8859-1"?>
<!-- Generator: Adobe Illustrator 19.0.0, SVG Export Plug-In . SVG Version: 6.00 Build 0)  -->
<svg version="1.1" id="Capa_1" xmlns="http://www.w3.org/2000/svg" xmlns:xlink="http://www.w3.org/1999/xlink" x="0px" y="0px"
	 viewBox="0 0 480.375 480.375" style="enable-background:new 0 0 480.375 480.375;" xml:space="preserve">
<g>
	<path style="fill:#ACABB1;" d="M292.104,53.175c-5.151-9.026-13.524-15.77-23.44-18.88c-8.123-2.56-16.837-2.56-24.96,0
		c-9.916,3.11-18.289,9.854-23.44,18.88l-20.08,35.2h112L292.104,53.175z"/>
	<path style="fill:#ACABB1;" d="M268.664,34.295c2.296-2.794,3.541-6.304,3.52-9.92c0-8.837-7.163-16-16-16s-16,7.163-16,16
		c-0.021,3.616,1.224,7.126,3.52,9.92C251.827,31.735,260.541,31.735,268.664,34.295z"/>
	<path style="fill:#ACABB1;" d="M152.184,214.615v241.76c0.026,8.826,7.174,15.974,16,16h176c8.826-0.026,15.974-7.174,16-16
		v-241.76c0.002-19.884-4.627-39.495-13.52-57.28l-2.48-4.96l-10.64-21.36l-9.36-18.64l-12-24h-112l-34.48,68.96
		C156.811,175.12,152.182,194.731,152.184,214.615L152.184,214.615z M328.184,214.615c-0.016-14.921-3.493-29.635-10.16-42.984
		C324.69,184.98,328.168,199.694,328.184,214.615L328.184,214.615z"/>
	<path style="fill:#ACABB1;" d="M344.184,152.375l40-40h-60l9.36,18.64L344.184,152.375z"/>
</g>
<g>
	<path style="fill:#231F20;" d="M328.184,448.375c-4.418,0-8-3.582-8-8v-192c0-4.418,3.582-8,8-8s8,3.582,8,8v192
		C336.184,444.793,332.602,448.375,328.184,448.375z"/>
	<path style="fill:#231F20;" d="M328.184,222.615c-4.418,0-8-3.582-8-8c-0.015-13.679-3.203-27.169-9.312-39.408
		c-1.977-3.952-0.376-8.759,3.576-10.736c3.952-1.977,8.759-0.376,10.736,3.576c7.211,14.466,10.976,30.404,11,46.568
		C336.184,219.033,332.602,222.615,328.184,222.615L328.184,222.615z"/>
	<path style="fill:#231F20;" d="M391.576,109.311c-1.239-2.989-4.157-4.937-7.392-4.936h-55.056l-9.744-19.576
		c-0.04-0.072-0.096-0.12-0.136-0.192c-0.023-0.068-0.05-0.135-0.08-0.2l-20.08-35.2c-4.618-8.1-11.454-14.711-19.704-19.056
		c3.394-12.813-4.242-25.951-17.055-29.345c-12.813-3.394-25.951,4.242-29.345,17.055c-1.067,4.027-1.067,8.263,0,12.29
		c-8.232,4.34-15.054,10.94-19.664,19.024l-17.776,31.2H179.96c-43.06-0.116-79.838,31.036-86.808,73.528l-4.856,29.152
		c-0.727,4.358,2.216,8.48,6.574,9.208c0.001,0,0.001,0,0.002,0c0.433,0.076,0.872,0.114,1.312,0.112
		c3.905-0.005,7.236-2.829,7.88-6.68l4.864-29.152c5.699-34.773,35.796-60.267,71.032-60.168h7.28l-28.656,57.384
		c-9.437,18.9-14.366,39.731-14.4,60.856v241.76c0,13.255,10.745,24,24,24h176c13.255,0,24-10.745,24-24v-241.76
		c-0.028-21.042-4.912-41.794-14.272-60.64l35.928-35.928C392.136,115.756,392.821,112.306,391.576,109.311L391.576,109.311z
		 M256.184,16.375c4.418,0,8,3.582,8,8v0.64h-0.264c-1.6-0.24-3.136-0.28-4.712-0.376c-1.032-0.08-2.008-0.264-3.024-0.264
		c-0.8,0-1.6,0.16-2.448,0.2c-1.772,0.045-3.54,0.186-5.296,0.424l-0.256,0.016c0-0.208,0-0.424,0-0.64
		C248.184,19.957,251.765,16.375,256.184,16.375L256.184,16.375z M227.208,57.175c4.153-7.288,10.923-12.722,18.936-15.2
		c4.895-1.527,10.075-1.919,15.144-1.144c1.695,0.256,3.367,0.647,5,1.168c7.993,2.487,14.74,7.921,18.872,15.2l13.248,23.176
		H213.96L227.208,57.175z M352.184,456.375c0,4.418-3.582,8-8,8h-176c-4.418,0-8-3.582-8-8v-241.76
		c0.021-18.641,4.361-37.023,12.68-53.704l32.264-64.536H307.24l32.264,64.536c8.319,16.681,12.659,35.063,12.68,53.704V456.375z
		 M346.384,138.863l-9.232-18.488h27.72L346.384,138.863z"/>
</g>
<g>
</g>
<g>
</g>
<g>
</g>
<g>
</g>
<g>
</g>
<g>
</g>
<g>
</g>
<g>
</g>
<g>
</g>
<g>
</g>
<g>
</g>
<g>
</g>
<g>
</g>
<g>
</g>
<g>
</g>
</svg>
