<?xml version="1.0" encoding="iso-8859-1"?>
<!-- Generator: Adobe Illustrator 19.0.0, SVG Export Plug-In . SVG Version: 6.00 Build 0)  -->
<svg version="1.1" id="Capa_1" xmlns="http://www.w3.org/2000/svg" xmlns:xlink="http://www.w3.org/1999/xlink" x="0px" y="0px"
	 viewBox="0 0 480 480" style="enable-background:new 0 0 480 480;" xml:space="preserve">
<g>
	<path style="fill:#414042;" d="M279.52,110.56l-2.08-0.24c-4.4-0.4-8.88-0.64-13.44-0.64s-9.04,0.24-13.44,0.64l-2.08,0.24
		c-26.542,2.813-51.763,13.013-72.8,29.44h176.64C331.284,123.573,306.063,113.374,279.52,110.56L279.52,110.56z"/>
	<path style="fill:#414042;" d="M264,109.68c4.56,0,9.04,0.24,13.44,0.64l2.08,0.24c0.32-4.72,0.48-9.12,0.48-10.56
		c0-8.837-7.163-16-16-16s-16,7.163-16,16c0,1.44,0.16,5.84,0.48,10.56l2.08-0.24C254.96,109.92,259.44,109.68,264,109.68z"/>
</g>
<path style="fill:#C49A6C;" d="M56,236v96c0,17.673,14.327,32,32,32h32v32h288V252.96c0.054-24.765-6.432-49.105-18.8-70.56
	c-1.988-3.588-4.178-7.061-6.56-10.4c-4.908-7.292-10.536-14.073-16.8-20.24c-4.233-4.194-8.721-8.121-13.44-11.76H175.68
	c-35.117,26.945-55.697,68.697-55.68,112.96V332h-16c-8.826-0.026-15.974-7.174-16-16v-96c0-17.673-14.327-32-32-32H32L8,220h32
	C48.826,220.027,55.974,227.175,56,236L56,236z M343.2,172.8c20.93,21.055,32.715,49.512,32.8,79.2
	C375.915,222.313,364.13,193.855,343.2,172.8c-0.832-0.837-1.68-1.661-2.544-2.472C341.526,171.134,342.374,171.958,343.2,172.8z"/>
<g>
	<path style="fill:#231F20;" d="M348.88,167.144c-0.896-0.904-1.824-1.8-2.76-2.672c-3.23-3.015-8.293-2.842-11.308,0.388
		s-2.842,8.293,0.388,11.308c0.8,0.744,1.6,1.496,2.352,2.28c6.585,6.598,12.237,14.064,16.8,22.192
		c8.94,15.641,13.644,33.344,13.648,51.36v112c0,4.418,3.582,8,8,8s8-3.582,8-8V252c0.006-20.785-5.409-41.212-15.712-59.264
		C363.013,183.362,356.484,174.752,348.88,167.144L348.88,167.144z"/>
	<path style="fill:#231F20;" d="M392,164h-5.368c-4.533-6.38-9.597-12.367-15.136-17.896c-4.465-4.427-9.199-8.573-14.176-12.416
		c-0.104-0.08-0.224-0.104-0.328-0.176c-20.143-15.622-43.914-25.891-69.096-29.848C287.96,102.016,288,100.672,288,100
		c0-13.255-10.745-24-24-24s-24,10.745-24,24c0,0.672,0.04,2.016,0.104,3.664c-25.263,3.969-49.104,14.288-69.288,29.992
		C133.649,162.052,111.891,206.187,112,252.96V324h-8c-4.418,0-8-3.582-8-8v-96c-0.026-22.08-17.92-39.974-40-40H32
		c-2.518,0-4.889,1.186-6.4,3.2l-24,32c-2.651,3.535-1.935,8.549,1.6,11.2C4.585,227.439,6.27,228,8,228h32c4.418,0,8,3.582,8,8v96
		c0.026,22.08,17.92,39.974,40,40h24v24c0,4.418,3.582,8,8,8h288c4.418,0,8-3.582,8-8v-27.368
		c37.792-10.822,63.881-45.321,64-84.632v-32C479.943,203.423,440.578,164.058,392,164z M264,92c4.418,0,8,3.582,8,8
		c0,0.408,0,1.064-0.04,1.896h-0.32c-5.092-0.276-10.196-0.276-15.288,0h-0.312C256,101.064,256,100.408,256,100
		C256,95.582,259.582,92,264,92L264,92z M249.344,118.512l1.936-0.224c8.413-0.8,16.883-0.8,25.296,0l2.104,0.24
		c16.03,1.695,31.625,6.258,46.04,13.472H203.28C217.701,124.775,233.305,120.206,249.344,118.512z M400,388H128v-24
		c0-4.418-3.582-8-8-8H88c-13.255,0-24-10.745-24-24v-96c0-13.255-10.745-24-24-24H24l12-16h20c13.255,0,24,10.745,24,24v96
		c0,13.255,10.745,24,24,24h16c4.418,0,8-3.582,8-8v-79.04c-0.1-40.856,18.481-79.517,50.448-104.96H349.6
		c3.702,2.955,7.24,6.109,10.6,9.448c5.936,5.849,11.267,12.281,15.912,19.2c2.231,3.129,4.283,6.382,6.144,9.744
		C393.895,206.646,400.014,229.6,400,252.96L400,388z M464,284c-0.085,30.489-19.285,57.648-48,67.896V252.96
		c0-3.237-0.107-6.469-0.32-9.696c-0.064-1.08-0.208-2.144-0.304-3.2c-0.184-2.136-0.352-4.272-0.632-6.4
		c-0.16-1.272-0.408-2.528-0.608-3.8c-0.296-1.904-0.568-3.824-0.936-5.712c-0.264-1.344-0.6-2.656-0.896-4
		c-0.408-1.8-0.8-3.608-1.248-5.384c-0.36-1.368-0.8-2.712-1.192-4.064c-0.504-1.72-0.984-3.44-1.552-5.136
		c-0.456-1.368-0.984-2.712-1.48-4.064c-0.6-1.648-1.176-3.304-1.84-4.928c-0.544-1.352-1.168-2.664-1.752-4
		c-0.704-1.6-1.392-3.2-2.144-4.8c-0.64-1.304-1.336-2.584-2.008-3.864s-1.256-2.536-1.944-3.776
		C434.813,182.881,463.979,214.232,464,252V284z"/>
</g>
<g>
</g>
<g>
</g>
<g>
</g>
<g>
</g>
<g>
</g>
<g>
</g>
<g>
</g>
<g>
</g>
<g>
</g>
<g>
</g>
<g>
</g>
<g>
</g>
<g>
</g>
<g>
</g>
<g>
</g>
</svg>
