<?xml version="1.0" encoding="iso-8859-1"?>
<!-- Generator: Adobe Illustrator 19.0.0, SVG Export Plug-In . SVG Version: 6.00 Build 0)  -->
<svg version="1.1" id="Capa_1" xmlns="http://www.w3.org/2000/svg" xmlns:xlink="http://www.w3.org/1999/xlink" x="0px" y="0px"
	 viewBox="0 0 480.041 480.041" style="enable-background:new 0 0 480.041 480.041;" xml:space="preserve">
<path style="fill:#78B9EB;" d="M306.197,440.041H117.845c-17.673-0.004-31.997-14.334-31.993-32.007c0-0.59,0.017-1.18,0.049-1.769
	l14.12-254.224h224l14.12,254.224c0.981,17.646-12.529,32.746-30.175,33.727C307.377,440.024,306.787,440.041,306.197,440.041z"/>
<g>
	<path style="fill:#231F20;" d="M332.493,148.721c-0.059-1.067-0.331-2.112-0.8-3.072c0.17-0.522,0.28-1.061,0.328-1.608
		c0-4.418-3.582-8-8-8c-11.331-0.238-22.474,2.915-32,9.056c-14.695,9.259-33.401,9.259-48.096,0
		c-19.605-12.074-44.339-12.074-63.944,0c-7.097,4.724-15.477,7.148-24,6.944c-8.524,0.209-16.905-2.216-24-6.944
		c-9.008-5.78-19.466-8.897-30.168-8.992c-1.596-0.577-3.37-0.379-4.8,0.536c-0.276,0.153-0.543,0.322-0.8,0.504
		c-0.471,0.247-0.913,0.545-1.32,0.888c-1.801,1.478-2.853,3.679-2.872,6.008c0.048,0.425,0.134,0.846,0.256,1.256l-13.72,261.144
		c-0.884,22.074,16.294,40.684,38.368,41.568c0.525,0.021,1.051,0.032,1.576,0.032h187.04c22.091-0.014,39.989-17.934,39.974-40.026
		c0-0.512-0.01-1.023-0.03-1.534l-3.776-98.872L332.493,148.721z M322.773,424.721c-4.498,4.698-10.728,7.344-17.232,7.32h-187.04
		c-13.255-0.014-23.989-10.77-23.975-24.025c0-0.277,0.005-0.554,0.015-0.831l13.368-254.576c5.745,1.034,11.223,3.211,16.112,6.4
		c9.51,6.127,20.634,9.272,31.944,9.032c11.331,0.242,22.476-2.912,32-9.056c14.687-9.258,33.385-9.258,48.072,0
		c19.621,12.088,44.379,12.088,64,0c5.065-3.272,10.757-5.452,16.712-6.4l9.04,155.832l3.768,98.704
		c0.247,6.551-2.205,12.916-6.784,17.608L322.773,424.721z"/>
	<path style="fill:#231F20;" d="M412.021,48.041h-48v-8c0.021-4.124-3.097-7.588-7.2-8l-320-32
		c-4.396-0.443-8.319,2.762-8.761,7.158c-0.186,1.846,0.276,3.699,1.305,5.242l30.56,45.84L46.581,405.265
		c-1.533,39.735,29.436,73.189,69.17,74.722c0.916,0.035,1.833,0.053,2.75,0.054h187.04c39.764-0.015,71.988-32.262,71.974-72.026
		c0-0.917-0.018-1.833-0.054-2.75l-3.576-92.856c47.086-17.296,78.315-62.207,78.136-112.368v-112
		C451.994,65.96,434.101,48.067,412.021,48.041L412.021,48.041z M345.821,446.921c-10.511,10.989-25.074,17.178-40.28,17.12h-187.04
		c-30.928-0.017-55.987-25.102-55.97-56.03c0-0.713,0.014-1.426,0.042-2.138L76.021,56.345c0.065-1.683-0.403-3.343-1.336-4.744
		l-22.616-33.92l295.952,29.6l13.448,358.584C362.106,421.117,356.448,435.962,345.821,446.921z M436.021,200.041
		c0.161,41.544-24.554,79.153-62.752,95.488l-8.928-231.488h47.68c13.255,0,24,10.745,24,24L436.021,200.041z"/>
</g>
<g>
</g>
<g>
</g>
<g>
</g>
<g>
</g>
<g>
</g>
<g>
</g>
<g>
</g>
<g>
</g>
<g>
</g>
<g>
</g>
<g>
</g>
<g>
</g>
<g>
</g>
<g>
</g>
<g>
</g>
</svg>
