<?xml version="1.0" encoding="iso-8859-1"?>
<!-- Generator: Adobe Illustrator 19.0.0, SVG Export Plug-In . SVG Version: 6.00 Build 0)  -->
<svg version="1.1" id="Capa_1" xmlns="http://www.w3.org/2000/svg" xmlns:xlink="http://www.w3.org/1999/xlink" x="0px" y="0px"
	 viewBox="0 0 480 480" style="enable-background:new 0 0 480 480;" xml:space="preserve">
<path style="fill:#D1D3D4;" d="M344,102.264l-33.6,309.192c-1.765,16.244-15.484,28.55-31.824,28.544h-77.152
	c-16.34,0.006-30.059-12.3-31.824-28.544L136,102.264V8h-32v96l36.896,339.456c1.764,16.241,15.479,28.546,31.816,28.544h134.576
	c16.337,0.002,30.052-12.303,31.816-28.544L376,104V8h-32L344,102.264z"/>
<path style="fill:#E6E7E8;" d="M169.6,411.456c1.765,16.244,15.484,28.55,31.824,28.544h77.152
	c16.34,0.006,30.059-12.3,31.824-28.544L344,102.264V8H136v94.264L169.6,411.456z M162.744,248L208,202.744L253.256,248L208,293.256
	L162.744,248z M224,429.256L178.744,384L224,338.744L269.256,384L224,429.256z M253.4,353.256L230.744,293.4l59.856-22.656
	l22.656,59.856L253.4,353.256z M258.4,239.768L240.232,178.4l61.368-18.16l18.168,61.36L258.4,239.768z M256,80h64v64h-64V80z
	 M192.672,17.216l62.112,15.456l-15.456,62.112l-62.112-15.456L192.672,17.216z M210.6,102.744l22.656,59.856L173.4,185.256
	L150.744,125.4L210.6,102.744z"/>
<g>
	<path style="fill:#78B9EB;" d="M162.775,247.996l45.255-45.255l45.255,45.255l-45.255,45.255L162.775,247.996z"/>
	<path style="fill:#78B9EB;" d="M240.234,178.398l61.369-18.162l18.162,61.369l-61.369,18.162L240.234,178.398z"/>
	<path style="fill:#78B9EB;" d="M230.672,293.344l59.84-22.656l22.656,59.84l-59.84,22.656L230.672,293.344z"/>
	<path style="fill:#78B9EB;" d="M178.743,384.002l45.255-45.255l45.255,45.255l-45.255,45.255L178.743,384.002z"/>
	<path style="fill:#78B9EB;" d="M150.696,125.384l59.84-22.656l22.656,59.84l-59.84,22.656L150.696,125.384z"/>
	<path style="fill:#78B9EB;" d="M256,80h64v64h-64V80z"/>
	<path style="fill:#78B9EB;" d="M177.216,79.325l15.457-62.106l62.106,15.457l-15.457,62.106L177.216,79.325z"/>
</g>
<path style="fill:#231F20;" d="M376,0H104c-4.418,0-8,3.582-8,8v96c0,0.289,0.016,0.577,0.048,0.864l36.896,339.464
	c2.185,20.31,19.341,35.699,39.768,35.672h134.576c20.427,0.027,37.583-15.362,39.768-35.672l36.896-339.464
	c0.032-0.287,0.048-0.575,0.048-0.864V8C384,3.582,380.418,0,376,0L376,0z M257.944,384L224,417.944L190.056,384L224,350.056
	L257.944,384z M215.432,432h-14.008c-12.238-0.018-22.502-9.242-23.824-21.408l-2.008-18.464L215.432,432z M274.912,389.656
	c3.123-3.124,3.123-8.188,0-11.312l-17.896-17.904l53.056-20.08l-7.632,70.232c-1.323,12.182-11.611,21.41-23.864,21.408h-46.008
	L274.912,389.656z M258.048,342.944l-16.992-44.896l44.896-16.992l16.992,44.896L258.048,342.944z M313.512,308.68l-15.424-40.8
	c-1.561-4.133-6.178-6.218-10.311-4.656c0,0-0.001,0-0.001,0l-59.864,22.656c-4.133,1.561-6.218,6.178-4.656,10.311
	c0,0,0,0.001,0,0.001l18.552,49.016l-12.152-12.152c-3.124-3.123-8.188-3.123-11.312,0l-44.384,44.376l-13.04-120l41.424,41.424
	c3.124,3.123,8.188,3.123,11.312,0l45.256-45.256c1.653-1.678,2.464-4.01,2.208-6.352l60.92-18.032l0.112-0.056L313.512,308.68z
	 M174.056,248L208,214.056L241.944,248L208,281.944L174.056,248z M250.176,183.8l46.024-13.6l13.6,46.024l-46.024,13.6
	L250.176,183.8z M324.36,208.928l-15.088-50.968c-1.254-4.237-5.705-6.655-9.941-5.401c-0.001,0-0.002,0.001-0.003,0.001
	l-61.368,18.168c-4.237,1.254-6.655,5.705-5.401,9.941c0,0.001,0.001,0.002,0.001,0.003l14.856,50.168l-33.76-33.752
	c-3.124-3.123-8.188-3.123-11.312,0l-43.288,43.28L148.32,141.6l17.6,46.48c1.178,3.112,4.16,5.171,7.488,5.168
	c0.965,0.003,1.922-0.171,2.824-0.512l59.864-22.656c4.133-1.562,6.218-6.178,4.656-10.311c0,0,0-0.001,0-0.001l-22.656-59.864
	c-0.365-0.952-0.908-1.826-1.6-2.576l20.928,5.208c4.287,1.067,8.628-1.543,9.696-5.831c0,0,0-0.001,0-0.001L248,93.04V144
	c0,4.418,3.582,8,8,8h64c4.418,0,8-3.582,8-8V80c0-4.418-3.582-8-8-8h-64c-0.996,0.012-1.981,0.21-2.904,0.584l9.448-37.976
	c1.067-4.287-1.543-8.628-5.831-9.696c0,0-0.001,0-0.001,0L220.904,16H336v85.832L324.36,208.928z M186.912,73.496l11.592-46.584
	l46.584,11.592l-11.592,46.584L186.912,73.496z M175.288,87.096L208,95.2c-0.064,0-0.136,0-0.2,0l-59.864,22.656
	c-0.734,0.322-1.416,0.75-2.024,1.272L144,101.832V16h40.736l-15.28,61.392c-1.067,4.287,1.543,8.628,5.831,9.696
	c0.001,0,0.001,0,0.001,0V87.096z M222.944,157.96l-44.896,16.992l-16.992-44.896l44.896-16.992L222.944,157.96z M264,136V88h48v48
	H264z M368,103.568l-36.848,339.024c-1.323,12.182-11.611,21.41-23.864,21.408H172.712c-12.253,0.002-22.541-9.226-23.864-21.408
	L112,103.568V16h16v86.264c0,0.291,0.016,0.582,0.048,0.872l33.6,309.192c2.181,20.315,19.344,35.707,39.776,35.672h77.152
	c20.429,0.031,37.587-15.36,39.768-35.672l33.6-309.192c0.034-0.289,0.053-0.581,0.056-0.872V16h16L368,103.568z"/>
<g>
</g>
<g>
</g>
<g>
</g>
<g>
</g>
<g>
</g>
<g>
</g>
<g>
</g>
<g>
</g>
<g>
</g>
<g>
</g>
<g>
</g>
<g>
</g>
<g>
</g>
<g>
</g>
<g>
</g>
</svg>
