<?xml version="1.0" encoding="iso-8859-1"?>
<!-- Generator: Adobe Illustrator 19.0.0, SVG Export Plug-In . SVG Version: 6.00 Build 0)  -->
<svg version="1.1" id="Capa_1" xmlns="http://www.w3.org/2000/svg" xmlns:xlink="http://www.w3.org/1999/xlink" x="0px" y="0px"
	 viewBox="0 0 480 480" style="enable-background:new 0 0 480 480;" xml:space="preserve">
<circle style="fill:#C49A6C;" cx="200" cy="16" r="8"/>
<g>
	<path style="fill:#ACABB1;" d="M216,24h-16h-16v32h16h16V24z"/>
	<path style="fill:#ACABB1;" d="M216,104h-16h-16v32h32V104z"/>
</g>
<path style="fill:#754C29;" d="M304,136h-88h-32H96v32h208V136z"/>
<path style="fill:#C49A6C;" d="M304,168H96c0,53.019,42.981,96,96,96h16C261.019,264,304,221.019,304,168z"/>
<g>
	<path style="fill:#754C29;" d="M328,296v-32H208h-16H72v32h16h224H328z"/>
	<path style="fill:#754C29;" d="M72,440v32h256v-32h-16H88H72z"/>
</g>
<path style="fill:#C49A6C;" d="M312,440V296H88v144H312z M120,360h160v48H120V360z"/>
<path style="fill:#FFAF46;" d="M280,360H120v48h160V360z"/>
<circle style="fill:#C49A6C;" cx="384" cy="32" r="8"/>
<g>
	<path style="fill:#231F20;" d="M408,48h-8c4.418,0,8-3.582,8-8s-3.582-8-8-8c0-8.837-7.163-16-16-16s-16,7.163-16,16
		c-4.418,0-8,3.582-8,8s3.582,8,8,8h-40c-0.959-0.002-1.91,0.169-2.808,0.504L262.552,72H208v-8h8c4.418,0,8-3.582,8-8V24
		c0-4.418-3.582-8-8-8c0-8.837-7.163-16-16-16c-8.837,0-16,7.163-16,16c-4.418,0-8,3.582-8,8v32c0,4.418,3.582,8,8,8h8v8h-24
		c-4.418,0-8,3.582-8,8s3.582,8,8,8h24v8h-8c-4.418,0-8,3.582-8,8v24H96c-4.418,0-8,3.582-8,8v32
		c0.032,35.779,18.468,69.024,48.8,88H72c-4.418,0-8,3.582-8,8v32c0,4.418,3.582,8,8,8h8v128h-8c-4.418,0-8,3.582-8,8v32
		c0,4.418,3.582,8,8,8h256c4.418,0,8-3.582,8-8v-32c0-4.418-3.582-8-8-8h-8V304h8c4.418,0,8-3.582,8-8v-32c0-4.418-3.582-8-8-8
		h-64.8c30.332-18.976,48.768-52.221,48.8-88v-32c0-4.418-3.582-8-8-8h-80v-24c0-4.418-3.582-8-8-8h-8v-8h56
		c0.959,0.002,1.91-0.169,2.808-0.504L329.448,64H376v8c0,4.418,3.582,8,8,8s8-3.582,8-8v-8h16c4.418,0,8-3.582,8-8
		S412.418,48,408,48z M208,48h-16V32h16V48z M320,464H80v-16h240V464z M304,432H96V304h208V432z M320,272v16H80v-16H320z M208,256
		h-16c-45.481-0.054-83.449-34.712-87.64-80h191.28C291.449,221.288,253.481,255.946,208,256z M296,160H104v-16h192V160z M192,128
		v-16h16v16H192z"/>
	<path style="fill:#231F20;" d="M120,416h160c4.418,0,8-3.582,8-8v-48c0-4.418-3.582-8-8-8H120c-4.418,0-8,3.582-8,8v48
		C112,412.418,115.582,416,120,416z M128,368h144v32H128V368z"/>
	<path style="fill:#231F20;" d="M208,376h-16c-4.418,0-8,3.582-8,8s3.582,8,8,8h16c4.418,0,8-3.582,8-8S212.418,376,208,376z"/>
</g>
<g>
</g>
<g>
</g>
<g>
</g>
<g>
</g>
<g>
</g>
<g>
</g>
<g>
</g>
<g>
</g>
<g>
</g>
<g>
</g>
<g>
</g>
<g>
</g>
<g>
</g>
<g>
</g>
<g>
</g>
</svg>
