<?xml version="1.0" encoding="iso-8859-1"?>
<!-- Generator: Adobe Illustrator 19.0.0, SVG Export Plug-In . SVG Version: 6.00 Build 0)  -->
<svg version="1.1" id="Capa_1" xmlns="http://www.w3.org/2000/svg" xmlns:xlink="http://www.w3.org/1999/xlink" x="0px" y="0px"
	 viewBox="0 0 480 480" style="enable-background:new 0 0 480 480;" xml:space="preserve">
<path style="fill:#78B9EB;" d="M264.801,200h-48c-0.84,0,0,224,0,224h48C264.801,424,264.001,200,264.801,200z"/>
<path style="fill:#E6E7E8;" d="M137.921,177.36l21.2,279.6c0.508,8.46,7.525,15.055,16,15.04h129.76
	c8.475,0.015,15.492-6.58,16-15.04l21.2-279.6c7.148-5.489,11.651-13.738,12.4-22.72L368.001,8h-256l13.52,146.64
	C126.271,163.622,130.773,171.871,137.921,177.36L137.921,177.36z M168.753,160.68L157.401,152l-9.6-104l-0.736-8l0.736,8h184.376
	l0.736-8l-0.736,8l-9.6,103.704l-11.344,8.704L308.073,200l-16.872,209.208c-0.632,8.343-7.585,14.791-15.952,14.792h-70.496
	c-8.367-0.001-15.32-6.449-15.952-14.792L171.921,200L168.753,160.68z"/>
<path style="fill:#78B9EB;" d="M264.801,424h10.4c8.386,0.024,15.367-6.43,16-14.792L308.073,200h-43.272
	C264.001,200,264.801,424,264.801,424z"/>
<path style="fill:#E6E7E8;" d="M264.801,200h43.2l3.2-39.592l11.344-8.704L332.177,48H147.825l9.6,104l11.352,8.704L171.921,200
	H264.801z"/>
<path style="fill:#78B9EB;" d="M204.753,424h12.088c0,0-0.84-224,0-224h-44.92l16.88,209.208
	C189.433,417.551,196.386,423.999,204.753,424z"/>
<path style="fill:#231F20;" d="M373.913,2.608c-1.516-1.662-3.662-2.609-5.912-2.608h-256c-4.418-0.019-8.015,3.548-8.034,7.966
	c-0.001,0.257,0.01,0.514,0.034,0.77l13.52,146.584c0.849,9.926,5.354,19.183,12.64,25.976l20.944,276.128
	c0.755,12.696,11.282,22.598,24,22.576h129.776c12.654,0.028,23.156-9.774,24-22.4l20.952-276.272
	c7.276-6.778,11.78-16.013,12.64-25.92L376.001,8.736C376.2,6.49,375.442,4.265,373.913,2.608z M312.897,456.496
	c-0.262,4.223-3.768,7.512-8,7.504H175.121c-4.284,0.004-7.811-3.368-8-7.648L148.265,208h16.28l16.256,201.816
	c1,12.517,11.443,22.17,24,22.184h70.48c12.517-0.043,22.914-9.668,23.92-22.144L315.457,208h16.28L312.897,456.496z M176.729,160
	c-0.186-2.253-1.316-4.322-3.112-5.696l-8.568-6.584l-8.976-97.416c2.611,1.228,5.109,2.684,7.464,4.352
	c16.902,12.459,39.946,12.459,56.848,0c11.536-8.873,27.6-8.873,39.136,0c16.923,12.455,39.981,12.455,56.904,0
	c2.366-1.679,4.878-3.143,7.504-4.376l-8.968,97.208l-8.56,6.576c-1.798,1.375-2.928,3.448-3.112,5.704l-2.6,32.232H179.305
	L176.729,160z M224.801,416c-0.272-75.608-0.504-179.832-0.2-208h32.2c-0.72,19.744-0.544,70.856,0,208H224.801z M272.801,416
	c-0.272-75.608-0.504-179.832-0.2-208h26.784l-16.184,200.616c-0.323,4.176-3.812,7.396-8,7.384H272.801z M208.801,208
	c-0.72,19.744-0.544,70.856,0,208h-4c-4.206,0.011-7.701-3.237-8-7.432L180.593,208H208.801z M346.465,153.96
	c-0.572,6.734-3.945,12.919-9.296,17.048c-1.804,1.386-2.933,3.475-3.104,5.744L332.945,192h-16.2l2.208-27.408l8.528-6.544
	c1.766-1.355,2.888-3.384,3.096-5.6l10.304-111.712c0.303-3.448-1.676-6.691-4.88-8V32c-0.76,0-1.424,0.072-2.144,0.096
	c-0.072,0-0.136-0.056-0.208-0.064c-0.36,0.015-0.718,0.055-1.072,0.12c-9.063,0.551-17.766,3.747-25.032,9.192
	c-11.539,8.875-27.605,8.875-39.144,0c-16.922-12.451-39.974-12.451-56.896,0c-11.516,8.882-27.572,8.882-39.088,0
	c-7.21-5.414-15.843-8.606-24.84-9.184c-0.403-0.086-0.812-0.139-1.224-0.16c-0.072,0-0.136,0.056-0.208,0.064
	c-0.72,0.008-1.344-0.064-2.144-0.064v0.736c-3.201,1.313-5.177,4.553-4.88,8l10.312,112c0.208,2.216,1.33,4.245,3.096,5.6
	l8.536,6.544l2.184,27.12h-16.192l-1.16-15.248c-0.171-2.269-1.3-4.358-3.104-5.744c-5.364-4.142-8.738-10.35-9.296-17.104
	L120.801,16h238.4L346.465,153.96z"/>
<g>
</g>
<g>
</g>
<g>
</g>
<g>
</g>
<g>
</g>
<g>
</g>
<g>
</g>
<g>
</g>
<g>
</g>
<g>
</g>
<g>
</g>
<g>
</g>
<g>
</g>
<g>
</g>
<g>
</g>
</svg>
