<?xml version="1.0" encoding="iso-8859-1"?>
<!-- Generator: Adobe Illustrator 19.0.0, SVG Export Plug-In . SVG Version: 6.00 Build 0)  -->
<svg version="1.1" id="Capa_1" xmlns="http://www.w3.org/2000/svg" xmlns:xlink="http://www.w3.org/1999/xlink" x="0px" y="0px"
	 viewBox="0 0 480.095 480.095" style="enable-background:new 0 0 480.095 480.095;" xml:space="preserve">
<g>
	<path style="fill:#ACABB1;" d="M88.095,44.059c-44.183,0-80,35.817-80,80s35.817,80,80,80s80-35.817,80-80
		S132.277,44.059,88.095,44.059z M136.591,96.059l-6.896,4L136.591,96.059z M116.095,75.563l-4,6.896L116.095,75.563z
		 M39.599,152.059l6.896-4L39.599,152.059z M39.599,96.059l6.896,4L39.599,96.059z M60.095,172.555l4-6.896L60.095,172.555z
		 M60.095,75.563l4,6.928L60.095,75.563z M66.439,145.715l5.656-5.656L66.439,145.715z M66.439,102.403l5.656,5.656L66.439,102.403z
		 M88.095,132.059v-8V132.059z M104.095,140.059l5.656,5.656L104.095,140.059z M104.095,108.059l5.656-5.656L104.095,108.059z
		 M112.095,165.659l4,6.928L112.095,165.659z M129.695,148.059l6.928,4L129.695,148.059z"/>
	<path style="fill:#ACABB1;" d="M175.695,324.059h-159.2c4.41,43.962,43.624,76.025,87.586,71.615
		c31.854-3.196,58.735-25.074,68.334-55.615C174.044,334.849,175.142,329.489,175.695,324.059z"/>
</g>
<g>
	<path style="fill:#414042;" d="M248.095,108.059v32v16h224v-64h-224V108.059z"/>
	<path style="fill:#414042;" d="M168.095,108.059v16v16h80v-32H168.095z"/>
	<path style="fill:#414042;" d="M248.095,340.059v32v16h224v-64h-224V340.059z"/>
	<path style="fill:#414042;" d="M172.415,340.059c-3.793,12.029-10.371,22.993-19.2,32h94.88v-32H172.415z"/>
	<path style="fill:#414042;" d="M184.095,324.059v-32h-176v32h8.4h159.2H184.095z"/>
</g>
<g>
	<path style="fill:#231F20;" d="M472.095,84.059h-224c-4.418,0-8,3.582-8,8v8h-67.408C159.432,53.3,110.781,26.14,64.023,39.395
		S-9.896,101.3,3.359,148.059s61.905,73.919,108.664,60.664c29.376-8.327,52.337-31.288,60.664-60.664h67.408v8c0,4.418,3.582,8,8,8
		h224c4.418,0,8-3.582,8-8v-64C480.095,87.64,476.513,84.059,472.095,84.059z M88.095,196.059c-39.765,0-72-32.236-72-72
		s32.235-72,72-72s72,32.235,72,72C160.046,163.803,127.839,196.01,88.095,196.059z M176.095,132.059v-16h64v16H176.095z
		 M464.095,148.059h-208v-48h208V148.059z"/>
	<path style="fill:#231F20;" d="M472.095,316.059h-224c-4.418,0-8,3.582-8,8v8h-56c4.418,0,8-3.582,8-8v-32c0-4.418-3.582-8-8-8
		h-176c-4.418,0-8,3.582-8,8v32c0,4.418,3.582,8,8,8h1.496c5.552,30.692,27.035,56.101,56.376,66.68
		c-11.299,9.094-17.87,22.816-17.872,37.32c0,4.418,3.582,8,8,8s8-3.582,8-8c0.055-14.547,9.915-27.227,24-30.864v6.864
		c0,4.418,3.582,8,8,8s8-3.582,8-8v-6.864c14.085,3.637,23.945,16.317,24,30.864c0,4.418,3.582,8,8,8s8-3.582,8-8
		c-0.003-14.533-6.604-28.279-17.944-37.368c11.222-4.092,21.49-10.432,30.176-18.632h83.768v8c0,4.418,3.582,8,8,8h224
		c4.418,0,8-3.582,8-8v-64C480.095,319.64,476.513,316.059,472.095,316.059z M16.095,300.059h160v16h-160V300.059z M25.871,332.059
		h140.424c-0.432,1.888-0.936,3.755-1.512,5.6c-11.9,37.942-52.305,59.053-90.247,47.153
		C50.081,377.142,31.547,357.051,25.871,332.059z M169.831,364.059c0.328-0.496,0.584-1.04,0.896-1.544
		c0.672-1.08,1.288-2.192,1.92-3.304c0.984-1.736,1.912-3.496,2.776-5.304c0.56-1.176,1.096-2.352,1.6-3.56
		c0.328-0.8,0.728-1.504,1.04-2.288h62.032v16L169.831,364.059z M464.095,380.059h-208v-48h208V380.059z"/>
	<path style="fill:#231F20;" d="M96.095,76.059v-8c0-4.418-3.582-8-8-8s-8,3.582-8,8v8c0,4.418,3.582,8,8,8
		S96.095,80.477,96.095,76.059z"/>
	<path style="fill:#231F20;" d="M57.167,86.459c1.43,2.478,4.075,4.003,6.936,4c1.406,0.003,2.787-0.37,4-1.08
		c3.821-2.209,5.132-7.096,2.928-10.92l-4-6.928c-2.184-3.841-7.068-5.184-10.909-3c-3.841,2.184-5.184,7.068-3,10.909
		c0.017,0.031,0.035,0.061,0.053,0.092L57.167,86.459z"/>
	<path style="fill:#231F20;" d="M35.599,102.987l6.928,4c3.841,2.184,8.725,0.841,10.909-3c2.164-3.805,0.867-8.642-2.909-10.856
		l-6.928-4c-3.841-2.184-8.725-0.841-10.909,3C30.526,95.936,31.823,100.773,35.599,102.987z"/>
	<path style="fill:#231F20;" d="M40.095,116.059h-8c-4.418,0-8,3.582-8,8s3.582,8,8,8h8c4.418,0,8-3.582,8-8
		S44.513,116.059,40.095,116.059z"/>
	<path style="fill:#231F20;" d="M53.447,144.059c-2.204-3.83-7.094-5.148-10.924-2.944c-0.009,0.005-0.019,0.011-0.028,0.016
		l-6.928,4c-3.841,2.184-5.184,7.068-3,10.909s7.068,5.184,10.909,3c0.031-0.017,0.061-0.035,0.092-0.053l6.928-4
		c3.832-2.199,5.156-7.089,2.956-10.921C53.449,144.063,53.448,144.061,53.447,144.059L53.447,144.059z"/>
	<path style="fill:#231F20;" d="M68.095,158.707c-3.824-2.21-8.716-0.903-10.928,2.92l-4,6.928
		c-2.234,3.812-0.956,8.713,2.856,10.947c3.812,2.234,8.713,0.956,10.947-2.856c0.018-0.03,0.035-0.061,0.053-0.092l4-6.928
		C73.226,165.802,71.916,160.916,68.095,158.707z"/>
	<path style="fill:#231F20;" d="M80.095,172.059v8c0,4.418,3.582,8,8,8s8-3.582,8-8v-8c0-4.418-3.582-8-8-8
		S80.095,167.64,80.095,172.059z"/>
	<path style="fill:#231F20;" d="M119.023,161.659c-2.234-3.812-7.136-5.09-10.947-2.856c-3.776,2.214-5.072,7.051-2.909,10.856
		l4,6.928c2.184,3.841,7.068,5.184,10.909,3c3.841-2.184,5.184-7.068,3-10.909c-0.017-0.031-0.035-0.061-0.053-0.092
		L119.023,161.659z"/>
	<path style="fill:#231F20;" d="M140.591,145.131l-6.928-4c-3.841-2.184-8.725-0.841-10.909,3
		c-2.163,3.805-0.867,8.642,2.909,10.856l6.928,4c3.812,2.234,8.713,0.956,10.947-2.856c2.234-3.812,0.956-8.713-2.856-10.947
		C140.652,145.166,140.621,145.148,140.591,145.131z"/>
	<path style="fill:#231F20;" d="M144.095,116.059h-8c-4.418,0-8,3.582-8,8s3.582,8,8,8h8c4.418,0,8-3.582,8-8
		S148.513,116.059,144.095,116.059z"/>
	<path style="fill:#231F20;" d="M122.743,104.059c2.209,3.821,7.096,5.132,10.92,2.928l6.928-4c3.841-2.184,5.184-7.068,3-10.909
		c-2.184-3.841-7.068-5.184-10.909-3c-0.031,0.017-0.061,0.035-0.092,0.053l-6.928,4
		C121.839,95.343,120.532,100.234,122.743,104.059z"/>
	<path style="fill:#231F20;" d="M108.095,89.411c1.213,0.711,2.594,1.084,4,1.08c2.861,0.003,5.506-1.522,6.936-4l4-6.928
		c2.234-3.812,0.956-8.713-2.856-10.947c-3.812-2.234-8.713-0.956-10.947,2.856c-0.018,0.03-0.035,0.061-0.053,0.092l-4,6.928
		C102.97,82.313,104.276,87.199,108.095,89.411z"/>
	<path style="fill:#231F20;" d="M60.783,96.747c-3.123,3.124-3.123,8.188,0,11.312l5.656,5.656
		c3.178,3.069,8.243,2.982,11.312-0.196c2.994-3.1,2.994-8.015,0-11.116l-5.656-5.656C68.971,93.624,63.907,93.624,60.783,96.747z"
		/>
	<path style="fill:#231F20;" d="M64.095,116.059h-8c-4.418,0-8,3.582-8,8s3.582,8,8,8h8c4.418,0,8-3.582,8-8
		S68.513,116.059,64.095,116.059z"/>
	<path style="fill:#231F20;" d="M77.751,134.403c-3.124-3.123-8.188-3.123-11.312,0l-5.656,5.656
		c-3.178,3.069-3.266,8.134-0.197,11.312s8.134,3.266,11.312,0.197c0.067-0.064,0.132-0.13,0.197-0.197l5.656-5.656
		C80.874,142.591,80.874,137.527,77.751,134.403z"/>
	<path style="fill:#231F20;" d="M80.095,148.059v8c0,4.418,3.582,8,8,8s8-3.582,8-8v-8c0-4.418-3.582-8-8-8
		S80.095,143.64,80.095,148.059z"/>
	<path style="fill:#231F20;" d="M115.407,151.371c3.123-3.124,3.123-8.188,0-11.312l-5.656-5.656
		c-3.178-3.069-8.243-2.981-11.312,0.197c-2.994,3.1-2.994,8.015,0,11.115l5.656,5.656
		C107.219,154.494,112.283,154.494,115.407,151.371z"/>
	<path style="fill:#231F20;" d="M120.095,116.059h-8c-4.418,0-8,3.582-8,8s3.582,8,8,8h8c4.418,0,8-3.582,8-8
		S124.513,116.059,120.095,116.059z"/>
	<path style="fill:#231F20;" d="M98.439,113.715c3.124,3.123,8.188,3.123,11.312,0l5.656-5.656
		c3.178-3.069,3.266-8.134,0.197-11.312c-3.069-3.178-8.134-3.266-11.312-0.197c-0.067,0.064-0.132,0.13-0.197,0.197l-5.656,5.656
		C95.316,105.527,95.316,110.591,98.439,113.715L98.439,113.715z"/>
	<path style="fill:#231F20;" d="M96.095,100.059v-8c0-4.418-3.582-8-8-8s-8,3.582-8,8v8c0,4.418,3.582,8,8,8
		S96.095,104.477,96.095,100.059z"/>
	<path style="fill:#231F20;" d="M96.095,116.059c0-4.418-3.582-8-8-8s-8,3.582-8,8c-4.418,0-8,3.582-8,8s3.582,8,8,8
		c0,4.418,3.582,8,8,8s8-3.582,8-8c4.418,0,8-3.582,8-8S100.513,116.059,96.095,116.059z"/>
</g>
<g>
</g>
<g>
</g>
<g>
</g>
<g>
</g>
<g>
</g>
<g>
</g>
<g>
</g>
<g>
</g>
<g>
</g>
<g>
</g>
<g>
</g>
<g>
</g>
<g>
</g>
<g>
</g>
<g>
</g>
</svg>
