<?xml version="1.0" encoding="iso-8859-1"?>
<!-- Generator: Adobe Illustrator 19.0.0, SVG Export Plug-In . SVG Version: 6.00 Build 0)  -->
<svg version="1.1" id="Capa_1" xmlns="http://www.w3.org/2000/svg" xmlns:xlink="http://www.w3.org/1999/xlink" x="0px" y="0px"
	 viewBox="0 0 487.844 487.844" style="enable-background:new 0 0 487.844 487.844;" xml:space="preserve">
<g>
	<path style="fill:#C49A6C;" d="M281.202,226.566c-10.673-1.614-21.446-2.469-32.24-2.56c-14.154-0.348-28.311,0.508-42.32,2.56
		c-27.491,3.998-54.139,12.484-78.88,25.12c-23.963,12.208-45.857,28.109-64.88,47.12l181.04,181.04l181.04-181.04
		c-19.023-19.011-40.917-34.912-64.88-47.12c-7.671-3.918-15.55-7.416-23.6-10.48C318.68,234.215,300.131,229.302,281.202,226.566
		L281.202,226.566z M378.082,300.406c-10.257-7.653-21.144-14.424-32.544-20.24c-6.747-3.436-13.675-6.508-20.752-9.2
		c-15.567-6.108-31.786-10.403-48.336-12.8c-9.397-1.409-18.882-2.149-28.384-2.216c-1.824-0.048-3.643-0.072-5.456-0.072
		c-10.478,0.033-20.942,0.803-31.312,2.304c-24.044,3.499-47.348,10.935-68.976,22.008c-11.404,5.808-22.297,12.571-32.56,20.216
		c10.257-7.653,21.144-14.424,32.544-20.24c21.635-11.061,44.945-18.483,68.992-21.968c10.37-1.501,20.834-2.271,31.312-2.304
		c1.819,0,3.637,0.024,5.456,0.072c9.502,0.067,18.987,0.807,28.384,2.216c16.55,2.397,32.769,6.692,48.336,12.8
		c7.077,2.692,14.005,5.764,20.752,9.2C356.937,285.993,367.824,292.759,378.082,300.406L378.082,300.406z"/>
	<path style="fill:#C49A6C;" d="M122.482,142.406c-21.914,11.833-41.991,26.789-59.6,44.4l64.88,64.88
		c24.741-12.636,51.389-21.122,78.88-25.12c14.009-2.052,28.166-2.908,42.32-2.56c10.794,0.091,21.567,0.946,32.24,2.56
		c18.929,2.736,37.478,7.649,55.28,14.64c8.05,3.064,15.929,6.562,23.6,10.48l64.88-64.88c-17.609-17.611-37.686-32.567-59.6-44.4
		c-7.506-4.094-15.253-7.727-23.2-10.88C271.023,101.943,190.35,105.939,122.482,142.406z M378.082,188.406
		c-10.257-7.653-21.144-14.424-32.544-20.24c-6.747-3.436-13.675-6.508-20.752-9.2c-15.567-6.108-31.786-10.403-48.336-12.8
		c-9.397-1.409-18.882-2.149-28.384-2.216c-1.824-0.048-3.643-0.072-5.456-0.072c-10.478,0.033-20.942,0.803-31.312,2.304
		c-24.044,3.499-47.348,10.935-68.976,22.008c-11.404,5.808-22.297,12.571-32.56,20.216c10.257-7.653,21.144-14.424,32.544-20.24
		c21.635-11.061,44.945-18.483,68.992-21.968c10.37-1.501,20.834-2.271,31.312-2.304c1.819,0,3.637,0.024,5.456,0.072
		c9.502,0.067,18.987,0.807,28.384,2.216c16.55,2.397,32.769,6.692,48.336,12.8c7.077,2.692,14.005,5.764,20.752,9.2
		C356.937,173.993,367.824,180.759,378.082,188.406L378.082,188.406z"/>
	<path style="fill:#C49A6C;" d="M62.882,82.806l59.6,59.6c67.868-36.467,148.541-40.463,219.68-10.88
		c7.947,3.153,15.694,6.786,23.2,10.88l59.6-59.6C324.948-17.112,162.896-17.112,62.882,82.806L62.882,82.806z M345.522,64.19
		c-6.747-3.436-13.675-6.508-20.752-9.2c-15.567-6.108-31.786-10.403-48.336-12.8c-9.397-1.409-18.882-2.149-28.384-2.216
		c-1.824-0.048-3.643-0.072-5.456-0.072c-10.478,0.033-20.942,0.803-31.312,2.304c-24.037,3.494-47.336,10.921-68.96,21.984
		c-11.404,5.808-22.297,12.571-32.56,20.216c10.263-7.645,21.156-14.408,32.56-20.216c21.635-11.061,44.945-18.483,68.992-21.968
		c10.37-1.501,20.834-2.271,31.312-2.304c1.819,0,3.637,0.024,5.456,0.072c9.502,0.067,18.987,0.807,28.384,2.216
		c16.55,2.397,32.769,6.692,48.336,12.8C331.868,57.694,338.785,60.76,345.522,64.19c11.404,5.808,22.297,12.571,32.56,20.216
		C367.819,76.761,356.927,69.998,345.522,64.19L345.522,64.19z"/>
</g>
<g>
	<path style="fill:#231F20;" d="M109.77,308.406c-4.418,0-8-3.582-8-8c0-2.518,1.186-4.889,3.2-6.4l3.336-2.448
		c3.602-2.559,8.596-1.713,11.155,1.889c2.532,3.565,1.733,8.503-1.795,11.087l-3.104,2.272
		C113.181,307.846,111.499,308.408,109.77,308.406L109.77,308.406z"/>
	<path style="fill:#231F20;" d="M133.122,293.15c-4.418,0.015-8.012-3.554-8.028-7.972c-0.01-2.879,1.528-5.542,4.028-6.972
		c2.4-1.371,4.829-2.704,7.288-4c3.919-2.041,8.751-0.519,10.792,3.4s0.519,8.751-3.4,10.792c-2.272,1.184-4.515,2.411-6.728,3.68
		C135.872,292.772,134.51,293.142,133.122,293.15L133.122,293.15z M354.57,293.062c-1.377,0.003-2.73-0.353-3.928-1.032
		c-2.251-1.269-4.517-2.507-6.8-3.712c-3.912-2.055-5.418-6.892-3.364-10.804c2.054-3.912,6.892-5.419,10.804-3.364l0,0
		c2.432,1.28,4.832,2.597,7.2,3.952c3.844,2.178,5.194,7.061,3.016,10.904c-1.42,2.506-4.079,4.055-6.96,4.056L354.57,293.062z
		 M325.77,279.358c-0.997,0.001-1.985-0.186-2.912-0.552l-0.88-0.336c-2.184-0.856-4.264-1.6-6.4-2.4
		c-4.164-1.48-6.34-6.056-4.86-10.22c1.48-4.164,6.056-6.34,10.22-4.86c2.272,0.805,4.531,1.653,6.776,2.544l0.928,0.352
		c4.118,1.601,6.158,6.238,4.556,10.356c-1.196,3.076-4.159,5.102-7.46,5.1L325.77,279.358z M161.914,279.358
		c-4.418,0.009-8.007-3.566-8.016-7.984c-0.007-3.297,2.01-6.26,5.08-7.464c2.571-1.008,5.16-1.973,7.768-2.896
		c4.169-1.467,8.737,0.723,10.204,4.892c1.467,4.169-0.723,8.737-4.892,10.204c-2.427,0.848-4.827,1.744-7.2,2.688
		c-0.944,0.365-1.948,0.549-2.96,0.544L161.914,279.358z M192.378,269.838c-4.418-0.017-7.986-3.612-7.97-8.03
		c0.014-3.696,2.558-6.901,6.154-7.754c2.667-0.624,5.357-1.205,8.072-1.744c4.308-0.981,8.596,1.716,9.577,6.024
		c0.981,4.308-1.716,8.596-6.024,9.577c-0.146,0.033-0.293,0.063-0.441,0.088c-2.528,0.507-5.043,1.04-7.544,1.6
		c-0.602,0.146-1.22,0.222-1.84,0.224L192.378,269.838z M295.33,269.798c-0.622,0.002-1.243-0.07-1.848-0.216
		c-2.485-0.581-4.989-1.115-7.512-1.6c-4.346-0.794-7.226-4.962-6.431-9.308c0.794-4.346,4.962-7.226,9.308-6.431
		c0.073,0.013,0.146,0.028,0.219,0.043c2.704,0.536,5.408,1.12,8.088,1.752c4.299,1.02,6.957,5.331,5.938,9.63
		c-0.854,3.599-4.063,6.143-7.762,6.154L295.33,269.798z M223.89,264.782c-4.418,0.194-8.158-3.23-8.352-7.648
		c-0.194-4.418,3.23-8.158,7.648-8.352c2.768-0.251,5.52-0.445,8.256-0.584c4.418-0.234,8.19,3.158,8.424,7.576
		c0.234,4.418-3.158,8.19-7.576,8.424c-2.536,0.136-5.104,0.312-7.68,0.544c-0.256,0.016-0.504,0.024-0.736,0.024L223.89,264.782z
		 M263.802,264.734c-0.232,0.012-0.464,0.012-0.696,0c-2.52-0.216-5.064-0.376-7.64-0.496c-4.418-0.199-7.839-3.942-7.64-8.36
		c0.199-4.418,3.942-7.839,8.36-7.64c2.795,0.123,5.56,0.304,8.296,0.544c4.418,0.188,7.848,3.922,7.66,8.34s-3.922,7.848-8.34,7.66
		L263.802,264.734z"/>
	<path style="fill:#231F20;" d="M378.074,308.406c-1.732,0.003-3.417-0.558-4.8-1.6l-3.104-2.272
		c-3.602-2.558-4.448-7.553-1.89-11.155c2.558-3.602,7.553-4.448,11.155-1.89c0.032,0.023,0.064,0.046,0.095,0.069l3.336,2.448
		c3.535,2.651,4.251,7.665,1.6,11.2c-1.511,2.014-3.882,3.2-6.4,3.2L378.074,308.406z"/>
	<path style="fill:#231F20;" d="M378.074,196.406c-1.732,0.003-3.417-0.558-4.8-1.6l-3.104-2.272
		c-3.602-2.558-4.449-7.552-1.891-11.155c2.558-3.602,7.552-4.449,11.155-1.891c0.032,0.023,0.064,0.046,0.096,0.07l3.336,2.448
		c3.535,2.651,4.251,7.665,1.6,11.2c-1.511,2.014-3.882,3.2-6.4,3.2L378.074,196.406z"/>
	<path style="fill:#231F20;" d="M378.074,92.406c-1.732,0.003-3.417-0.558-4.8-1.6l-3.104-2.272
		c-3.602-2.558-4.449-7.552-1.891-11.155s7.552-4.449,11.155-1.891c0.032,0.023,0.064,0.046,0.096,0.07l3.336,2.448
		c3.535,2.651,4.251,7.665,1.6,11.2c-1.511,2.014-3.882,3.2-6.4,3.2H378.074z"/>
	<path style="fill:#231F20;" d="M108.306,179.606l-3.336,2.448c-3.535,2.651-4.251,7.665-1.6,11.2c2.651,3.535,7.665,4.251,11.2,1.6
		l0,0l3.104-2.272c3.602-2.558,4.449-7.552,1.89-11.155s-7.552-4.449-11.155-1.89c-0.032,0.023-0.064,0.046-0.096,0.069H108.306z"/>
	<path style="fill:#231F20;" d="M358.514,166.102c-2.389-1.355-4.789-2.672-7.2-3.952c-3.912-2.055-8.75-0.548-10.804,3.364
		c-2.055,3.912-0.548,8.749,3.364,10.804c2.288,1.2,4.555,2.437,6.8,3.712c3.874,2.124,8.737,0.706,10.861-3.168
		c2.086-3.804,0.76-8.577-2.989-10.76L358.514,166.102z"/>
	<path style="fill:#231F20;" d="M136.426,162.222c-2.453,1.291-4.883,2.624-7.288,4c-3.835,2.196-5.164,7.085-2.968,10.92
		c2.196,3.835,7.085,5.164,10.92,2.968c2.213-1.275,4.456-2.501,6.728-3.68c3.919-2.041,5.441-6.873,3.4-10.792
		c-2.041-3.919-6.873-5.441-10.792-3.4V162.222z"/>
	<path style="fill:#231F20;" d="M328.658,151.902l-0.928-0.352c-2.245-0.891-4.504-1.739-6.776-2.544
		c-4.164-1.48-8.74,0.696-10.22,4.86c-1.48,4.164,0.696,8.74,4.86,10.22c2.104,0.744,4.184,1.528,6.4,2.4l0.88,0.336
		c0.927,0.366,1.915,0.553,2.912,0.552c4.418,0.002,8.002-3.577,8.004-7.996c0.002-3.301-2.024-6.264-5.1-7.46L328.658,151.902z"/>
	<path style="fill:#231F20;" d="M297.138,142.006c-2.68-0.632-5.384-1.216-8.088-1.752c-4.322-0.916-8.569,1.846-9.484,6.168
		c-0.916,4.322,1.846,8.569,6.168,9.484c0.073,0.016,0.147,0.03,0.22,0.043c2.523,0.496,5.027,1.029,7.512,1.6
		c0.605,0.146,1.226,0.218,1.848,0.216c4.418-0.012,7.99-3.604,7.978-8.022c-0.01-3.699-2.555-6.908-6.154-7.762L297.138,142.006z"
		/>
	<path style="fill:#231F20;" d="M231.426,136.214c-2.736,0.144-5.488,0.339-8.256,0.584c-4.418,0.194-7.842,3.934-7.648,8.352
		c0.194,4.418,3.934,7.842,8.352,7.648h0.72c2.576-0.232,5.144-0.408,7.68-0.544c4.418-0.234,7.81-4.006,7.576-8.424
		c-0.234-4.418-4.006-7.81-8.424-7.576L231.426,136.214z"/>
	<path style="fill:#231F20;" d="M264.466,136.75c-2.736-0.24-5.501-0.421-8.296-0.544c-4.393-0.142-8.098,3.244-8.352,7.632
		c-0.199,4.414,3.218,8.153,7.632,8.352c0,0,0,0,0,0c2.576,0.12,5.12,0.28,7.64,0.496c0.232,0.012,0.464,0.012,0.696,0
		c4.418,0.188,8.152-3.242,8.34-7.66s-3.242-8.152-7.66-8.34L264.466,136.75z"/>
	<path style="fill:#231F20;" d="M166.73,148.998c-2.613,0.917-5.203,1.883-7.768,2.896c-4.113,1.613-6.141,6.255-4.528,10.368
		c1.203,3.07,4.167,5.086,7.464,5.08c1.005-0.003,2.001-0.193,2.936-0.56c2.384-0.944,4.784-1.84,7.2-2.688
		c4.169-1.467,6.359-6.035,4.892-10.204s-6.035-6.359-10.204-4.892H166.73z"/>
	<path style="fill:#231F20;" d="M198.618,140.294c-2.709,0.533-5.4,1.115-8.072,1.744c-4.278,1.105-6.85,5.469-5.744,9.747
		c1.069,4.138,5.201,6.705,9.384,5.829c2.501-0.587,5.016-1.12,7.544-1.6c4.356-0.738,7.29-4.867,6.552-9.223
		c-0.738-4.356-4.867-7.29-9.223-6.552c-0.148,0.025-0.295,0.054-0.441,0.087V140.294z"/>
	<path style="fill:#231F20;" d="M108.306,75.606l-3.336,2.448c-3.535,2.651-4.251,7.665-1.6,11.2c2.651,3.535,7.665,4.251,11.2,1.6
		l0,0l3.104-2.272c3.602-2.558,4.449-7.552,1.89-11.155c-2.558-3.602-7.552-4.449-11.155-1.89c-0.032,0.023-0.064,0.046-0.096,0.069
		H108.306z"/>
	<path style="fill:#231F20;" d="M285.954,51.942c2.523,0.496,5.027,1.029,7.512,1.6c0.605,0.146,1.226,0.218,1.848,0.216
		c4.418-0.081,7.933-3.728,7.851-8.146c-0.066-3.604-2.534-6.718-6.027-7.606c-2.68-0.632-5.384-1.216-8.088-1.752
		c-4.322-0.916-8.569,1.846-9.484,6.168c-0.916,4.322,1.846,8.569,6.168,9.484c0.073,0.016,0.147,0.03,0.22,0.043L285.954,51.942z"
		/>
	<path style="fill:#231F20;" d="M255.45,48.19c2.576,0.12,5.12,0.28,7.64,0.496c0.232,0.012,0.464,0.012,0.696,0
		c4.418,0.188,8.152-3.242,8.34-7.66s-3.242-8.152-7.66-8.34c-2.736-0.24-5.501-0.421-8.296-0.544
		c-4.418-0.199-8.161,3.222-8.36,7.64c-0.199,4.418,3.222,8.161,7.64,8.36L255.45,48.19z"/>
	<path style="fill:#231F20;" d="M223.874,48.766h0.72c2.576-0.232,5.144-0.408,7.68-0.544c4.418-0.234,7.81-4.006,7.576-8.424
		c-0.234-4.418-4.006-7.81-8.424-7.576c-2.736,0.144-5.488,0.339-8.256,0.584c-4.418,0.194-7.842,3.934-7.648,8.352
		c0.194,4.418,3.934,7.842,8.352,7.648L223.874,48.766z"/>
	<path style="fill:#231F20;" d="M315.594,60.086c2.104,0.744,4.184,1.528,6.4,2.4l0.88,0.336c0.927,0.366,1.915,0.553,2.912,0.552
		c4.418,0.002,8.002-3.577,8.004-7.996c0.002-3.301-2.024-6.264-5.1-7.46l-0.928-0.352c-2.245-0.885-4.504-1.733-6.776-2.544
		c-4.164-1.48-8.74,0.696-10.22,4.86c-1.48,4.164,0.696,8.74,4.86,10.22L315.594,60.086z"/>
	<path style="fill:#231F20;" d="M343.842,72.318c2.288,1.2,4.555,2.437,6.8,3.712c3.874,2.124,8.737,0.706,10.861-3.168
		c2.086-3.804,0.76-8.577-2.989-10.76c-2.389-1.355-4.789-2.672-7.2-3.952c-3.912-2.054-8.75-0.548-10.804,3.364
		c-2.055,3.912-0.548,8.75,3.364,10.804L343.842,72.318z"/>
	<path style="fill:#231F20;" d="M133.122,77.15c1.403,0.005,2.782-0.359,4-1.056c2.213-1.269,4.456-2.496,6.728-3.68
		c3.919-2.041,5.441-6.873,3.4-10.792c-2.041-3.919-6.873-5.441-10.792-3.4c-2.453,1.285-4.883,2.619-7.288,4
		c-3.835,2.194-5.166,7.081-2.972,10.916c1.43,2.499,4.092,4.037,6.972,4.028L133.122,77.15z"/>
	<path style="fill:#231F20;" d="M161.898,63.342c1.005-0.003,2.001-0.193,2.936-0.56c2.384-0.944,4.784-1.84,7.2-2.688
		c4.169-1.467,6.359-6.035,4.892-10.204c-1.467-4.169-6.035-6.359-10.204-4.892c-2.613,0.923-5.203,1.888-7.768,2.896
		c-4.113,1.613-6.141,6.255-4.528,10.368c1.203,3.07,4.167,5.086,7.464,5.08H161.898z"/>
	<path style="fill:#231F20;" d="M192.362,53.822c0.614,0.002,1.226-0.068,1.824-0.208c2.501-0.587,5.016-1.12,7.544-1.6
		c4.308-0.981,7.005-5.269,6.024-9.577c-0.942-4.138-4.952-6.82-9.136-6.111c-2.709,0.533-5.4,1.115-8.072,1.744
		c-4.299,1.02-6.958,5.331-5.938,9.63c0.853,3.596,4.058,6.14,7.754,6.154V53.822z"/>
	<path style="fill:#231F20;" d="M432.962,186.806c0-2.122-0.844-4.156-2.344-5.656c-15.678-15.594-33.247-29.163-52.296-40.392
		l52.296-52.296c3.126-3.122,3.129-8.188,0.006-11.314c-0.002-0.002-0.004-0.004-0.006-0.006
		c-103.214-102.856-270.178-102.856-373.392,0c-3.126,3.122-3.129,8.188-0.006,11.314c0.002,0.002,0.004,0.004,0.006,0.006
		l52.296,52.296c-19.05,11.228-36.619,24.797-52.296,40.392c-3.123,3.124-3.123,8.188,0,11.312l57.416,57.416
		c-21.025,11.734-40.344,26.293-57.416,43.272c-3.123,3.124-3.123,8.188,0,11.312l181.04,181.04c3.124,3.123,8.188,3.123,11.312,0
		l181.04-181.04c3.123-3.124,3.123-8.188,0-11.312c-17.072-16.979-36.391-31.538-57.416-43.272l57.416-57.416
		C432.119,190.962,432.962,188.928,432.962,186.806L432.962,186.806z M413.522,82.902l-49.688,49.68
		c-1.48-0.752-2.944-1.416-4.424-2.128c-1.136-0.552-2.272-1.12-3.4-1.648c-3.632-1.68-7.248-3.264-10.8-4.664
		c-4.544-1.899-9.12-3.659-13.728-5.28c-1.856-0.656-3.744-1.2-5.6-1.816c-2.752-0.912-5.504-1.856-8.28-2.672
		c-2.208-0.648-4.432-1.176-6.64-1.76c-2.464-0.656-4.92-1.352-7.4-1.936c-2.352-0.552-4.72-0.984-7.08-1.472
		s-4.712-1.016-7.072-1.432s-4.856-0.752-7.28-1.112s-4.64-0.728-6.968-1.016c-2.456-0.296-4.928-0.488-7.392-0.712
		c-2.304-0.216-4.6-0.472-6.904-0.624c-2.464-0.16-4.928-0.224-7.392-0.312c-2.32-0.088-4.632-0.208-6.944-0.232
		c-2.456,0-4.904,0.04-7.352,0.08c-2.328,0-4.648,0.048-6.976,0.152s-4.856,0.304-7.288,0.48s-4.68,0.312-7.016,0.544
		s-4.8,0.56-7.2,0.864s-4.704,0.576-7.048,0.936s-4.712,0.8-7.064,1.24s-4.736,0.856-7.096,1.352s-4.608,1.048-6.904,1.6
		s-4.752,1.136-7.12,1.776s-4.504,1.288-6.76,1.952c-2.4,0.712-4.752,1.424-7.12,2.2c-2.208,0.728-4.392,1.52-6.592,2.304
		c-2.4,0.848-4.728,1.712-7.08,2.632c-2.16,0.84-4.304,1.744-6.4,2.648c-2.4,0.992-4.712,2-7.04,3.064
		c-2.096,0.96-4.176,1.968-6.248,2.984c-1.408,0.688-2.84,1.304-4.24,2.016L74.322,82.902
		C169.806-6.273,318.038-6.273,413.522,82.902L413.522,82.902z M243.922,468.534l-169.6-169.6
		c17.049-15.996,36.271-29.505,57.096-40.128c23.945-12.241,49.74-20.46,76.352-24.328c13.614-1.998,27.373-2.825,41.128-2.472
		c10.445,0.093,20.871,0.919,31.2,2.472c18.352,2.661,36.338,7.425,53.6,14.2c7.756,2.969,15.348,6.349,22.744,10.128
		c20.817,10.613,40.033,24.108,57.08,40.088L243.922,468.534z M358.482,242.006c-1.552-0.744-3.128-1.424-4.688-2.136
		c-1.088-0.496-2.152-1-3.24-1.472c-3.712-1.6-7.432-3.2-11.144-4.6c-18.362-7.207-37.494-12.275-57.016-15.104
		c-10.993-1.665-22.09-2.549-33.208-2.648c-2.133-0.053-4.301-0.083-6.504-0.088c-0.4,0-0.8,0.048-1.224,0.048
		c-5.28,0-10.637,0.2-16.072,0.6c-0.92,0.064-1.84,0.152-2.768,0.224c-5.656,0.456-11.36,1.032-17.144,1.856
		c-6.936,1.024-13.784,2.336-20.56,3.88c-2.232,0.504-4.408,1.184-6.616,1.752c-4.504,1.144-9,2.296-13.416,3.672
		c-2.592,0.8-5.112,1.784-7.672,2.672c-3.952,1.376-7.912,2.736-11.784,4.296c-2.664,1.08-5.264,2.296-7.896,3.456
		s-5.496,2.28-8.176,3.584l-55.032-55.104c15.65-14.665,33.128-27.249,52-37.44c65.72-35.549,144.008-39.406,212.904-10.488
		c7.638,3.034,15.084,6.531,22.296,10.472c18.87,10.197,36.347,22.783,52,37.448L358.482,242.006z"/>
</g>
<g>
</g>
<g>
</g>
<g>
</g>
<g>
</g>
<g>
</g>
<g>
</g>
<g>
</g>
<g>
</g>
<g>
</g>
<g>
</g>
<g>
</g>
<g>
</g>
<g>
</g>
<g>
</g>
<g>
</g>
</svg>
