<?xml version="1.0" encoding="iso-8859-1"?>
<!-- Generator: Adobe Illustrator 19.0.0, SVG Export Plug-In . SVG Version: 6.00 Build 0)  -->
<svg version="1.1" id="Capa_1" xmlns="http://www.w3.org/2000/svg" xmlns:xlink="http://www.w3.org/1999/xlink" x="0px" y="0px"
	 viewBox="0 0 480 480" style="enable-background:new 0 0 480 480;" xml:space="preserve">
<g>
	<path style="fill:#414042;" d="M280,440h-80H88H8v32h464v-32h-80H280z"/>
	<path style="fill:#414042;" d="M136,8v48c0,17.673,14.327,32,32,32h144c17.673,0,32-14.327,32-32V8H136z"/>
</g>
<path style="fill:#ACABB1;" d="M224,113.2c-52.097,7.507-91.925,50.299-95.68,102.8h32.08c4.413-43.962,43.628-76.023,87.59-71.61
	c37.863,3.801,67.809,33.747,71.61,71.61h32.08c-3.755-52.501-43.583-95.293-95.68-102.8V88h-32V113.2z"/>
<path style="fill:#414042;" d="M344,8h48v32h-48V8z"/>
<g>
	<path style="fill:#C49A6C;" d="M216,264H72l16,176h112L216,264z"/>
	<path style="fill:#C49A6C;" d="M408,264H264l16,176h112L408,264z"/>
</g>
<g>
	<path style="fill:#231F20;" d="M472,432h-71.2L416,264.72c0.398-4.4-2.847-8.29-7.247-8.688c-0.25-0.023-0.501-0.033-0.753-0.032
		H264c-4.418-0.018-8.014,3.549-8.032,7.967c-0.001,0.251,0.01,0.502,0.032,0.753L271.24,432H208.8L224,264.72
		c0.398-4.4-2.847-8.29-7.247-8.688c-0.25-0.023-0.501-0.033-0.753-0.032H72c-4.418-0.018-8.014,3.549-8.032,7.967
		c-0.001,0.251,0.01,0.502,0.032,0.753L79.24,432H8c-4.418,0-8,3.582-8,8v32c0,4.418,3.582,8,8,8h464c4.418,0,8-3.582,8-8v-32
		C480,435.582,476.418,432,472,432z M272.8,272h126.48l-14.584,160h-97.392L272.8,272z M80.8,272h126.48l-14.584,160H95.304
		L80.8,272z M464,464H16v-16h448V464z"/>
	<path style="fill:#231F20;" d="M400,16h80V0H136c-4.418,0-8,3.582-8,8v48c0.026,22.08,17.92,39.974,40,40h48v10.464
		c-52.643,10.891-91.685,55.366-95.664,108.976c-0.309,4.407,3.013,8.231,7.42,8.54c0.193,0.014,0.386,0.02,0.58,0.02h32.08
		c4.124,0.021,7.588-3.097,8-7.2c3.972-39.566,39.265-68.42,78.831-64.449c34.077,3.421,61.028,30.372,64.449,64.449
		c0.412,4.103,3.876,7.221,8,7.2h32.08c4.418,0.011,8.009-3.562,8.02-7.98c0-0.193-0.006-0.387-0.02-0.58
		c-3.992-53.644-43.089-98.129-95.776-108.976V96h48c22.08-0.026,39.974-17.92,40-40v-8h32v24c0,4.418,3.582,8,8,8h88V64h-80V16z
		 M254.872,121.12c45.138,6.628,80.732,41.82,87.872,86.88h-16.192c-8.78-47.801-54.649-79.434-102.45-70.654
		c-35.935,6.601-64.053,34.719-70.654,70.654h-16.192c7.14-45.06,42.734-80.252,87.872-86.88c3.943-0.562,6.872-3.938,6.872-7.92V96
		h16v17.2C248,117.182,250.929,120.558,254.872,121.12z M336,56c0,13.255-10.745,24-24,24H168c-13.255,0-24-10.745-24-24V16h192V56z
		 M352,32V16h32v16H352z"/>
</g>
<g>
</g>
<g>
</g>
<g>
</g>
<g>
</g>
<g>
</g>
<g>
</g>
<g>
</g>
<g>
</g>
<g>
</g>
<g>
</g>
<g>
</g>
<g>
</g>
<g>
</g>
<g>
</g>
<g>
</g>
</svg>
