<?xml version="1.0" encoding="iso-8859-1"?>
<!-- Generator: Adobe Illustrator 19.0.0, SVG Export Plug-In . SVG Version: 6.00 Build 0)  -->
<svg version="1.1" id="Capa_1" xmlns="http://www.w3.org/2000/svg" xmlns:xlink="http://www.w3.org/1999/xlink" x="0px" y="0px"
	 viewBox="0 0 480 480" style="enable-background:new 0 0 480 480;" xml:space="preserve">
<path style="fill:#ACABB1;" d="M352,184h24v32h-40h-40v-32h24v-32H160v32h24v32h-40h-40v-32h24v-32H24v216h104
	c-17.673,0-32-14.327-32-32v-80h96v16c13.255,0,24,10.745,24,24s-10.745,24-24,24v16c0,17.673-14.327,32-32,32h160
	c-17.673,0-32-14.327-32-32v-80h96v16c13.255,0,24,10.745,24,24s-10.745,24-24,24v16c0,17.673-14.327,32-32,32h104V152H352V184z"/>
<path style="fill:#8B5E3C;" d="M24,8h432v48H24V8z"/>
<g>
	<path style="fill:#414042;" d="M56,440h48v32H56V440z"/>
	<path style="fill:#414042;" d="M376,440h48v32h-48V440z"/>
</g>
<g>
	<path style="fill:#ACABB1;" d="M320,368H8v56c0.026,8.826,7.174,15.974,16,16h432c8.826-0.026,15.974-7.174,16-16v-56H320z"/>
	<path style="fill:#ACABB1;" d="M456,56H24c-8.826,0.026-15.974,7.174-16,16v80h464V72C471.974,63.174,464.826,56.026,456,56z
		 M80,128c-13.255,0-24-10.745-24-24s10.745-24,24-24s24,10.745,24,24S93.255,128,80,128z M288,128c-13.255,0-24-10.745-24-24
		s10.745-24,24-24s24,10.745,24,24S301.255,128,288,128z"/>
</g>
<g>
	<circle style="fill:#414042;" cx="80" cy="104" r="24"/>
	<circle style="fill:#414042;" cx="288" cy="104" r="24"/>
	<path style="fill:#414042;" d="M128,152h32v32h-32V152z"/>
</g>
<path style="fill:#A97C50;" d="M192,336v-80H96v80c0,17.673,14.327,32,32,32h32C177.673,368,192,353.673,192,336z"/>
<g>
	<path style="fill:#414042;" d="M104,184v32h40h40v-32h-24h-32H104z"/>
	<path style="fill:#414042;" d="M320,152h32v32h-32V152z"/>
</g>
<path style="fill:#A97C50;" d="M384,336v-80h-96v80c0,17.673,14.327,32,32,32h32C369.673,368,384,353.673,384,336z"/>
<path style="fill:#414042;" d="M296,184v32h40h40v-32h-24h-32H296z"/>
<g>
	<path style="fill:#ACABB1;" d="M216,296c0-13.255-10.745-24-24-24v48C205.255,320,216,309.255,216,296z"/>
	<path style="fill:#ACABB1;" d="M408,296c0-13.255-10.745-24-24-24v48C397.255,320,408,309.255,408,296z"/>
</g>
<g>
	<path style="fill:#231F20;" d="M472,160c4.418,0,8-3.582,8-8V72c-0.042-10.134-6.445-19.15-16-22.528V8c0-4.418-3.582-8-8-8H24
		c-4.418,0-8,3.582-8,8v41.472C6.445,52.85,0.042,61.866,0,72v80c0,4.418,3.582,8,8,8h8v200H8c-4.418,0-8,3.582-8,8v56
		c0,13.255,10.745,24,24,24l0,0h24v24c0,4.418,3.582,8,8,8h48c4.418,0,8-3.582,8-8v-24h256v24c0,4.418,3.582,8,8,8h48
		c4.418,0,8-3.582,8-8v-24h24c13.255,0,24-10.745,24-24l0,0v-56c0-4.418-3.582-8-8-8h-8V160H472z M32,16h416v32H32V16z M16,72
		c0-4.418,3.582-8,8-8h432c4.418,0,8,3.582,8,8v72H16V72z M304,208v-16h64v16H304z M344,176h-16v-16h16V176z M112,208v-16h64v16H112
		z M152,176h-16v-16h16V176z M96,464H64v-16h32V464z M416,464h-32v-16h32V464z M464,424c0,4.418-3.582,8-8,8H24
		c-4.418,0-8-3.582-8-8v-48h448V424z M104,336v-72h80v72c0,13.255-10.745,24-24,24h-32C114.745,360,104,349.255,104,336z
		 M200,282.152c7.648,4.426,10.26,14.215,5.833,21.863c-1.401,2.421-3.413,4.432-5.833,5.833V282.152z M296,336v-72h80v72
		c0,13.255-10.745,24-24,24h-32C306.745,360,296,349.255,296,336z M392,282.152c7.648,4.426,10.26,14.215,5.833,21.863
		c-1.401,2.421-3.412,4.432-5.833,5.833V282.152z M448,360h-64.208c5.294-6.883,8.179-15.316,8.208-24v-9.136
		c17.046-4.338,27.347-21.674,23.009-38.719c-2.877-11.304-11.704-20.131-23.009-23.009V256c0-4.418-3.582-8-8-8h-96
		c-4.418,0-8,3.582-8,8v80c0.029,8.684,2.914,17.117,8.208,24h-96.416c5.294-6.883,8.179-15.316,8.208-24v-9.136
		c17.046-4.338,27.347-21.674,23.009-38.719c-2.877-11.304-11.704-20.131-23.009-23.009V256c0-4.418-3.582-8-8-8H96
		c-4.418,0-8,3.582-8,8v80c0.029,8.684,2.914,17.117,8.208,24H32V160h88v16h-16c-4.418,0-8,3.582-8,8v8H48c-4.418,0-8,3.582-8,8
		s3.582,8,8,8h48v8c0,4.418,3.582,8,8,8h32v8c0,4.418,3.582,8,8,8s8-3.582,8-8v-8h32c4.418,0,8-3.582,8-8v-32c0-4.418-3.582-8-8-8
		h-16v-16h144v16h-16c-4.418,0-8,3.582-8,8v32c0,4.418,3.582,8,8,8h32v8c0,4.418,3.582,8,8,8s8-3.582,8-8v-8h32c4.418,0,8-3.582,8-8
		v-8h48c4.418,0,8-3.582,8-8s-3.582-8-8-8h-48v-8c0-4.418-3.582-8-8-8h-16v-16h88V360z"/>
	<path style="fill:#231F20;" d="M80,136c17.673,0,32-14.327,32-32S97.673,72,80,72s-32,14.327-32,32S62.327,136,80,136z M80,88
		c8.837,0,16,7.163,16,16s-7.163,16-16,16s-16-7.163-16-16S71.163,88,80,88z"/>
	<path style="fill:#231F20;" d="M288,136c17.673,0,32-14.327,32-32s-14.327-32-32-32s-32,14.327-32,32S270.327,136,288,136z M288,88
		c8.837,0,16,7.163,16,16s-7.163,16-16,16s-16-7.163-16-16S279.163,88,288,88z"/>
	<path style="fill:#231F20;" d="M136,96h16c4.418,0,8-3.582,8-8s-3.582-8-8-8h-16c-4.418,0-8,3.582-8,8S131.582,96,136,96z"/>
	<path style="fill:#231F20;" d="M184,96h32c4.418,0,8-3.582,8-8s-3.582-8-8-8h-32c-4.418,0-8,3.582-8,8S179.582,96,184,96z"/>
	<path style="fill:#231F20;" d="M136,128h16c4.418,0,8-3.582,8-8s-3.582-8-8-8h-16c-4.418,0-8,3.582-8,8S131.582,128,136,128z"/>
	<path style="fill:#231F20;" d="M184,128h32c4.418,0,8-3.582,8-8s-3.582-8-8-8h-32c-4.418,0-8,3.582-8,8S179.582,128,184,128z"/>
	<path style="fill:#231F20;" d="M344,96h16c4.418,0,8-3.582,8-8s-3.582-8-8-8h-16c-4.418,0-8,3.582-8,8S339.582,96,344,96z"/>
	<path style="fill:#231F20;" d="M392,96h32c4.418,0,8-3.582,8-8s-3.582-8-8-8h-32c-4.418,0-8,3.582-8,8S387.582,96,392,96z"/>
	<path style="fill:#231F20;" d="M344,128h16c4.418,0,8-3.582,8-8s-3.582-8-8-8h-16c-4.418,0-8,3.582-8,8S339.582,128,344,128z"/>
	<path style="fill:#231F20;" d="M392,128h32c4.418,0,8-3.582,8-8s-3.582-8-8-8h-32c-4.418,0-8,3.582-8,8S387.582,128,392,128z"/>
	<path style="fill:#231F20;" d="M392,384H40c-4.418,0-8,3.582-8,8s3.582,8,8,8h352c4.418,0,8-3.582,8-8S396.418,384,392,384z"/>
	<path style="fill:#231F20;" d="M440,384h-16c-4.418,0-8,3.582-8,8s3.582,8,8,8h16c4.418,0,8-3.582,8-8S444.418,384,440,384z"/>
</g>
<g>
</g>
<g>
</g>
<g>
</g>
<g>
</g>
<g>
</g>
<g>
</g>
<g>
</g>
<g>
</g>
<g>
</g>
<g>
</g>
<g>
</g>
<g>
</g>
<g>
</g>
<g>
</g>
<g>
</g>
</svg>
