<?xml version="1.0" encoding="iso-8859-1"?>
<!-- Generator: Adobe Illustrator 19.0.0, SVG Export Plug-In . SVG Version: 6.00 Build 0)  -->
<svg version="1.1" id="Capa_1" xmlns="http://www.w3.org/2000/svg" xmlns:xlink="http://www.w3.org/1999/xlink" x="0px" y="0px"
	 viewBox="0 0 479.997 479.997" style="enable-background:new 0 0 479.997 479.997;" xml:space="preserve">
<g>
	<path style="fill:#ACABB1;" d="M255.998,238.557v25.44h-32v-25.44c-35.871-6.623-63.937-34.689-70.56-70.56h-41.44v256h128
		c-35.346,0-64-28.654-64-64v-64h128c22.091,0,40,17.909,40,40s-17.909,40-40,40c22.091,0,40-17.909,40-40s-17.909-40-40-40v64
		c0,35.346-28.654,64-64,64h128v-256h-41.44C319.936,203.868,291.869,231.934,255.998,238.557z"/>
	<path style="fill:#ACABB1;" d="M239.998,7.997c-70.692,0-128,57.308-128,128h256c0.093-70.6-57.064-127.907-127.664-128
		C240.223,7.997,240.11,7.997,239.998,7.997z M239.998,95.997c-13.255,0-24-10.745-24-24s10.745-24,24-24c13.255,0,24,10.745,24,24
		S253.253,95.997,239.998,95.997z"/>
</g>
<g>
	<path style="fill:#414042;" d="M111.998,167.997h41.44h173.12h41.44v-32h-256V167.997z"/>
	<path style="fill:#414042;" d="M111.998,423.997v48h256v-48h-128H111.998z"/>
</g>
<path style="fill:#A97C50;" d="M303.998,359.997v-64h-128v64c0,35.346,28.654,64,64,64S303.998,395.343,303.998,359.997z"/>
<g>
	<path style="fill:#414042;" d="M223.998,238.557c47.789,8.848,93.702-22.719,102.55-70.508c0.003-0.017,0.006-0.035,0.01-0.052
		h-173.12C160.061,203.868,188.128,231.934,223.998,238.557z"/>
	<path style="fill:#414042;" d="M223.998,238.557v25.44h32v-25.44C245.418,240.477,234.579,240.477,223.998,238.557z"/>
</g>
<circle style="fill:#FFAF46;" cx="239.998" cy="71.997" r="24"/>
<g>
	<path style="fill:#231F20;" d="M336.206,39.773c-53.184-53.094-139.34-53.022-192.435,0.163
		c-25.45,25.493-39.753,60.038-39.773,96.061v336c0,4.418,3.582,8,8,8h256c4.418,0,8-3.582,8-8v-336
		C376.086,99.902,361.762,65.264,336.206,39.773z M359.998,415.997H285.15c10.409-8.419,18.275-19.564,22.72-32.192
		c26.405-2.359,45.898-25.676,43.539-52.08c-2.198-24.604-22.71-43.523-47.411-43.728h-128c-4.418,0-8,3.582-8,8v64
		c0.005,21.77,9.879,42.363,26.848,56h-74.848v-240h27.04c8.813,33.773,35.187,60.147,68.96,68.96v19.04c0,4.418,3.582,8,8,8h32
		c4.418,0,8-3.582,8-8v-19.04c33.771-8.816,60.144-35.189,68.96-68.96h27.04V415.997z M183.998,359.997v-56h112v56
		c0,30.928-25.072,56-56,56S183.998,390.925,183.998,359.997z M311.998,359.997v-54.864c17.052,4.348,27.352,21.696,23.004,38.749
		c-2.913,11.426-11.898,20.308-23.356,23.091C311.87,364.677,311.998,362.349,311.998,359.997L311.998,359.997z M359.998,159.997
		h-240v-16h240V159.997z M247.998,247.677v8.32h-16v-8.32c2.4,0.192,4.8,0.272,7.248,0.288h0.752c0,0,0.496,0,0.752,0
		C243.198,247.949,245.598,247.869,247.998,247.677z M254.542,230.693c-4.799,0.874-9.667,1.31-14.544,1.304
		c-2.464,0-4.928-0.112-7.368-0.328s-4.84-0.544-7.2-0.976c-29.099-5.452-52.839-26.471-61.776-54.696h152.688
		C307.402,204.229,283.651,225.249,254.542,230.693z M239.998,15.997c63.204-0.088,115.609,48.931,119.736,112H120.262
		C124.55,65.004,176.859,16.074,239.998,15.997z M359.998,463.997h-240v-32h240V463.997z"/>
	<path style="fill:#231F20;" d="M239.998,39.997c-17.673,0-32,14.327-32,32s14.327,32,32,32s32-14.327,32-32
		S257.672,39.997,239.998,39.997z M239.998,87.997c-8.837,0-16-7.163-16-16s7.163-16,16-16c8.837,0,16,7.163,16,16
		S248.835,87.997,239.998,87.997z"/>
	<path style="fill:#231F20;" d="M247.998,191.997h-16c-4.418,0-8,3.582-8,8s3.582,8,8,8h16c4.418,0,8-3.582,8-8
		S252.417,191.997,247.998,191.997z"/>
</g>
<g>
</g>
<g>
</g>
<g>
</g>
<g>
</g>
<g>
</g>
<g>
</g>
<g>
</g>
<g>
</g>
<g>
</g>
<g>
</g>
<g>
</g>
<g>
</g>
<g>
</g>
<g>
</g>
<g>
</g>
</svg>
