<?xml version="1.0" encoding="iso-8859-1"?>
<!-- Generator: Adobe Illustrator 19.0.0, SVG Export Plug-In . SVG Version: 6.00 Build 0)  -->
<svg version="1.1" id="Capa_1" xmlns="http://www.w3.org/2000/svg" xmlns:xlink="http://www.w3.org/1999/xlink" x="0px" y="0px"
	 viewBox="0 0 472 472" style="enable-background:new 0 0 472 472;" xml:space="preserve">
<path style="fill:#754C29;" d="M316,8H156l-32,64h224L316,8z"/>
<g>
	<path style="fill:#C49A6C;" d="M92,120h16h256h16V72h-32H124H92V120z"/>
	<path style="fill:#C49A6C;" d="M292,416h-32h-24h-24h-32h-32h-12.48l4.48,48h192l4.48-48H324H292z"/>
	<path style="fill:#C49A6C;" d="M113.2,176H132h32h32h40h40h32h32h18.8l5.2-56H108L113.2,176z"/>
</g>
<g>
	<path style="fill:#8B5E3C;" d="M212,416l-16-240h-32l16,240H212z"/>
	<path style="fill:#8B5E3C;" d="M324,416h12.48H348l24-240h-13.2H340L324,416z"/>
	<path style="fill:#8B5E3C;" d="M132,176h-18.8H100l24,240h11.52H148L132,176z"/>
	<path style="fill:#8B5E3C;" d="M180,416l-16-240h-32l16,240H180z"/>
	<path style="fill:#8B5E3C;" d="M324,416l16-240h-32l-16,240H324z"/>
	<path style="fill:#8B5E3C;" d="M260,416l16-240h-40v240H260z"/>
	<path style="fill:#8B5E3C;" d="M292,416l16-240h-32l-16,240H292z"/>
	<path style="fill:#8B5E3C;" d="M236,416V176h-40l16,240H236z"/>
</g>
<path style="fill:#231F20;" d="M380,64h-27.056L323.2,4.424C321.838,1.699,319.047-0.017,316,0H156
	c-3.032-0.001-5.805,1.712-7.16,4.424L119.056,64H92c-4.418,0-8,3.582-8,8v48c0,4.418,3.582,8,8,8h8.712l3.712,40H100
	c-4.418,0-8,3.582-8,8c0,0.267,0.013,0.534,0.04,0.8l24,240c0.412,4.103,3.876,7.221,8,7.2h4.232L132,464.744
	c0.385,4.125,3.857,7.274,8,7.256h192c4.143,0.018,7.615-3.131,8-7.256L343.768,424H348c4.124,0.021,7.588-3.097,8-7.2l24-240
	c0.442-4.396-2.764-8.318-7.16-8.76c-0.279-0.028-0.56-0.041-0.84-0.04h-4.424l3.712-40H380c4.418,0,8-3.582,8-8V72
	C388,67.582,384.418,64,380,64L380,64z M160.944,16h150.112l24,48H136.944L160.944,16z M108.84,184h15.68l14.928,224h-8.208
	L108.84,184z M300.552,408l14.928-224h16l-14.96,224H300.552z M284.552,408h-16l14.928-224h16L284.552,408z M252.552,408H244V184
	h23.448L252.552,408z M228,408h-8.52l-14.928-224H228V408z M188.52,184l14.928,224h-16l-14.896-224H188.52z M156.52,184l14.928,224
	h-16l-14.896-224H156.52z M324.712,456H147.288l-2.984-32h183.392L324.712,456z M340.8,408h-8.248l14.928-224h15.72L340.8,408z
	 M351.544,168H120.496l-3.696-40h238.4L351.544,168z M372,112H100V80h272V112z"/>
<g>
</g>
<g>
</g>
<g>
</g>
<g>
</g>
<g>
</g>
<g>
</g>
<g>
</g>
<g>
</g>
<g>
</g>
<g>
</g>
<g>
</g>
<g>
</g>
<g>
</g>
<g>
</g>
<g>
</g>
</svg>
