<?xml version="1.0" encoding="iso-8859-1"?>
<!-- Generator: Adobe Illustrator 19.0.0, SVG Export Plug-In . SVG Version: 6.00 Build 0)  -->
<svg version="1.1" id="Capa_1" xmlns="http://www.w3.org/2000/svg" xmlns:xlink="http://www.w3.org/1999/xlink" x="0px" y="0px"
	 viewBox="0 0 479.993 479.993" style="enable-background:new 0 0 479.993 479.993;" xml:space="preserve">
<g>
	<path style="fill:#8B5E3C;" d="M207.86,272.038c-57.08-57.072-129.536-78.776-170.256-53.6c-3.916,2.344-7.546,5.136-10.816,8.32
		C-10.716,264.27,9.556,345.342,72.052,407.846c58.4,58.4,133.016,79.904,173.144,51.864c2.833-1.96,5.487-4.169,7.928-6.6
		C290.628,415.614,270.356,334.542,207.86,272.038L207.86,272.038z"/>
	<path style="fill:#8B5E3C;" d="M454.636,28.558c-0.528-0.576-0.952-1.232-1.512-1.784C415.628-10.73,334.556,9.542,272.052,72.038
		c-51.344,51.352-74.112,115.2-59.832,157.136c2.937,8.999,7.924,17.193,14.568,23.936c37.496,37.504,118.568,17.24,181.072-45.264
		C469.436,146.27,489.9,66.758,454.636,28.558z"/>
</g>
<g>
	<path style="fill:#231F20;" d="M213.556,266.382c-50.4-50.36-112.936-73.864-157.6-63.688l-3.688,0.936
		c-11.702,3.018-22.411,9.044-31.064,17.48c-20.2,20.208-26.224,51.728-16.968,88.8c11.166,39.444,32.619,75.21,62.16,103.632
		c42.672,42.664,94.144,66.16,136.064,66.16c20.822,0.903,41.129-6.628,56.328-20.888c20.2-20.208,26.224-51.728,16.968-88.76
		C264.585,330.591,243.118,294.81,213.556,266.382L213.556,266.382z M77.932,215.734c37.216,0,84.536,22.224,124.272,61.96
		c27.523,26.361,47.549,59.56,58.032,96.2c6.184,24.736,4.552,46.128-4.248,61.984c-16.644-18.109-36.622-32.841-58.84-43.392
		c-24.048-11.343-45.259-27.911-62.088-48.496c-17.845-19.71-31.065-43.155-38.696-68.624c-6.413-21.188-16.455-41.103-29.68-58.856
		C70.413,216.004,74.17,215.745,77.932,215.734L77.932,215.734z M77.708,402.19c-27.523-26.361-47.549-59.56-58.032-96.2
		c-7.84-31.368-3.312-57.496,12.8-73.56c5.007-4.947,10.945-8.852,17.472-11.488c14.179,17.672,24.813,37.914,31.32,59.616
		c8.291,27.395,22.531,52.62,41.704,73.872c18.152,22.124,40.968,39.965,66.816,52.248c21.378,10.076,40.508,24.355,56.248,41.984
		C211.1,481.15,136.228,460.742,77.708,402.19z"/>
	<path style="fill:#231F20;" d="M458.788,21.11C418.22-19.45,331.956,0.854,266.396,66.382
		c-29.57,28.413-51.051,64.179-62.24,103.632c-9.256,37.032-3.2,68.552,16.968,88.8c15.199,14.26,35.506,21.791,56.328,20.888
		c41.92,0,93.4-23.496,136.064-66.16c29.57-28.413,51.051-64.18,62.24-103.632C485.012,72.838,478.988,41.318,458.788,21.11z
		 M219.676,173.91c10.483-36.64,30.509-69.839,58.032-96.2c39.744-39.752,87.048-61.976,124.272-61.976
		c16.793-0.789,33.193,5.23,45.488,16.696c2.201,2.227,4.191,4.653,5.944,7.248c-18.273,14.591-39.332,25.297-61.888,31.464
		c-27.208,7.483-52.393,20.968-73.704,39.464c-22.153,17.474-40.107,39.69-52.544,65.016c-10.443,21.477-25.271,40.526-43.528,55.92
		c-7.081-18.451-7.81-38.736-2.072-57.648V173.91z M460.236,106.006c-10.483,36.64-30.509,69.839-58.032,96.2
		c-59.288,59.28-135.448,79.584-169.76,45.264c-0.72-0.712-1.296-1.6-1.968-2.32c20.5-16.934,37.162-38.036,48.88-61.904
		c11.46-23.514,28.101-44.123,48.672-60.28c19.718-17.188,43.077-29.68,68.32-36.536c23.293-6.395,45.117-17.264,64.256-32
		c4.637,16.891,4.509,34.736-0.368,51.56V106.006z"/>
</g>
<g>
</g>
<g>
</g>
<g>
</g>
<g>
</g>
<g>
</g>
<g>
</g>
<g>
</g>
<g>
</g>
<g>
</g>
<g>
</g>
<g>
</g>
<g>
</g>
<g>
</g>
<g>
</g>
<g>
</g>
</svg>
