<?xml version="1.0" encoding="iso-8859-1"?>
<!-- Generator: Adobe Illustrator 19.0.0, SVG Export Plug-In . SVG Version: 6.00 Build 0)  -->
<svg version="1.1" id="Capa_1" xmlns="http://www.w3.org/2000/svg" xmlns:xlink="http://www.w3.org/1999/xlink" x="0px" y="0px"
	 viewBox="0 0 480 480" style="enable-background:new 0 0 480 480;" xml:space="preserve">
<g>
	<path style="fill:#A97C50;" d="M376,424c25.675-57.986,39.284-120.589,40-184c-0.716-63.411-14.325-126.014-40-184
		c-25.675,57.986-39.284,120.588-40,184C336.716,303.411,350.325,366.014,376,424z"/>
	<path style="fill:#A97C50;" d="M104,424c25.675-57.986,39.284-120.589,40-184c-0.716-63.411-14.325-126.014-40-184
		c-25.675,57.986-39.284,120.588-40,184C64.716,303.411,78.325,366.014,104,424z"/>
</g>
<path style="fill:#C49A6C;" d="M104,424h272c-25.675-57.986-39.284-120.589-40-184c0.716-63.411,14.325-126.014,40-184H104
	c25.675,57.986,39.284,120.588,40,184C143.284,303.411,129.675,366.014,104,424z M200.4,200.4l0.544,0.544
	c15.408-15.408,45.384-10.4,66.952,11.2c21.568,21.6,26.568,51.544,11.16,66.952l0.544,0.544l-0.544-0.544
	c-15.408,15.408-45.384,10.4-66.952-11.16s-26.568-51.544-11.2-66.952L200.4,200.4z"/>
<g>
	<path style="fill:#8B5E3C;" d="M104,8h272v48H104V8z"/>
	<path style="fill:#8B5E3C;" d="M104,424h272v48H104V424z"/>
</g>
<g>
	<path style="fill:#754C29;" d="M267.896,212.104c-21.6-21.6-51.544-26.568-66.952-11.2l78.112,78.112
		C294.464,263.648,289.464,233.672,267.896,212.104L267.896,212.104z"/>
	<path style="fill:#754C29;" d="M212.104,267.896c21.6,21.6,51.544,26.568,66.952,11.16l-78.112-78.112
		C185.536,216.352,190.536,246.328,212.104,267.896z"/>
</g>
<g>
	<path style="fill:#231F20;" d="M424,240c-0.633-63.998-14.241-127.203-40-185.792V8c0-4.418-3.582-8-8-8H104c-4.418,0-8,3.582-8,8
		v46.208C70.24,112.797,56.633,176.002,56,240c0.633,63.998,14.241,127.203,40,185.792V472c0,4.418,3.582,8,8,8h272
		c4.418,0,8-3.582,8-8v-46.208C409.76,367.203,423.367,303.998,424,240L424,240z M112,16h256v32H112V16z M105.016,73.92
		c3.825,2.132,8.653,0.759,10.785-3.066c1.172-2.103,1.325-4.625,0.415-6.854h247.552c-1.684,4.027,0.215,8.657,4.242,10.342
		c2.259,0.945,4.829,0.789,6.958-0.422C396.008,126.804,407.202,183.09,408,240c-0.79,56.928-11.987,113.23-33.04,166.128
		c-2.085-1.204-4.608-1.381-6.84-0.48c-4.036,1.682-5.974,6.292-4.352,10.352H116.232c1.622-4.06-0.316-8.67-4.352-10.352
		c-2.232-0.901-4.755-0.724-6.84,0.48C83.988,353.23,72.791,296.927,72,240C72.793,183.091,83.982,126.805,105.016,73.92
		L105.016,73.92z M368,464H112v-32h256V464z"/>
	<path style="fill:#231F20;" d="M137.336,314.4c-4.33-0.815-8.504,2.025-9.336,6.352c-1.472,7.544-3.152,15.2-5,22.744
		c-1.05,4.292,1.579,8.622,5.87,9.672c0.001,0,0.001,0,0.002,0c0.623,0.156,1.262,0.234,1.904,0.232
		c3.681-0.005,6.884-2.521,7.76-6.096c1.912-7.8,3.648-15.704,5.168-23.504c0.85-4.336-1.976-8.539-6.312-9.389
		C137.373,314.407,137.355,314.403,137.336,314.4L137.336,314.4z"/>
	<path style="fill:#231F20;" d="M126.816,360.592c-4.236-1.255-8.688,1.161-9.943,5.397c0,0.001-0.001,0.002-0.001,0.003
		c-2.216,7.512-4.624,14.976-7.152,22.176c-1.458,4.171,0.741,8.734,4.912,10.192c0,0,0,0,0,0c0.847,0.303,1.74,0.457,2.64,0.456
		c3.399,0.001,6.427-2.145,7.552-5.352c2.608-7.448,5.096-15.2,7.392-22.928c1.255-4.236-1.161-8.688-5.397-9.943
		C126.818,360.592,126.817,360.592,126.816,360.592L126.816,360.592z"/>
	<path style="fill:#231F20;" d="M116.84,113.864c1.006,3.395,4.123,5.725,7.664,5.728c0.772,0.004,1.54-0.106,2.28-0.328
		c4.234-1.258,6.648-5.709,5.392-9.944c-2.288-7.728-4.8-15.432-7.392-22.904c-1.458-4.171-6.021-6.37-10.192-4.912
		s-6.37,6.021-4.912,10.192C112.208,98.928,114.624,106.4,116.84,113.864L116.84,113.864z"/>
	<path style="fill:#231F20;" d="M143.128,267.424c-4.349-0.428-8.221,2.75-8.649,7.099c-0.006,0.058-0.011,0.115-0.015,0.173
		c-0.664,7.624-1.6,15.392-2.648,23.096c-0.618,4.374,2.426,8.421,6.8,9.04c0.374,0.055,0.751,0.081,1.128,0.08
		c3.979-0.004,7.351-2.932,7.912-6.872c1.128-8,2.056-16.048,2.744-23.952C150.783,271.688,147.528,267.809,143.128,267.424
		L143.128,267.424z"/>
	<path style="fill:#231F20;" d="M131.784,182.048c1.104,7.712,1.992,15.472,2.664,23.088c0.361,4.129,3.815,7.299,7.96,7.304
		c0.235,0.012,0.469,0.012,0.704,0c4.4-0.385,7.655-4.264,7.272-8.664c-0.696-7.904-1.6-15.952-2.752-23.944
		c-0.621-4.376-4.672-7.421-9.048-6.8c-4.376,0.621-7.421,4.672-6.8,9.048l0,0V182.048z"/>
	<path style="fill:#231F20;" d="M128.8,126.68c-4.289,1.053-6.914,5.382-5.864,9.672c1.856,7.56,3.536,15.2,5,22.744
		c0.731,3.757,4.021,6.47,7.848,6.472c0.515-0.001,1.029-0.049,1.536-0.144c4.333-0.846,7.161-5.042,6.32-9.376
		c-1.512-7.792-3.248-15.696-5.168-23.512C137.416,128.25,133.088,125.629,128.8,126.68L128.8,126.68z"/>
	<path style="fill:#231F20;" d="M143.576,220.088c-4.416,0.135-7.887,3.824-7.752,8.24C135.941,232.184,136,236.075,136,240
		s-0.056,7.765-0.168,11.52c-0.139,4.416,3.328,8.109,7.744,8.248c0.003,0,0.005,0,0.008,0h0.248c4.326,0.002,7.87-3.436,8-7.76
		c0.12-4,0.176-8,0.176-12s-0.056-8.152-0.184-12.168C151.625,223.45,147.97,220.014,143.576,220.088L143.576,220.088z"/>
	<path style="fill:#231F20;" d="M351.2,353.168c4.292-1.049,6.921-5.378,5.872-9.67c0-0.001,0-0.001,0-0.002
		c-1.848-7.544-3.528-15.2-5-22.744c-0.759-4.353-4.902-7.266-9.255-6.507c-4.353,0.759-7.266,4.902-6.507,9.255
		c0.018,0.101,0.037,0.201,0.058,0.301c1.52,7.8,3.256,15.704,5.168,23.504c0.876,3.575,4.079,6.091,7.76,6.096
		C349.938,353.402,350.577,353.324,351.2,353.168L351.2,353.168z"/>
	<path style="fill:#231F20;" d="M341.384,306.832c4.374-0.619,7.418-4.666,6.8-9.04c-1.088-7.704-1.984-15.472-2.648-23.096
		c-0.295-4.408-4.107-7.743-8.516-7.448c-4.408,0.295-7.743,4.108-7.448,8.516c0.007,0.108,0.017,0.217,0.028,0.324
		c0.688,7.904,1.6,16,2.744,23.952c0.561,3.94,3.933,6.868,7.912,6.872C340.633,306.913,341.01,306.887,341.384,306.832
		L341.384,306.832z"/>
	<path style="fill:#231F20;" d="M336.168,259.768h0.248c4.416-0.135,7.887-3.824,7.752-8.24c0-0.003,0-0.005,0-0.008
		C344.056,247.712,344,243.872,344,240c0-3.912,0.056-7.808,0.176-11.664c0.135-4.418-3.338-8.109-7.756-8.244
		c-4.418-0.135-8.109,3.338-8.244,7.756c-0.128,4-0.184,8.08-0.184,12.16s0.056,8.04,0.176,12
		C328.298,256.332,331.842,259.77,336.168,259.768L336.168,259.768z"/>
	<path style="fill:#231F20;" d="M336.888,212.408c0.235,0.012,0.469,0.012,0.704,0c4.16,0.016,7.638-3.16,8-7.304
		c0.672-7.616,1.6-15.376,2.664-23.088c0.621-4.376-2.424-8.427-6.8-9.048c-4.376-0.621-8.427,2.424-9.048,6.8l0,0
		c-1.136,8-2.056,16-2.752,23.944C329.253,208.11,332.49,212.002,336.888,212.408z"/>
	<path style="fill:#231F20;" d="M342.688,165.424c0.507,0.095,1.021,0.143,1.536,0.144c3.827-0.002,7.117-2.715,7.848-6.472
		c1.464-7.528,3.144-15.2,5-22.744c0.983-4.308-1.713-8.596-6.021-9.579c-4.207-0.96-8.417,1.59-9.515,5.763
		c-1.92,7.816-3.656,15.72-5.168,23.512C335.527,160.382,338.355,164.578,342.688,165.424z"/>
	<path style="fill:#231F20;" d="M363.128,365.992c-1.255-4.237-5.707-6.655-9.944-5.4s-6.655,5.707-5.4,9.944
		c2.296,7.768,4.8,15.48,7.392,22.928c1.125,3.207,4.153,5.353,7.552,5.352c0.9,0.001,1.793-0.153,2.64-0.456
		c4.171-1.458,6.37-6.021,4.912-10.192c0,0,0,0,0,0C367.752,380.968,365.344,373.504,363.128,365.992L363.128,365.992z"/>
	<path style="fill:#231F20;" d="M353.216,119.264c0.74,0.222,1.508,0.332,2.28,0.328c3.541-0.003,6.658-2.333,7.664-5.728
		c2.216-7.472,4.632-14.936,7.16-22.168c1.462-4.175-0.737-8.746-4.912-10.208c-4.175-1.462-8.746,0.737-10.208,4.912
		c-2.616,7.472-5.104,15.2-7.392,22.904c-1.262,4.234,1.147,8.69,5.381,9.952C353.198,119.259,353.207,119.261,353.216,119.264
		L353.216,119.264z"/>
	<path style="fill:#231F20;" d="M206.448,273.552c10.823,11.189,24.838,18.761,40.128,21.68c3.018,0.522,6.074,0.789,9.136,0.8
		c10.796,0.302,21.256-3.775,29-11.304c9.579-10.206,13.504-24.483,10.488-38.152c-6.475-31.045-30.731-55.301-61.776-61.776
		c-21.465-5.389-43.235,7.642-48.624,29.107c-1.608,6.406-1.608,13.111,0,19.517C187.707,248.712,195.268,262.727,206.448,273.552
		L206.448,273.552z M224.304,200.056c14.444,0.834,28.019,7.17,37.936,17.704c8.833,8.462,14.844,19.44,17.216,31.44
		c2.032,8.517-0.193,17.49-5.968,24.072c-10.524-11.085-19.443-23.591-26.496-37.152c-6.777-12.929-15.105-24.983-24.8-35.896
		C222.88,200.176,223.568,200.056,224.304,200.056L224.304,200.056z M206.512,206.728c10.524,11.085,19.443,23.591,26.496,37.152
		c6.767,12.903,15.082,24.933,24.76,35.824c-15.174-0.042-29.654-6.364-40-17.464c-8.833-8.462-14.844-19.44-17.216-31.44
		C198.518,222.284,200.74,213.311,206.512,206.728L206.512,206.728z"/>
</g>
<g>
</g>
<g>
</g>
<g>
</g>
<g>
</g>
<g>
</g>
<g>
</g>
<g>
</g>
<g>
</g>
<g>
</g>
<g>
</g>
<g>
</g>
<g>
</g>
<g>
</g>
<g>
</g>
<g>
</g>
</svg>
