<?xml version="1.0" encoding="iso-8859-1"?>
<!-- Generator: Adobe Illustrator 19.0.0, SVG Export Plug-In . SVG Version: 6.00 Build 0)  -->
<svg version="1.1" id="Capa_1" xmlns="http://www.w3.org/2000/svg" xmlns:xlink="http://www.w3.org/1999/xlink" x="0px" y="0px"
	 viewBox="0 0 479.982 479.982" style="enable-background:new 0 0 479.982 479.982;" xml:space="preserve">
<path style="fill:#FFDA44;" d="M59.991,175.982v-88l-48,96v288h256v-288l-48-96v88H59.991z M187.991,391.982h-104l18.352-26.216
	c-14.472-10.136-15.72-44.76,7.088-77.328s83.512-48.624,83.512-48.624s7.72,52.76-15.088,85.328s-61.064,50.76-75.512,40.624
	l-18.352,26.216H187.991z"/>
<g>
	<path style="fill:#FFAF46;" d="M59.991,175.982h160v-88h-77.2c-1.87,7.863-2.81,15.918-2.8,24c-0.01-8.082,0.93-16.137,2.8-24
		h-82.8V175.982z"/>
	<path style="fill:#FFAF46;" d="M419.991,223.982l24,24l24-24v-40h-48V223.982z"/>
</g>
<path style="fill:#64C37D;" d="M177.855,325.142c22.808-32.568,15.088-85.328,15.088-85.328s-60.704,16.048-83.512,48.624
	s-21.56,67.2-7.088,77.328l32.12-45.872l-7.648-43.384l7.648,43.384l45.888-65.512l-45.888,65.528l43.384-7.648l-43.384,7.648
	l-32.12,45.872C116.791,375.902,155.047,357.718,177.855,325.142L177.855,325.142z"/>
<g>
	<path style="fill:#231F20;" d="M467.991,175.982h-48c-4.418,0-8,3.582-8,8v40c0,2.122,0.844,4.156,2.344,5.656l21.656,21.656
		v124.688c0,22.091-17.909,40-40,40s-40-17.909-40-40v-264C356.003,50.148,305.886,0.012,244.053,0
		c-49.525-0.01-93.172,32.52-107.318,79.982H59.991c-0.144,0-0.256,0.072-0.4,0.08c-0.689,0.05-1.369,0.187-2.024,0.408
		c-0.271,0.06-0.539,0.138-0.8,0.232c-0.877,0.387-1.676,0.929-2.36,1.6c-0.136,0.144-0.216,0.328-0.344,0.48
		c-0.473,0.491-0.879,1.043-1.208,1.64l-48,96c-0.559,1.104-0.855,2.322-0.864,3.56v288c0,4.418,3.582,8,8,8h256
		c4.418,0,8-3.582,8-8v-288c0.014-1.238-0.26-2.462-0.8-3.576l-48-96c-0.332-0.598-0.737-1.152-1.208-1.648
		c-0.128-0.144-0.208-0.328-0.344-0.472c-0.684-0.667-1.48-1.208-2.352-1.6c-0.28-0.094-0.566-0.172-0.856-0.232
		c-0.644-0.221-1.313-0.358-1.992-0.408c-0.144,0-0.264-0.08-0.408-0.08h-66.52C171.23,29.995,226.104,3.85,276.075,21.57
		c38.29,13.577,63.888,49.787,63.916,90.412v264c0,30.928,25.072,56,56,56s56-25.072,56-56V251.294l21.656-21.656
		c1.5-1.5,2.344-3.534,2.344-5.656v-40C475.991,179.563,472.409,175.982,467.991,175.982z M259.991,463.982h-240V185.87l32-64
		v54.112c0,4.418,3.582,8,8,8h160c4.418,0,8-3.582,8-8V121.87l32,64V463.982z M211.991,167.982h-144v-72h65.272
		c-0.806,5.296-1.231,10.643-1.272,16h-8c-4.418,0-8,3.582-8,8s3.582,8,8,8h32c4.418,0,8-3.582,8-8s-3.582-8-8-8h-8
		c0.05-5.366,0.551-10.718,1.496-16h62.504V167.982z M459.991,220.67l-16,16l-16-16v-28.688h32V220.67z"/>
	<path style="fill:#231F20;" d="M187.991,383.982H99.359l5.832-8.336c2.515,0.643,5.101,0.962,7.696,0.952
		c21.6,0,51.872-18.8,71.52-46.864c24.352-34.784,16.8-88.8,16.448-91.08c-0.64-4.372-4.702-7.397-9.074-6.757
		c-0.298,0.044-0.594,0.104-0.886,0.181c-2.592,0.688-63.808,17.2-88,51.768c-22.808,32.576-23.664,66.44-10.936,82.84
		l-12.136,17.296H59.991c-4.418,0-8,3.582-8,8s3.582,8,8,8h128c4.418,0,8-3.582,8-8S192.409,383.982,187.991,383.982
		L187.991,383.982z M115.927,360.318l23.2-33.12l31.352-5.528C153.175,345.718,129.591,358.478,115.927,360.318z M134.695,275.126
		v-0.064c10.724-7.379,22.231-13.55,34.312-18.4l-29.992,42.832L134.695,275.126z M179.415,304.43
		c-0.972-0.203-1.973-0.222-2.952-0.056l-24.368,4.296l34.064-48.648C186.478,275.102,184.197,290.124,179.415,304.43
		L179.415,304.43z M115.991,293.022c1.419-1.985,2.961-3.879,4.616-5.672l5.416,30.672l-24,34.232
		C97.311,340.03,99.671,316.318,115.991,293.022z"/>
</g>
<g>
</g>
<g>
</g>
<g>
</g>
<g>
</g>
<g>
</g>
<g>
</g>
<g>
</g>
<g>
</g>
<g>
</g>
<g>
</g>
<g>
</g>
<g>
</g>
<g>
</g>
<g>
</g>
<g>
</g>
</svg>
