<?xml version="1.0" encoding="iso-8859-1"?>
<!-- Generator: Adobe Illustrator 19.0.0, SVG Export Plug-In . SVG Version: 6.00 Build 0)  -->
<svg version="1.1" id="Capa_1" xmlns="http://www.w3.org/2000/svg" xmlns:xlink="http://www.w3.org/1999/xlink" x="0px" y="0px"
	 viewBox="0 0 480 480" style="enable-background:new 0 0 480 480;" xml:space="preserve">
<path style="fill:#A97C50;" d="M216.011,8h48v48h-48V8z"/>
<g>
	<path style="fill:#C49A6C;" d="M124.091,234.88l7.2,61.12l19.04,161.84c0.935,8.081,7.785,14.173,15.92,14.16h147.52
		c8.135,0.013,14.985-6.079,15.92-14.16L348.731,296l7.2-61.12c1.385-11.574,1.653-23.255,0.8-34.88h-233.44
		C122.438,211.625,122.706,223.306,124.091,234.88L124.091,234.88z M324.155,231.152L299.571,440L324.155,231.152z"/>
	<path style="fill:#C49A6C;" d="M201.131,56c-10.703-0.007-20.7,5.337-26.64,14.24L160.011,104h160l-14.48-33.76
		c-5.94-8.903-15.937-14.247-26.64-14.24L201.131,56z"/>
</g>
<path style="fill:#A97C50;" d="M156.491,104c-7.353,0.006-13.755,5.022-15.52,12.16l-12.4,49.76c-1.515,5.96-2.716,11.995-3.6,18.08
	c-0.8,5.28-1.36,10.64-1.68,16h233.44c-0.32-5.36-0.88-10.72-1.68-16c-0.884-6.085-2.085-12.12-3.6-18.08l-12.4-49.76
	c-1.765-7.138-8.167-12.154-15.52-12.16H156.491z M320.403,173.664L311.011,136L320.403,173.664z"/>
<g>
	<path style="fill:#231F20;" d="M299.579,448c-0.316,0.001-0.631-0.018-0.944-0.056c-4.387-0.517-7.524-4.493-7.008-8.88
		l24.576-208.848c0.517-4.39,4.494-7.529,8.884-7.012c4.39,0.517,7.529,4.494,7.012,8.884l-24.584,208.848
		C307.041,444.961,303.632,447.995,299.579,448L299.579,448z"/>
	<path style="fill:#231F20;" d="M320.395,181.664c-3.671-0.006-6.867-2.509-7.752-6.072l-9.392-37.656
		c-1.069-4.288,1.54-8.631,5.828-9.7c4.288-1.069,8.631,1.54,9.7,5.828l9.384,37.664c1.068,4.286-1.539,8.626-5.824,9.696
		C321.703,181.582,321.05,181.662,320.395,181.664L320.395,181.664z"/>
	<path style="fill:#231F20;" d="M364.715,199.52c-0.336-5.6-0.928-11.256-1.744-16.664c-0.927-6.346-2.182-12.64-3.76-18.856
		l-12.392-49.76c-2.485-10.043-11.153-17.345-21.472-18.088l-12.464-29.064c-0.192-0.45-0.425-0.881-0.696-1.288
		c-7.415-11.137-19.916-17.82-33.296-17.8h-6.88V8c0-4.418-3.582-8-8-8h-48c-4.418,0-8,3.582-8,8v40h-6.88
		c-13.38-0.02-25.881,6.663-33.296,17.8c-0.271,0.407-0.504,0.838-0.696,1.288l-12.464,29.064
		c-10.314,0.737-18.981,8.034-21.464,18.072L120.811,164c-1.577,6.211-2.832,12.499-3.76,18.84
		c-0.8,5.464-1.416,11.088-1.744,16.592v0.16c-0.895,12.086-0.627,24.23,0.8,36.264l26.304,222.928
		c1.437,12.084,11.671,21.192,23.84,21.216h147.52c12.172-0.025,22.407-9.137,23.84-21.224l26.24-222.96
		C365.303,223.773,365.592,211.618,364.715,199.52L364.715,199.52z M224.011,16h32v32h-32L224.011,16z M181.531,74.112
		c4.506-6.351,11.813-10.121,19.6-10.112h77.76c7.787-0.009,15.094,3.761,19.6,10.112L307.875,96H172.147L181.531,74.112z
		 M136.331,167.856l12.408-49.776c0.882-3.566,4.079-6.073,7.752-6.08h167.04c3.681,0.005,6.884,2.521,7.76,6.096l12.408,49.792
		c1.449,5.706,2.597,11.485,3.44,17.312c0.336,2.2,0.464,4.544,0.712,6.8h-215.68c0.248-2.288,0.376-4.6,0.72-6.856
		C133.734,179.325,134.883,173.554,136.331,167.856L136.331,167.856z M348.011,233.952l-26.24,222.944
		c-0.479,4.054-3.917,7.108-8,7.104h-147.52c-4.08,0.004-7.517-3.045-8-7.096l-26.24-222.952c-0.948-8.616-1.258-17.29-0.928-25.952
		h217.864C349.273,216.662,348.96,225.336,348.011,233.952z"/>
</g>
<g>
</g>
<g>
</g>
<g>
</g>
<g>
</g>
<g>
</g>
<g>
</g>
<g>
</g>
<g>
</g>
<g>
</g>
<g>
</g>
<g>
</g>
<g>
</g>
<g>
</g>
<g>
</g>
<g>
</g>
</svg>
