<?xml version="1.0" encoding="iso-8859-1"?>
<!-- Generator: Adobe Illustrator 19.0.0, SVG Export Plug-In . SVG Version: 6.00 Build 0)  -->
<svg version="1.1" id="Capa_1" xmlns="http://www.w3.org/2000/svg" xmlns:xlink="http://www.w3.org/1999/xlink" x="0px" y="0px"
	 viewBox="0 0 480 480" style="enable-background:new 0 0 480 480;" xml:space="preserve">
<path style="fill:#ACABB1;" d="M432,8H48v464h384V8z M136,424h-32v-32h32V424z M312,432H168v-48h144V432z M376,424h-32v-32h32V424z
	 M240,344c-79.529,0-144-64.471-144-144S160.471,56,240,56s144,64.471,144,144S319.529,344,240,344z"/>
<path style="fill:#E6E7E8;" d="M240,56c-79.529,0-144,64.471-144,144s64.471,144,144,144s144-64.471,144-144S319.529,56,240,56z
	 M128,200c0.066,61.828,50.172,111.934,112,112C178.172,311.934,128.066,261.828,128,200z M240,88
	c61.828,0.066,111.934,50.172,112,112C351.934,138.172,301.828,88.066,240,88z"/>
<g>
	<path style="fill:#414042;" d="M168,384h144v48H168V384z"/>
	<path style="fill:#414042;" d="M344,392h32v32h-32V392z"/>
	<path style="fill:#414042;" d="M104,392h32v32h-32V392z"/>
</g>
<g>
	<path style="fill:#231F20;" d="M432,480H48c-4.418,0-8-3.582-8-8V8c0-4.418,3.582-8,8-8h384c4.418,0,8,3.582,8,8v464
		C440,476.418,436.418,480,432,480z M56,464h368V16H56V464z"/>
	<path style="fill:#231F20;" d="M240,352c-83.947,0-152-68.053-152-152S156.053,48,240,48s152,68.053,152,152
		C391.907,283.909,323.909,351.907,240,352z M240,64c-75.111,0-136,60.889-136,136s60.889,136,136,136s136-60.889,136-136
		C375.916,124.924,315.076,64.084,240,64z"/>
	<path style="fill:#231F20;" d="M352,208c-4.418,0-8-3.582-8-8c-0.066-57.41-46.59-103.934-104-104c-4.418,0-8-3.582-8-8
		s3.582-8,8-8c66.243,0.075,119.925,53.757,120,120C360,204.418,356.418,208,352,208z"/>
	<path style="fill:#231F20;" d="M240,320c-66.243-0.075-119.925-53.757-120-120c0-4.418,3.582-8,8-8s8,3.582,8,8
		c0.066,57.41,46.59,103.934,104,104c4.418,0,8,3.582,8,8S244.418,320,240,320z"/>
	<path style="fill:#231F20;" d="M312,440H168c-4.418,0-8-3.582-8-8v-48c0-4.418,3.582-8,8-8h144c4.418,0,8,3.582,8,8v48
		C320,436.418,316.418,440,312,440z M176,424h128v-32H176V424z"/>
	<path style="fill:#231F20;" d="M376,432h-32c-4.418,0-8-3.582-8-8v-32c0-4.418,3.582-8,8-8h32c4.418,0,8,3.582,8,8v32
		C384,428.418,380.418,432,376,432z M352,416h16v-16h-16V416z"/>
	<path style="fill:#231F20;" d="M136,432h-32c-4.418,0-8-3.582-8-8v-32c0-4.418,3.582-8,8-8h32c4.418,0,8,3.582,8,8v32
		C144,428.418,140.418,432,136,432z M112,416h16v-16h-16V416z"/>
</g>
<g>
</g>
<g>
</g>
<g>
</g>
<g>
</g>
<g>
</g>
<g>
</g>
<g>
</g>
<g>
</g>
<g>
</g>
<g>
</g>
<g>
</g>
<g>
</g>
<g>
</g>
<g>
</g>
<g>
</g>
</svg>
