<?xml version="1.0" encoding="iso-8859-1"?>
<!-- Generator: Adobe Illustrator 19.0.0, SVG Export Plug-In . SVG Version: 6.00 Build 0)  -->
<svg version="1.1" id="Capa_1" xmlns="http://www.w3.org/2000/svg" xmlns:xlink="http://www.w3.org/1999/xlink" x="0px" y="0px"
	 viewBox="0 0 480 480" style="enable-background:new 0 0 480 480;" xml:space="preserve">
<path style="fill:#414042;" d="M472,440H368H112H8v32h464V440z"/>
<g>
	<path style="fill:#ACABB1;" d="M112,392h256v48H112V392z"/>
	<path style="fill:#ACABB1;" d="M280,296h-80l-88,96h256L280,296z"/>
</g>
<path style="fill:#603913;" d="M322.4,105.352c9.583-43.131-17.613-85.864-60.744-95.448C255.949,8.636,250.119,7.998,244.272,8
	h-8.544c-44.183-0.018-80.015,35.785-80.032,79.968c-0.002,5.847,0.636,11.677,1.904,17.384L200,296h80L322.4,105.352z
	 M188.864,98.4c-3.187-14.214,0.282-29.106,9.424-40.448C189.146,69.294,185.677,84.186,188.864,98.4l36.8,165.6L188.864,98.4z
	 M244.272,40c14.567-0.034,28.353,6.582,37.44,17.968C272.625,46.582,258.839,39.966,244.272,40z"/>
<g>
	<path style="fill:#231F20;" d="M281.72,65.968c-2.43,0.001-4.729-1.103-6.248-3c-7.574-9.485-19.062-14.996-31.2-14.968H232
		c-4.418,0-8-3.582-8-8s3.582-8,8-8h12.272c16.995-0.04,33.078,7.678,43.68,20.96c2.766,3.445,2.215,8.481-1.231,11.247
		C285.303,65.345,283.539,65.967,281.72,65.968z"/>
	<path style="fill:#231F20;" d="M472,432h-96v-40c0-0.16-0.08-0.288-0.088-0.448c-0.044-0.753-0.195-1.497-0.448-2.208
		c-0.072-0.2-0.104-0.408-0.192-0.6c-0.339-0.787-0.803-1.514-1.376-2.152l-85.176-92.928l41.456-186.576
		c10.542-47.444-19.373-94.451-66.817-104.993C257.092,0.703,250.692,0,244.272,0h-8.544c-48.601,0-88,39.4-87.999,88.001
		c0,6.42,0.703,12.82,2.095,19.087l41.456,186.576l-85.176,92.928c-0.573,0.638-1.037,1.365-1.376,2.152
		c-0.088,0.192-0.12,0.4-0.192,0.592c-0.252,0.714-0.403,1.46-0.448,2.216c0,0.16-0.088,0.288-0.088,0.448v40H8
		c-4.418,0-8,3.582-8,8v32c0,4.418,3.582,8,8,8h464c4.418,0,8-3.582,8-8v-32C480,435.582,476.418,432,472,432z M179.56,42.944
		C193.199,25.873,213.878,15.953,235.728,16h8.544c39.764,0.002,71.998,32.24,71.996,72.004c0,5.254-0.576,10.491-1.716,15.62
		L273.6,288h-67.2l-40.952-184.376C160.657,82.304,165.853,59.962,179.56,42.944L179.56,42.944z M203.512,304h72.976l73.328,80
		H130.184L203.512,304z M120,400h240v32H120V400z M464,464H16v-16h448V464z"/>
	<path style="fill:#231F20;" d="M225.664,272c0.587-0.001,1.171-0.065,1.744-0.192c4.314-0.955,7.036-5.227,6.081-9.541
		c0-0.001,0-0.002-0.001-0.003l-36.8-165.6c-2.662-11.844,0.228-24.255,7.848-33.704c2.766-3.446,2.214-8.482-1.232-11.248
		c-3.446-2.766-8.482-2.214-11.248,1.232c-10.669,13.234-14.717,30.614-10.992,47.2l36.8,165.6
		C218.68,269.397,221.921,271.997,225.664,272L225.664,272z"/>
</g>
<g>
</g>
<g>
</g>
<g>
</g>
<g>
</g>
<g>
</g>
<g>
</g>
<g>
</g>
<g>
</g>
<g>
</g>
<g>
</g>
<g>
</g>
<g>
</g>
<g>
</g>
<g>
</g>
<g>
</g>
</svg>
