<?xml version="1.0" encoding="iso-8859-1"?>
<!-- Generator: Adobe Illustrator 19.0.0, SVG Export Plug-In . SVG Version: 6.00 Build 0)  -->
<svg version="1.1" id="Capa_1" xmlns="http://www.w3.org/2000/svg" xmlns:xlink="http://www.w3.org/1999/xlink" x="0px" y="0px"
	 viewBox="0 0 480 480" style="enable-background:new 0 0 480 480;" xml:space="preserve">
<g>
	<path style="fill:#FFDA44;" d="M108,472h160l48-192H60L108,472z"/>
	<path style="fill:#FFDA44;" d="M252,8H124l16,80h96L252,8z"/>
	<path style="fill:#FFDA44;" d="M124,248h128l32-128H92L124,248z"/>
</g>
<g>
	<path style="fill:#231F20;" d="M140,96h96c3.802,0.001,7.08-2.675,7.84-6.4L258.56,16H324c4.418,0,8-3.582,8-8s-3.582-8-8-8H124
		c-4.418-0.001-8.001,3.58-8.002,7.998c0,0.538,0.054,1.075,0.162,1.602l16,80C132.92,93.325,136.198,96.001,140,96z M242.24,16
		l-12.8,64h-82.888l-12.8-64H242.24z"/>
	<path style="fill:#231F20;" d="M116.24,249.944c0.892,3.559,4.091,6.056,7.76,6.056h128c3.669,0,6.868-2.497,7.76-6.056L290.24,128
		H388c4.418,0,8-3.582,8-8s-3.582-8-8-8H92c-4.418,0-8,3.582-8,8c0,0.655,0.081,1.308,0.24,1.944L116.24,249.944z M273.752,128
		l-28,112H130.248l-28-112H273.752z"/>
	<path style="fill:#231F20;" d="M420,272H60c-4.418,0-8,3.582-8,8c0,0.655,0.081,1.308,0.24,1.944l48,192
		c0.892,3.559,4.091,6.056,7.76,6.056h160c3.669,0,6.868-2.497,7.76-6.056L322.24,288H420c4.418,0,8-3.582,8-8S424.418,272,420,272
		L420,272z M261.752,464H114.248l-44-176h235.504L261.752,464z"/>
	<path style="fill:#231F20;" d="M140,368h48v16h-48V368z"/>
	<path style="fill:#231F20;" d="M140,432h48v16h-48V432z"/>
	<path style="fill:#231F20;" d="M140,304h48v16h-48V304z"/>
	<path style="fill:#231F20;" d="M156,336h32v16h-32V336z"/>
	<path style="fill:#231F20;" d="M156,400h32v16h-32V400z"/>
	<path style="fill:#231F20;" d="M156,144h32v16h-32V144z"/>
	<path style="fill:#231F20;" d="M156,208h32v16h-32V208z"/>
	<path style="fill:#231F20;" d="M172,176h16v16h-16V176z"/>
	<path style="fill:#231F20;" d="M172,48h16v8h-16V48z"/>
	<path style="fill:#231F20;" d="M172,32h16v8h-16V32z"/>
	<path style="fill:#231F20;" d="M172,64h16v8h-16V64z"/>
</g>
<g>
</g>
<g>
</g>
<g>
</g>
<g>
</g>
<g>
</g>
<g>
</g>
<g>
</g>
<g>
</g>
<g>
</g>
<g>
</g>
<g>
</g>
<g>
</g>
<g>
</g>
<g>
</g>
<g>
</g>
</svg>
