<?xml version="1.0" encoding="iso-8859-1"?>
<!-- Generator: Adobe Illustrator 19.0.0, SVG Export Plug-In . SVG Version: 6.00 Build 0)  -->
<svg version="1.1" id="Capa_1" xmlns="http://www.w3.org/2000/svg" xmlns:xlink="http://www.w3.org/1999/xlink" x="0px" y="0px"
	 viewBox="0 0 480 480" style="enable-background:new 0 0 480 480;" xml:space="preserve">
<path style="fill:#754C29;" d="M41.355,472h384c8.837,0,16-7.163,16-16v-16h-416v16C25.355,464.837,32.518,472,41.355,472z"/>
<path style="fill:#414042;" d="M321.355,40V24V8h-176v16v16H321.355z"/>
<path style="fill:#C49A6C;" d="M441.355,392c0.059-31.041-6.886-61.696-20.32-89.68c-7.072-14.884-15.967-28.831-26.48-41.52
	c-7.567-9.461-16.004-18.192-25.2-26.08c-7.998-6.877-16.508-13.135-25.456-18.72H122.811c-60.724,37.877-97.578,104.431-97.456,176
	v48h416L441.355,392z"/>
<g>
	<path style="fill:#414042;" d="M122.811,216h221.088C276.378,173.333,190.331,173.333,122.811,216L122.811,216z"/>
	<circle style="fill:#414042;" cx="233.355" cy="168" r="16"/>
	<path style="fill:#414042;" d="M454.635,268.72l-34-34l-26.08,26.08c10.513,12.689,19.408,26.636,26.48,41.52L454.635,268.72z"/>
</g>
<path style="fill:#231F20;" d="M460.291,263.064l-34-34c-3.124-3.123-8.188-3.123-11.312,0l-20.024,20.048
	c-5.512-6.286-11.389-12.243-17.6-17.84V24c0-4.418-3.582-8-8-8h-40V8c0-4.418-3.582-8-8-8h-176c-4.418,0-8,3.582-8,8v8h-40
	c-4.418,0-8,3.582-8,8v207.2c-45.797,40.906-71.986,99.394-72,160.8v64c0,13.255,10.745,24,24,24h384c13.255,0,24-10.745,24-24v-64
	c0.064-30.306-6.337-60.277-18.776-87.912l29.712-29.688c3.13-3.118,3.14-8.183,0.022-11.314
	C460.306,263.079,460.298,263.071,460.291,263.064L460.291,263.064z M153.355,16h160v16h-160V16z M105.355,32h32v8
	c0,4.418,3.582,8,8,8h176c4.418,0,8-3.582,8-8v-8h32v186.064c-0.344-0.248-0.712-0.464-1.056-0.712
	c-1.696-1.24-3.472-2.344-5.2-3.528c-3.304-2.264-6.616-4.496-10.032-6.568c-2.064-1.256-4.192-2.4-6.296-3.576
	c-3.2-1.792-6.4-3.552-9.704-5.176c-2.264-1.128-4.56-2.168-6.864-3.2c-3.256-1.472-6.528-2.872-9.84-4.176
	c-2.373-0.933-4.773-1.827-7.2-2.68c-3.376-1.192-6.776-2.28-10.208-3.296c-2.4-0.72-4.8-1.44-7.248-2.072
	c-3.576-0.936-7.2-1.712-10.824-2.464c-2.336-0.48-4.656-1.016-7.016-1.416c-4-0.688-8.088-1.184-12.152-1.648
	c-0.752-0.08-1.496-0.224-2.256-0.304c1.245-2.925,1.89-6.069,1.896-9.248c0-13.255-10.745-24-24-24c-13.255,0-24,10.745-24,24
	c-0.003,3.174,0.631,6.316,1.864,9.24c-0.76,0.08-1.496,0.224-2.248,0.304c-4.072,0.464-8.136,0.96-12.16,1.648
	c-2.36,0.4-4.68,0.936-7.016,1.416c-3.632,0.744-7.24,1.528-10.824,2.464c-2.44,0.632-4.84,1.352-7.256,2.072
	c-3.424,1.024-6.824,2.104-10.192,3.288c-2.416,0.859-4.816,1.755-7.2,2.688c-3.304,1.304-6.56,2.696-9.792,4.16
	c-2.32,1.048-4.632,2.096-6.912,3.2c-3.272,1.6-6.464,3.368-9.648,5.16c-2.128,1.184-4.264,2.336-6.344,3.592
	c-3.4,2.064-6.696,4.288-9.984,6.544c-1.744,1.192-3.528,2.304-5.24,3.552c-0.344,0.248-0.712,0.464-1.056,0.712L105.355,32z
	 M233.355,192c26.757,0.136,53.221,5.574,77.864,16H155.491C180.11,197.498,206.59,192.057,233.355,192z M225.355,168
	c0-4.418,3.582-8,8-8s8,3.582,8,8s-3.582,8-8,8S225.355,172.418,225.355,168z M433.355,456c0,4.418-3.582,8-8,8h-384
	c-4.418,0-8-3.582-8-8v-8h400V456z M433.355,392v40h-400v-40c-0.259-68.067,34.44-131.503,91.896-168h216.208
	c2.88,1.864,5.816,3.632,8.616,5.648c4.8,3.477,9.477,7.181,14.032,11.112c8.851,7.598,16.972,16.008,24.256,25.12
	c10.095,12.189,18.638,25.585,25.432,39.88C426.753,332.658,433.441,362.144,433.355,392L433.355,392z M423.163,288.88
	c-0.112-0.216-0.256-0.408-0.368-0.624c-2.395-4.357-4.936-8.624-7.624-12.8c-0.64-0.984-1.328-1.928-1.984-2.896
	c-2.133-3.2-4.349-6.328-6.648-9.384c-0.44-0.584-0.8-1.208-1.264-1.784l15.36-15.368l22.688,22.688L423.163,288.88z"/>
<g>
</g>
<g>
</g>
<g>
</g>
<g>
</g>
<g>
</g>
<g>
</g>
<g>
</g>
<g>
</g>
<g>
</g>
<g>
</g>
<g>
</g>
<g>
</g>
<g>
</g>
<g>
</g>
<g>
</g>
</svg>
