<?xml version="1.0" encoding="iso-8859-1"?>
<!-- Generator: Adobe Illustrator 19.0.0, SVG Export Plug-In . SVG Version: 6.00 Build 0)  -->
<svg version="1.1" id="Capa_1" xmlns="http://www.w3.org/2000/svg" xmlns:xlink="http://www.w3.org/1999/xlink" x="0px" y="0px"
	 viewBox="0 0 480 480" style="enable-background:new 0 0 480 480;" xml:space="preserve">
<g>
	<path style="fill:#414042;" d="M179.999,312h16h64h16v-32h-96V312z"/>
	<path style="fill:#414042;" d="M211.999,248h-48v32h16h96h16v-32h-48H211.999z"/>
</g>
<g>
	<path style="fill:#ACABB1;" d="M179.999,312h-16l-32,160h32l32-160H179.999z"/>
	<path style="fill:#ACABB1;" d="M291.999,472h32l-32-160h-16h-16L291.999,472z"/>
	<path style="fill:#ACABB1;" d="M195.999,312l-32,160h128l-32-160H195.999z M227.999,392c-8.837,0-16-7.163-16-16s7.163-16,16-16
		c8.837,0,16,7.163,16,16S236.836,392,227.999,392z"/>
</g>
<g>
	<path style="fill:#414042;" d="M227.999,88V40h-16h-8l-72,48h48H227.999z"/>
	<path style="fill:#414042;" d="M227.999,88h48h48l-72-48h-8h-16V88z"/>
	<path style="fill:#414042;" d="M211.999,8v32h16h16V8H211.999z"/>
</g>
<g>
	<circle style="fill:#ACABB1;" cx="227.999" cy="376" r="16"/>
	<path style="fill:#ACABB1;" d="M243.999,248h48l25.6-128l6.4-32h-48L243.999,248z"/>
	<path style="fill:#ACABB1;" d="M211.999,248h32l32-160h-48h-48L211.999,248z"/>
</g>
<path style="fill:#414042;" d="M363.999,120v56l-32,104h32l32-104V88h-72l-6.4,32H363.999z"/>
<path style="fill:#ACABB1;" d="M179.999,88h-48l12,60l20,100h48L179.999,88z"/>
<path style="fill:#414042;" d="M83.999,88l60,60l-12-60H83.999z"/>
<g>
	<path style="fill:#231F20;" d="M227.999,400c13.255,0,24-10.745,24-24s-10.745-24-24-24c-13.255,0-24,10.745-24,24
		S214.744,400,227.999,400z M227.999,368c4.418,0,8,3.582,8,8s-3.582,8-8,8s-8-3.582-8-8S223.581,368,227.999,368z"/>
	<path style="fill:#231F20;" d="M395.999,80h-69.6l-69.96-46.656c-1.316-0.874-2.86-1.342-4.44-1.344V0h-48v32
		c-1.58,0.002-3.124,0.47-4.44,1.344L129.599,80h-45.6c-4.418,0.001-7.999,3.583-7.998,8.002c0,2.121,0.843,4.154,2.342,5.654
		l58.288,58.288l19.368,96.856V280c0,4.418,3.582,8,8,8h8v16h-8c-3.802-0.001-7.08,2.675-7.84,6.4l-32,160
		c-0.884,4.329,1.909,8.555,6.238,9.438c0.527,0.108,1.064,0.162,1.602,0.162h192c4.418,0.001,8.001-3.58,8.002-7.998
		c0-0.538-0.054-1.075-0.162-1.602l-32-160c-0.76-3.725-4.038-6.401-7.84-6.4h-8v-16h8c4.418,0,8-3.582,8-8v-31.2l24.16-120.8h31.84
		v46.8l-31.648,102.848c-1.299,4.223,1.071,8.699,5.294,9.998c0.762,0.235,1.556,0.354,2.354,0.354h32
		c3.513,0.001,6.615-2.29,7.648-5.648l32-104c0.233-0.762,0.352-1.555,0.352-2.352V88C403.999,83.582,400.417,80,395.999,80
		L395.999,80z M285.439,240h-31.68l28.8-144h31.68L285.439,240z M141.759,96h31.68l28.8,144h-31.68L141.759,96z M218.559,240
		l-28.8-144h76.48l-28.8,144H218.559z M297.599,80h-61.6V48h13.6L297.599,80z M219.999,16h16v16h-16V16z M206.399,48h13.6v32h-61.6
		L206.399,48z M103.311,96h22.128l5.536,27.664L103.311,96z M170.559,320h15.68l-28.8,144h-15.68L170.559,320z M253.439,320
		l28.8,144h-108.48l28.8-144H253.439z M314.239,464h-15.68l-28.8-144h15.68L314.239,464z M267.999,304h-80v-16h80V304z M283.999,272
		h-112v-16h112V272z M387.999,174.8L358.087,272h-15.256l28.8-93.648c0.238-0.761,0.362-1.554,0.368-2.352v-56c0-4.418-3.582-8-8-8
		h-36.64l3.2-16h57.44V174.8z"/>
</g>
<g>
</g>
<g>
</g>
<g>
</g>
<g>
</g>
<g>
</g>
<g>
</g>
<g>
</g>
<g>
</g>
<g>
</g>
<g>
</g>
<g>
</g>
<g>
</g>
<g>
</g>
<g>
</g>
<g>
</g>
</svg>
