<?xml version="1.0" encoding="iso-8859-1"?>
<!-- Generator: Adobe Illustrator 19.0.0, SVG Export Plug-In . SVG Version: 6.00 Build 0)  -->
<svg version="1.1" id="Capa_1" xmlns="http://www.w3.org/2000/svg" xmlns:xlink="http://www.w3.org/1999/xlink" x="0px" y="0px"
	 viewBox="0 0 479.976 479.976" style="enable-background:new 0 0 479.976 479.976;" xml:space="preserve">
<path style="fill:#414042;" d="M200,107.988v-32H8v32h8h176H200z"/>
<g>
	<path style="fill:#ACABB1;" d="M191.6,131.988c-1.115,11.281-4.634,22.193-10.32,32H248v-32H191.6z"/>
	<path style="fill:#ACABB1;" d="M40,283.988v16h32v-16c0-8.837,7.163-16,16-16h32c8.837,0,16,7.163,16,16v16h32v-16
		c0-26.51-21.49-48-48-48H88C61.49,235.988,40,257.478,40,283.988z"/>
	<path style="fill:#ACABB1;" d="M96,203.988c-2.72,0-5.36-0.16-8-0.4v32.4h32v-32.4c-2.64,0.24-5.28,0.4-8,0.4H96z"/>
	<path style="fill:#ACABB1;" d="M192,123.988v-16H16v16c0.022,41.077,31.131,75.47,72,79.6c2.64,0.24,5.28,0.4,8,0.4h16
		c2.72,0,5.36-0.16,8-0.4c37.856-3.804,67.796-33.744,71.6-71.6C191.84,129.348,192,126.708,192,123.988z"/>
</g>
<path style="fill:#603913;" d="M418.88,97.668L248,115.988v64l170.88,18.32c26.358,2.828,50.018-16.248,52.846-42.606
	c0.184-1.712,0.275-3.432,0.274-5.154v-5.12c0.019-26.51-21.456-48.015-47.966-48.034C422.312,97.393,420.592,97.484,418.88,97.668
	L418.88,97.668z"/>
<g>
	<path style="fill:#C49A6C;" d="M176,379.988c0-13.256-24-48-24-48s-24,34.744-24,48c0,13.255,10.745,24,24,24
		S176,393.243,176,379.988z"/>
	<path style="fill:#C49A6C;" d="M80,379.988c0-13.256-24-48-24-48s-24,34.744-24,48c0,13.255,10.745,24,24,24S80,393.243,80,379.988
		z"/>
</g>
<g>
	<path style="fill:#231F20;" d="M461.424,103.74C449.6,93.129,433.83,88.032,418.032,89.716l-170.88,18.32
		c-4.066,0.433-7.151,3.863-7.152,7.952v8h-40v-8c4.418,0,8-3.582,8-8v-32c0-4.418-3.582-8-8-8H8c-4.418,0-8,3.582-8,8v32
		c0,4.418,3.582,8,8,8v8c-0.144,42.476,30.203,78.937,72,86.504v18.136c-27.517,3.992-47.947,27.555-48,55.36v24h48v-24
		c0-4.418,3.582-8,8-8h32c4.418,0,8,3.582,8,8v24h48v-24c-0.053-27.805-20.483-51.367-48-55.36v-18.24
		c23.636-4.403,44.445-18.276,57.6-38.4H240v8c0.001,4.089,3.086,7.519,7.152,7.952l170.88,18.32
		c1.974,0.214,3.958,0.321,5.944,0.32c30.928,0,56-25.072,56-56v-5.12C479.982,129.553,473.24,114.39,461.424,103.74L461.424,103.74
		z M16,83.988h176v16H16V83.988z M112,227.988H96v-16h16V227.988z M160,283.988v8h-16v-8c0-13.255-10.745-24-24-24H88
		c-13.255,0-24,10.745-24,24v8H48v-8c0.026-22.08,17.92-39.974,40-40h32C142.08,244.014,159.974,261.908,160,283.988z
		 M119.264,195.62c-2.4,0.216-4.8,0.368-7.264,0.368H96c-2.472,0-4.864-0.152-7.264-0.368C51.903,192.031,23.855,160.995,24,123.988
		v-8h160v8c0,2.472-0.152,4.864-0.36,7.2c-0.241,2.51-0.621,5.004-1.136,7.472c-1.034,4.951-2.592,9.779-4.648,14.4
		c-1.049,2.354-2.219,4.653-3.504,6.888C162.776,179.988,142.286,193.256,119.264,195.62L119.264,195.62z M193.984,155.988
		c0.384-0.976,0.656-1.976,1-2.96c0.4-1.136,0.8-2.28,1.168-3.432c0.528-1.744,0.968-3.512,1.392-5.28
		c0.256-1.096,0.552-2.184,0.8-3.296c0.072-0.344,0.176-0.68,0.24-1.032H240v16L193.984,155.988z M464,150.548
		c0.038,22.091-17.841,40.03-39.932,40.068c-1.447,0.002-2.893-0.074-4.332-0.228L256,172.788v-49.6l163.736-17.6
		c21.966-2.355,41.681,13.542,44.036,35.508c0.154,1.439,0.23,2.885,0.228,4.332V150.548z"/>
	<path style="fill:#231F20;" d="M152,411.988c-17.673,0-32-14.327-32-32c0-14.992,21.168-46.4,25.416-52.544
		c2.795-3.636,8.008-4.318,11.644-1.524c0.572,0.44,1.084,0.952,1.524,1.524c4.248,6.144,25.416,37.552,25.416,52.544
		C184,397.661,169.673,411.988,152,411.988z M152,346.556c-8.528,13.6-16,28.136-16,33.432c0,8.837,7.163,16,16,16s16-7.163,16-16
		C168,374.684,160.536,360.18,152,346.556z"/>
	<path style="fill:#231F20;" d="M56,411.988c-17.673,0-32-14.327-32-32c0-14.992,21.168-46.4,25.416-52.544
		c2.795-3.636,8.008-4.318,11.644-1.524c0.572,0.44,1.084,0.952,1.524,1.524C66.832,333.588,88,364.996,88,379.988
		C88,397.661,73.673,411.988,56,411.988z M56,346.556c-8.528,13.632-16,28.136-16,33.432c0,8.837,7.163,16,16,16s16-7.163,16-16
		C72,374.684,64.536,360.18,56,346.556z"/>
</g>
<g>
</g>
<g>
</g>
<g>
</g>
<g>
</g>
<g>
</g>
<g>
</g>
<g>
</g>
<g>
</g>
<g>
</g>
<g>
</g>
<g>
</g>
<g>
</g>
<g>
</g>
<g>
</g>
<g>
</g>
</svg>
