<?xml version="1.0" encoding="iso-8859-1"?>
<!-- Generator: Adobe Illustrator 19.0.0, SVG Export Plug-In . SVG Version: 6.00 Build 0)  -->
<svg version="1.1" id="Capa_1" xmlns="http://www.w3.org/2000/svg" xmlns:xlink="http://www.w3.org/1999/xlink" x="0px" y="0px"
	 viewBox="0 0 487.85 487.85" style="enable-background:new 0 0 487.85 487.85;" xml:space="preserve">
<g>
	<path style="fill:#C49A6C;" d="M336.501,241.211c-17.802-6.991-36.351-11.904-55.28-14.64c-10.673-1.614-21.446-2.469-32.24-2.56
		c-14.154-0.348-28.311,0.508-42.32,2.56c-27.491,3.998-54.139,12.484-78.88,25.12c-23.969,12.207-45.868,28.108-64.896,47.12
		l181.04,181.04l181.04-181.04c-19.023-19.011-40.917-34.912-64.88-47.12C352.42,247.772,344.547,244.274,336.501,241.211
		L336.501,241.211z M243.333,445.299c0.592,0.592,153.328-152.144,153.328-152.144S243.925,445.891,243.333,445.299z"/>
	<path style="fill:#C49A6C;" d="M122.485,142.411c-21.914,11.833-41.991,26.789-59.6,44.4l64.88,64.88
		c24.741-12.636,51.389-21.122,78.88-25.12c14.009-2.052,28.166-2.908,42.32-2.56c10.794,0.091,21.567,0.946,32.24,2.56
		c18.929,2.736,37.478,7.649,55.28,14.64c32.104-32,60.16-60.064,60.16-60.064s-28.04,28.064-60.144,60.064
		c8.046,3.062,15.919,6.561,23.584,10.48l64.88-64.88c-17.609-17.611-37.686-32.567-59.6-44.4c-7.506-4.094-15.253-7.727-23.2-10.88
		C271.026,101.949,190.352,105.944,122.485,142.411L122.485,142.411z"/>
	<path style="fill:#C49A6C;" d="M62.885,82.811l59.6,59.6c67.868-36.467,148.541-40.463,219.68-10.88
		c29.68-29.6,54.48-54.4,54.48-54.4s-24.8,24.8-54.48,54.4c7.947,3.153,15.694,6.786,23.2,10.88l59.6-59.6
		C324.951-17.107,162.898-17.107,62.885,82.811L62.885,82.811z"/>
</g>
<g>
	<path style="fill:#231F20;" d="M311.981,366.355l-5.68,5.656c-3.133,3.119-3.143,8.187-0.024,11.32
		c3.119,3.133,8.187,3.143,11.32,0.024l0,0l5.68-5.656c3.133-3.119,3.143-8.187,0.024-11.32
		C320.181,363.247,315.113,363.236,311.981,366.355L311.981,366.355z"/>
	<path style="fill:#231F20;" d="M289.117,389.099l-5.6,5.52c-3.133,3.119-3.143,8.187-0.024,11.32
		c3.119,3.133,8.187,3.143,11.32,0.024l5.672-5.648c3.104-3.069,3.132-8.074,0.062-11.178c-0.021-0.021-0.041-0.042-0.062-0.062
		C297.331,385.961,292.257,385.972,289.117,389.099L289.117,389.099z"/>
	<path style="fill:#231F20;" d="M243.645,434.011c-2.544,2.464-4.272,4.136-5.04,4.8c-3.57,2.603-4.354,7.607-1.751,11.177
		c1.509,2.069,3.917,3.291,6.479,3.287c3.424,0,4-0.592,11.448-7.784c3.256-2.987,3.474-8.047,0.487-11.303
		c-2.987-3.256-8.047-3.474-11.303-0.487C243.855,433.801,243.749,433.905,243.645,434.011L243.645,434.011z"/>
	<path style="fill:#231F20;" d="M266.501,411.555l-5.704,5.6c-3.146,3.104-3.18,8.17-0.076,11.316
		c3.104,3.146,8.17,3.18,11.316,0.076l5.72-5.648c3.141-3.108,3.168-8.175,0.06-11.316s-8.175-3.168-11.316-0.06l0,0
		L266.501,411.555z"/>
	<path style="fill:#231F20;" d="M334.693,343.715l-5.672,5.656c-3.133,3.119-3.143,8.187-0.024,11.32
		c3.119,3.133,8.187,3.143,11.32,0.024l0,0l5.672-5.656c3.133-3.119,3.143-8.187,0.024-11.32
		C342.893,340.607,337.825,340.596,334.693,343.715L334.693,343.715z"/>
	<path style="fill:#231F20;" d="M380.093,317.707c2.124,0.002,4.162-0.842,5.664-2.344l5.68-5.68
		c3.07-3.178,2.982-8.242-0.196-11.312c-3.1-2.995-8.016-2.995-11.116,0l-5.688,5.68c-3.124,3.125-3.123,8.19,0.002,11.314
		C375.938,316.864,377.972,317.707,380.093,317.707z"/>
	<path style="fill:#231F20;" d="M351.733,326.715c-3.093,3.155-3.042,8.22,0.113,11.313c1.487,1.458,3.484,2.278,5.567,2.287
		c2.152-0.009,4.212-0.873,5.728-2.4l5.6-5.6c3.07-3.178,2.982-8.242-0.196-11.312c-3.1-2.995-8.016-2.995-11.116,0L351.733,326.715
		z"/>
	<path style="fill:#231F20;" d="M430.621,181.155c-15.679-15.592-33.248-29.162-52.296-40.392l52.296-52.296
		c3.123-3.124,3.123-8.188,0-11.312c-103.207-102.874-270.185-102.874-373.392,0c-3.123,3.124-3.123,8.188,0,11.312l52.296,52.296
		c-19.048,11.231-36.616,24.8-52.296,40.392c-3.123,3.124-3.123,8.188,0,11.312l57.416,57.416
		c-21.027,11.731-40.346,26.291-57.416,43.272c-3.123,3.124-3.123,8.188,0,11.312l181.04,181.04c3.124,3.123,8.188,3.123,11.312,0
		l181.04-181.04c3.123-3.124,3.123-8.188,0-11.312c-17.07-16.981-36.389-31.541-57.416-43.272l57.416-57.416
		C433.744,189.343,433.744,184.279,430.621,181.155L430.621,181.155z M397.733,69.347c-2.459-0.405-4.963,0.385-6.744,2.128
		l-5.664,5.656c-3.182,3.065-3.277,8.129-0.212,11.312c3.065,3.182,8.129,3.277,11.312,0.212c0.067-0.064,0.132-0.129,0.196-0.196
		l5.704-5.648c2.151-2.172,2.864-5.386,1.832-8.264c3.2,2.704,6.344,5.488,9.424,8.384l-49.688,49.688
		c-1.464-0.752-2.92-1.408-4.384-2.12c-1.112-0.536-2.216-1.096-3.32-1.6l0.8-0.8c3.069-3.178,2.982-8.243-0.196-11.312
		c-3.1-2.994-8.015-2.994-11.116,0l-5.48,5.472c-2.896-1.136-5.784-2.312-8.704-3.344c-1.6-0.56-3.2-1.016-4.8-1.544
		c-3.048-1.016-6.08-2.048-9.144-2.944c-1.928-0.568-3.88-1.024-5.816-1.544c-2.744-0.736-5.488-1.512-8.248-2.16
		c-2.088-0.488-4.184-0.872-6.28-1.304c-2.624-0.552-5.248-1.136-7.888-1.6c-2.168-0.392-4.344-0.664-6.52-0.992
		c-2.576-0.392-5.16-0.8-7.744-1.136c-2.192-0.264-4.392-0.424-6.592-0.64c-2.576-0.24-5.152-0.52-7.736-0.688
		c-2.208-0.144-4.424-0.192-6.64-0.288c-2.568-0.096-5.128-0.224-7.696-0.256c-2.224,0-4.448,0.04-6.68,0.08
		c-2.552,0-5.104,0.048-7.656,0.16c-2.224,0.104-4.432,0.288-6.656,0.44c-2.552,0.176-5.104,0.336-7.648,0.592
		c-2.208,0.216-4.408,0.52-6.608,0.8c-2.552,0.32-5.096,0.624-7.632,1.024c-2.192,0.336-4.376,0.752-6.568,1.152
		c-2.528,0.456-5.056,0.904-7.568,1.44c-2.176,0.464-4.344,0.992-6.512,1.512c-2.504,0.592-5.008,1.192-7.496,1.864
		c-2.16,0.584-4.304,1.224-6.448,1.864c-2.472,0.736-4.952,1.48-7.408,2.288c-2.128,0.704-4.248,1.464-6.4,2.224
		c-2.448,0.88-4.88,1.76-7.304,2.712c-2.104,0.8-4.184,1.696-6.264,2.576c-2.4,1.016-4.8,2.04-7.2,3.128
		c-2.064,0.952-4.112,1.944-6.168,2.944c-1.416,0.696-2.864,1.32-4.272,2.04L74.325,82.907
		C164.004-0.816,301.36-6.575,397.733,69.347L397.733,69.347z M243.925,468.539l-169.6-169.6
		c17.047-15.999,36.269-29.508,57.096-40.128c23.943-12.243,49.739-20.46,76.352-24.32c13.616-2,27.378-2.829,41.136-2.48
		c10.429,0.09,20.839,0.916,31.152,2.472c18.273,2.654,36.182,7.394,53.376,14.128h0.112h0.096
		c7.777,2.983,15.386,6.388,22.792,10.2c20.823,10.607,40.045,24.1,57.096,40.08L243.925,468.539z M358.485,242.011
		c-1.52-0.736-3.056-1.4-4.592-2.096c-1.128-0.52-2.24-1.04-3.376-1.544l-0.8-0.368c0.916-2.806,0.198-5.888-1.864-8
		c-3.122-3.126-8.188-3.129-11.314-0.006c-0.002,0.002-0.004,0.004-0.006,0.006l-2.08,2.072
		c-16.834-6.247-34.276-10.714-52.04-13.328c-10.994-1.659-22.09-2.541-33.208-2.64c-2.168-0.056-4.368-0.088-6.576-0.088
		c-0.456,0-0.928,0.048-1.384,0.048c-5.152,0.032-10.384,0.229-15.696,0.592c-1.04,0.072-2.088,0.168-3.136,0.248
		c-5.6,0.456-11.2,1.024-16.92,1.84c-6.933,1.024-13.781,2.315-20.544,3.872c-2.312,0.528-4.56,1.232-6.856,1.816
		c-4.408,1.136-8.8,2.256-13.16,3.608c-2.688,0.84-5.304,1.848-7.952,2.776c-3.848,1.336-7.696,2.656-11.472,4.176
		c-2.76,1.112-5.456,2.4-8.176,3.584s-5.352,2.216-8,3.488l-55.008-55.16c15.651-14.669,33.129-27.258,52-37.456
		c65.734-35.551,144.037-39.405,212.944-10.48c7.623,3.042,15.055,6.542,22.256,10.48c18.872,10.196,36.35,22.786,52,37.456
		L358.485,242.011z"/>
	<path style="fill:#231F20;" d="M353.525,212.947c-3.133,3.119-3.143,8.187-0.024,11.32c3.119,3.133,8.187,3.143,11.32,0.024
		l5.672-5.672c3.178-3.07,3.266-8.134,0.196-11.312c-3.07-3.178-8.134-3.266-11.312-0.196c-0.067,0.064-0.132,0.13-0.196,0.196
		L353.525,212.947z"/>
	<path style="fill:#231F20;" d="M381.821,203.987c2.118,0,4.149-0.84,5.648-2.336l5.672-5.664c3.178-3.07,3.266-8.134,0.196-11.312
		c-3.07-3.178-8.134-3.266-11.312-0.196c-0.067,0.064-0.132,0.13-0.196,0.196l-5.656,5.648c-3.128,3.12-3.135,8.186-0.014,11.314
		C377.659,203.141,379.696,203.987,381.821,203.987z"/>
	<path style="fill:#231F20;" d="M368.325,113.427c2.122,0,4.156-0.844,5.656-2.344l5.656-5.6c3.133-3.119,3.143-8.187,0.024-11.32
		c-3.119-3.133-8.187-3.143-11.32-0.024l-5.672,5.672c-3.124,3.125-3.123,8.19,0.002,11.314c1.5,1.499,3.534,2.342,5.654,2.342
		L368.325,113.427z"/>
</g>
<g>
</g>
<g>
</g>
<g>
</g>
<g>
</g>
<g>
</g>
<g>
</g>
<g>
</g>
<g>
</g>
<g>
</g>
<g>
</g>
<g>
</g>
<g>
</g>
<g>
</g>
<g>
</g>
<g>
</g>
</svg>
