<?xml version="1.0" encoding="iso-8859-1"?>
<!-- Generator: Adobe Illustrator 19.0.0, SVG Export Plug-In . SVG Version: 6.00 Build 0)  -->
<svg version="1.1" id="Capa_1" xmlns="http://www.w3.org/2000/svg" xmlns:xlink="http://www.w3.org/1999/xlink" x="0px" y="0px"
	 viewBox="0 0 480.001 480.001" style="enable-background:new 0 0 480.001 480.001;" xml:space="preserve">
<path style="fill:#C49A6C;" d="M104,472h272L360,72H120L104,472z M160,152h160v272H160V152z"/>
<path style="fill:#A97C50;" d="M120,16h240v56H120V16z"/>
<path style="fill:#FFAF46;" d="M320,152H160v272h160V152z M206.72,305.28c-12.248-12.256-7.288-37.088,11.096-55.464
	s43.2-23.344,55.464-11.096s7.288,37.088-11.096,55.464S218.976,317.529,206.72,305.28L206.72,305.28z"/>
<path style="fill:#8B5E3C;" d="M273.28,238.72c-12.256-12.248-37.088-7.288-55.464,11.096s-23.344,43.2-11.096,55.464
	s37.088,7.288,55.464-11.096S285.528,250.976,273.28,238.72L273.28,238.72z M211.68,300.32l56.576-56.576L211.68,300.32z"/>
<g>
	<path style="fill:#231F20;" d="M368,71.872V8h-0.136c0.058-2.496-1.074-4.872-3.048-6.4c-3.535-2.651-8.549-1.935-11.2,1.6
		c0,0,0,0,0,0L349.992,8h-4.072l-3.632-4.8c-2.651-3.535-7.665-4.251-11.2-1.6c-0.606,0.455-1.145,0.994-1.6,1.6L325.872,8h-4
		l-3.6-4.8c-2.651-3.535-7.665-4.251-11.2-1.6c-0.606,0.455-1.145,0.994-1.6,1.6L301.864,8h-4l-3.608-4.8
		c-2.651-3.535-7.665-4.251-11.2-1.6c-0.606,0.455-1.145,0.994-1.6,1.6l-3.6,4.8h-4l-3.6-4.8c-1.511-2.014-3.882-3.2-6.4-3.2
		c-2.518,0-4.889,1.186-6.4,3.2L253.872,8h-4l-3.592-4.8c-2.651-3.535-7.665-4.251-11.2-1.6c-0.606,0.455-1.145,0.994-1.6,1.6
		L229.872,8h-4l-3.6-4.8c-2.651-3.535-7.665-4.251-11.2-1.6c-0.606,0.455-1.145,0.994-1.6,1.6L205.88,8h-4l-3.592-4.8
		c-2.651-3.535-7.665-4.251-11.2-1.6c-0.606,0.455-1.145,0.994-1.6,1.6L181.92,8h-4l-3.592-4.8
		c-2.922-3.535-8.157-4.031-11.691-1.109c-0.404,0.334-0.775,0.705-1.109,1.109L157.944,8h-4L150.4,3.2
		c-2.651-3.535-7.665-4.251-11.2-1.6c-0.606,0.455-1.145,0.994-1.6,1.6L134.008,8h-4L126.4,3.2c-2.651-3.535-7.665-4.251-11.2-1.6
		c-1.979,1.527-3.119,3.901-3.072,6.4H112v63.872L96,471.681c-0.177,4.415,3.259,8.137,7.674,8.314
		c0.109,0.004,0.218,0.007,0.326,0.006h272c4.418,0.004,8.003-3.575,8.006-7.994c0-0.109-0.002-0.218-0.006-0.326L368,71.872z
		 M128,30.832c1.204,0.742,2.586,1.146,4,1.168c2.518,0,4.889-1.186,6.4-3.2L142,24h4l3.584,4.8
		c2.922,3.535,8.157,4.031,11.691,1.109c0.404-0.334,0.775-0.705,1.109-1.109l3.592-4.8h4l3.584,4.8
		c2.651,3.535,7.665,4.251,11.2,1.6c0.606-0.455,1.145-0.994,1.6-1.6l3.6-4.8h4l3.6,4.8c2.651,3.535,7.665,4.251,11.2,1.6
		c0.606-0.455,1.145-0.994,1.6-1.6l3.6-4.8h4l3.6,4.8c2.651,3.535,7.665,4.251,11.2,1.6c0.606-0.455,1.145-0.994,1.6-1.6l3.6-4.8h4
		l3.592,4.8c2.901,3.535,8.119,4.048,11.653,1.147c0.419-0.344,0.803-0.728,1.147-1.147l3.584-4.8h4l3.608,4.8
		c2.651,3.535,7.665,4.251,11.2,1.6c0.606-0.455,1.145-0.994,1.6-1.6l3.6-4.8h4l3.6,4.8c2.651,3.535,7.665,4.251,11.2,1.6
		c0.606-0.455,1.145-0.994,1.6-1.6l3.608-4.8h4l3.608,4.8c1.511,2.014,3.882,3.2,6.4,3.2c2.518,0,4.889-1.186,6.4-3.2l3.624-4.8
		h4.056l3.624,4.8c2.564,3.049,6.94,3.83,10.4,1.856V64H128V30.832z M112.328,464l15.36-384h224.624l15.36,384H112.328z"/>
	<path style="fill:#231F20;" d="M152,432h176V144H152V432z M168,160h144v256H168V160z"/>
	<path style="fill:#231F20;" d="M212.16,244.16c-21.832,21.84-26.704,51.2-11.096,66.776c6.305,6.099,14.808,9.391,23.576,9.128
		c16.479-0.878,31.971-8.131,43.2-20.224c21.832-21.84,26.704-51.2,11.096-66.776S233.984,222.328,212.16,244.16L212.16,244.16z
		 M223.472,255.472c8.315-9.011,19.721-14.556,31.944-15.528c4.488-0.217,8.877,1.374,12.184,4.416
		c-8.652,8.92-19.147,15.844-30.752,20.288c-10.243,3.985-19.755,9.637-28.152,16.728
		C211.045,271.507,216.172,262.517,223.472,255.472L223.472,255.472z M256.528,288.529c-14.96,14.968-35.2,20-44.128,11.112
		c8.652-8.92,19.147-15.844,30.752-20.288c10.243-3.985,19.755-9.637,28.152-16.728
		C268.956,272.494,263.828,281.484,256.528,288.529L256.528,288.529z"/>
	<path style="fill:#231F20;" d="M200,384h32v16h-32V384z"/>
	<path style="fill:#231F20;" d="M240,384h16v16h-16V384z"/>
	<path style="fill:#231F20;" d="M264,384h16v16h-16V384z"/>
</g>
<g>
</g>
<g>
</g>
<g>
</g>
<g>
</g>
<g>
</g>
<g>
</g>
<g>
</g>
<g>
</g>
<g>
</g>
<g>
</g>
<g>
</g>
<g>
</g>
<g>
</g>
<g>
</g>
<g>
</g>
</svg>
