<?xml version="1.0" encoding="iso-8859-1"?>
<!-- Generator: Adobe Illustrator 19.0.0, SVG Export Plug-In . SVG Version: 6.00 Build 0)  -->
<svg version="1.1" id="Capa_1" xmlns="http://www.w3.org/2000/svg" xmlns:xlink="http://www.w3.org/1999/xlink" x="0px" y="0px"
	 viewBox="0 0 480.001 480.001" style="enable-background:new 0 0 480.001 480.001;" xml:space="preserve">
<path style="fill:#754C29;" d="M344.013,200.001c0-8.837-7.163-16-16-16h-176c-8.837,0-16,7.163-16,16s7.163,16,16,16h176
	C336.85,216.001,344.013,208.837,344.013,200.001z"/>
<g>
	<path style="fill:#FFAF46;" d="M344.013,280.001l-16-64h-176l-16,64h16h176H344.013z"/>
	<path style="fill:#FFAF46;" d="M344.013,120.001h-16h-168h-8h-16l16,64h176L344.013,120.001z"/>
</g>
<path style="fill:#754C29;" d="M154.79,472.001h170.448c17.673-0.001,31.999-14.328,31.998-32.002c0-0.886-0.037-1.772-0.11-2.654
	l-22.248-128.256l-50.544,16.8l-44.32-15.352l-44.6,16.664l-50.8-15.2l-21.712,125.344c-1.467,17.612,11.621,33.079,29.234,34.546
	C153.018,471.964,153.904,472.001,154.79,472.001L154.79,472.001z"/>
<g>
	<path style="fill:#E6E7E8;" d="M328.013,120.001l0.8-5.6l10.64-74.24l-60.16-32.16l-39.52,37.12l-79.76,74.88H328.013z"/>
	<path style="fill:#E6E7E8;" d="M239.773,45.121l-71.76-37.12l-16,112h8L239.773,45.121z"/>
</g>
<path style="fill:#231F20;" d="M337.613,288.001h6.4c4.418,0,8-3.582,8-8c0-0.655-0.081-1.308-0.24-1.944l-14.04-56.16
	c12.093-5.329,17.576-19.453,12.246-31.546c-2.41-5.468-6.778-9.837-12.246-12.246l14.04-56.16c1.074-4.286-1.53-8.631-5.816-9.704
	c-0.636-0.159-1.288-0.24-1.944-0.24h-6.776l10.136-70.704c0.476-3.334-1.187-6.609-4.16-8.192l-60.16-32.16
	c-3.026-1.618-6.747-1.125-9.248,1.224l-35.392,33.24L171.686,0.897c-3.925-2.029-8.751-0.492-10.78,3.433
	c-0.41,0.794-0.685,1.65-0.812,2.535l-15.016,105.136h-9.064c-4.418,0-8,3.582-8,8c0,0.655,0.081,1.308,0.24,1.944l14.04,56.16
	c-12.093,5.329-17.576,19.453-12.246,31.546c2.41,5.468,6.778,9.837,12.246,12.246l-14.04,56.16
	c-1.074,4.286,1.53,8.631,5.816,9.704c0.636,0.159,1.288,0.24,1.944,0.24h6.4l-27.488,148.68
	c-1.834,22.015,14.527,41.348,36.542,43.182c1.105,0.092,2.213,0.138,3.322,0.138h170.448c22.06,0.019,39.959-17.849,39.978-39.91
	c0.001-1.404-0.072-2.806-0.218-4.202L337.613,288.001z M146.262,272.001l12-48h163.504l12,48H146.262z M144.014,200.001
	c0-4.418,3.582-8,8-8h176c4.418,0,8,3.582,8,8s-3.582,8-8,8h-176C147.595,208.001,144.014,204.419,144.014,200.001z
	 M333.766,128.001l-12,48H158.262l-12-48H333.766z M280.59,17.761l50.152,26.816l-9.664,67.424H180.222l65.024-61.048L280.59,17.761
	z M174.342,20.281l51.704,26.744l-64.128,60.216L174.342,20.281z M321.358,288.001l3,16.176c-8.463,0.679-16.512,3.944-23.056,9.352
	c-9.93,8.625-24.694,8.625-34.624,0c-15.54-12.703-37.876-12.703-53.416,0c-9.907,8.631-24.661,8.631-34.568,0
	c-6.532-5.404-14.567-8.668-23.016-9.352l2.992-16.176H321.358z M342.902,456.249c-4.526,4.967-10.944,7.784-17.664,7.752H154.79
	c-13.303-0.034-24.06-10.847-24.026-24.15c0.001-0.35,0.009-0.7,0.026-1.05l21.944-118.736c6.108,0.071,11.985,2.343,16.552,6.4
	c15.53,12.705,37.862,12.705,53.392,0c9.92-8.628,24.68-8.628,34.6,0c15.542,12.704,37.882,12.704,53.424,0
	c4.585-4.059,10.477-6.331,16.6-6.4l21.856,117.944C349.747,444.7,347.474,451.328,342.902,456.249z"/>
<g>
</g>
<g>
</g>
<g>
</g>
<g>
</g>
<g>
</g>
<g>
</g>
<g>
</g>
<g>
</g>
<g>
</g>
<g>
</g>
<g>
</g>
<g>
</g>
<g>
</g>
<g>
</g>
<g>
</g>
</svg>
