<?xml version="1.0" encoding="iso-8859-1"?>
<!-- Generator: Adobe Illustrator 19.0.0, SVG Export Plug-In . SVG Version: 6.00 Build 0)  -->
<svg version="1.1" id="Capa_1" xmlns="http://www.w3.org/2000/svg" xmlns:xlink="http://www.w3.org/1999/xlink" x="0px" y="0px"
	 viewBox="0 0 480 480" style="enable-background:new 0 0 480 480;" xml:space="preserve">
<g>
	<path style="fill:#ACABB1;" d="M224,248h136V72c0-35.346-28.654-64-64-64H184c-35.346,0-64,28.654-64,64v176H224z M212.104,68.104
		c21.6-21.6,51.544-26.568,66.952-11.16L279.6,56.4l-0.544,0.544c15.408,15.408,10.4,45.384-11.16,66.952
		s-51.544,26.568-66.952,11.2l-0.544,0.544l0.544-0.544C185.536,119.648,190.536,89.672,212.104,68.104z M176,184h128v32H176V184z"
		/>
	<path style="fill:#ACABB1;" d="M184,392v-64h112v64c0,26.51-21.49,48-48,48h184V152c0-8.837-7.163-16-16-16h-56v112H256v32h-32v-32
		H120V136H64c-8.837,0-16,7.163-16,16v288h184C205.49,440,184,418.51,184,392z"/>
</g>
<path style="fill:#414042;" d="M248,440h-16H48v32h384v-32H248z"/>
<path style="fill:#C49A6C;" d="M296,392v-64H184v64c0,26.51,21.49,48,48,48h16C274.51,440,296,418.51,296,392z"/>
<path style="fill:#414042;" d="M224,248h32v32h-32V248z"/>
<path style="fill:#FFAF46;" d="M176,184h128v32H176V184z"/>
<g>
	<path style="fill:#8B5E3C;" d="M279.056,56.944c-15.408-15.408-45.384-10.4-66.952,11.16s-26.568,51.544-11.2,66.952
		L279.056,56.944z"/>
	<path style="fill:#8B5E3C;" d="M200.944,135.056c15.408,15.408,45.384,10.4,66.952-11.2s26.568-51.544,11.16-66.952l-78.112,78.112
		V135.056z"/>
</g>
<g>
	<path style="fill:#231F20;" d="M176,224h128c4.418,0,8-3.582,8-8v-32c0-4.418-3.582-8-8-8H176c-4.418,0-8,3.582-8,8v32
		C168,220.418,171.582,224,176,224z M184,192h112v16H184V192z"/>
	<path style="fill:#231F20;" d="M224.288,152c3.062-0.011,6.118-0.278,9.136-0.8c15.29-2.919,29.305-10.491,40.128-21.68
		c11.192-10.82,18.764-24.836,21.68-40.128c3.002-13.669-0.934-27.939-10.52-38.136c-10.205-9.57-24.477-13.483-38.136-10.456
		c-15.29,2.919-29.305,10.491-40.128,21.68c-11.192,10.82-18.764,24.836-21.68,40.128c-3.002,13.669,0.934,27.939,10.52,38.136
		C203.04,148.255,213.499,152.314,224.288,152L224.288,152z M279.488,86.784c-2.372,12-8.383,22.978-17.216,31.44
		c-18.04,18.04-43.4,23.2-55.512,11.248c11.086-10.527,23.595-19.446,37.16-26.496c12.939-6.791,25.001-15.136,35.92-24.848
		c0.215,2.896,0.086,5.807-0.384,8.672L279.488,86.784z M200.576,105.184c2.372-12,8.383-22.978,17.216-31.44
		c9.917-10.534,23.492-16.87,37.936-17.704c6.49-0.271,12.821,2.049,17.6,6.448c-11.088,10.53-23.6,19.452-37.168,26.504
		c-12.939,6.791-25.001,15.136-35.92,24.848c-0.239-2.882-0.137-5.782,0.304-8.64L200.576,105.184z"/>
	<path style="fill:#231F20;" d="M440,464V152c0-13.255-10.745-24-24-24h-48V72c-0.044-39.746-32.254-71.956-72-72H184
		c-39.746,0.044-71.956,32.254-72,72v56H64c-13.255,0-24,10.745-24,24v312H0v16h480v-16H440z M128,72
		c0.035-30.913,25.087-55.965,56-56h112c30.913,0.035,55.965,25.087,56,56v168H128V72z M232,256h16v16h-16V256z M64,144h48v104
		c0,4.418,3.582,8,8,8h96v24c0,4.418,3.582,8,8,8h32c4.418,0,8-3.582,8-8v-24h96c4.418,0,8-3.582,8-8V144h48c4.418,0,8,3.582,8,8
		v280H287.112c10.8-10.506,16.892-24.933,16.888-40v-64c0-4.418-3.582-8-8-8H184c-4.418,0-8,3.582-8,8v64
		c-0.004,15.067,6.088,29.494,16.888,40H56V152C56,147.582,59.582,144,64,144z M192,392v-56h96v56c-0.026,22.08-17.92,39.974-40,40
		h-16C209.92,431.974,192.026,414.08,192,392z M56,464v-16h368v16H56z"/>
</g>
<g>
</g>
<g>
</g>
<g>
</g>
<g>
</g>
<g>
</g>
<g>
</g>
<g>
</g>
<g>
</g>
<g>
</g>
<g>
</g>
<g>
</g>
<g>
</g>
<g>
</g>
<g>
</g>
<g>
</g>
</svg>
