<?xml version="1.0" encoding="iso-8859-1"?>
<!-- Generator: Adobe Illustrator 19.0.0, SVG Export Plug-In . SVG Version: 6.00 Build 0)  -->
<svg version="1.1" id="Capa_1" xmlns="http://www.w3.org/2000/svg" xmlns:xlink="http://www.w3.org/1999/xlink" x="0px" y="0px"
	 viewBox="0 0 480.06 480.06" style="enable-background:new 0 0 480.06 480.06;" xml:space="preserve">
<g>
	<path style="fill:#FFEB99;" d="M40.009,164.346c-5.736-2.754-10.832-6.678-14.96-11.52c-24.335,59.928-22.537,127.296,4.96,185.84
		l10-66.64V164.346z"/>
	<path style="fill:#FFEB99;" d="M240.009,8.026c-54.126-0.118-106.571,18.799-148.16,53.44c8.142,12.686,12.371,27.487,12.16,42.56
		c0,27.92-13.36,51.6-32,60.32v107.68l18.48,123.28c1.004,6.629-0.116,13.406-3.2,19.36
		c96.451,84.348,243.017,74.536,327.365-21.915s74.536-243.017-21.915-327.365C350.452,28.406,296.185,8.025,240.009,8.026z
		 M240.009,440.026c-42.081,0.028-83.094-13.241-117.184-37.912c74.931,54.184,177.25,49.882,247.368-10.4
		C334.002,422.918,287.795,440.065,240.009,440.026L240.009,440.026z M393.609,368.026c4.267-5.12,8.285-10.453,12.056-16
		C401.895,357.562,397.876,362.895,393.609,368.026z M440.009,240.026c-0.065,8.809-7.191,15.935-16,16h-40.88
		c-8.837,79.037-80.072,135.945-159.108,127.108c-79.037-8.837-135.945-80.072-127.108-159.108S176.984,88.081,256.021,96.918
		c66.86,7.475,119.633,60.249,127.108,127.108h40.88C432.835,224.052,439.983,231.2,440.009,240.026z"/>
</g>
<path style="fill:#A97C50;" d="M383.129,224.026c-8.837-79.037-80.072-135.945-159.108-127.108S88.076,176.99,96.913,256.026
	s80.072,135.945,159.108,127.108c66.86-7.475,119.633-60.249,127.108-127.108C384.303,245.392,384.303,234.66,383.129,224.026z
	 M240.009,352.026c-61.856,0-112-50.144-112-112s50.144-112,112-112s112,50.144,112,112S301.865,352.026,240.009,352.026z"/>
<path style="fill:#754C29;" d="M240.009,128.026c-61.856,0-112,50.144-112,112s50.144,112,112,112s112-50.144,112-112
	S301.865,128.026,240.009,128.026z M240.009,160.026c44.163,0.048,79.952,35.837,80,80
	C319.961,195.863,284.172,160.075,240.009,160.026z"/>
<path style="fill:#A97C50;" d="M384.009,240.026c-0.01,5.345-0.303,10.686-0.88,16h40.88c8.809-0.065,15.935-7.191,16-16
	c-0.026-8.826-7.174-15.974-16-16h-40.88C383.706,229.34,384,234.681,384.009,240.026z"/>
<path style="fill:#FFAF46;" d="M90.489,395.306l-18.48-123.28v-107.68c18.64-8.72,32-32.4,32-60.32
	c0.211-15.073-4.018-29.874-12.16-42.56c-7.578-12.722-21.047-20.78-35.84-21.44c-26.48,0-48,28.64-48,64
	c-0.431,17.796,5.626,35.14,17.04,48.8c4.128,4.842,9.224,8.766,14.96,11.52v107.68l-10,66.64l-8.48,56.64
	c-2.607,17.48,9.45,33.763,26.93,36.37c1.546,0.231,3.107,0.348,4.67,0.35h5.76c17.673-0.028,31.978-14.377,31.95-32.05
	C90.837,398.413,90.72,396.852,90.489,395.306L90.489,395.306z"/>
<g>
	<path style="fill:#231F20;" d="M240.009,0.026c-53.148,0.001-104.792,17.643-146.832,50.16
		c-9.161-11.168-22.728-17.797-37.168-18.16c-30.872,0-56,32.296-56,72c-0.27,18.026,5.323,35.651,15.936,50.224
		c-23.109,60.108-21.013,126.994,5.816,185.536l-8.152,54.344c-3.256,21.85,11.817,42.203,33.667,45.459
		c1.938,0.289,3.894,0.435,5.853,0.437h5.76c11.493,0.026,22.432-4.936,29.984-13.6c102.946,83.494,254.085,67.725,337.579-35.221
		s67.725-254.085-35.221-337.579C348.465,18.941,295.073,0.016,240.009,0.026z M26.505,308.074
		c-14.596-46.106-13.954-95.687,1.832-141.4c1.2,0.872,2.4,1.696,3.672,2.456v102.304L26.505,308.074z M58.889,424.026h-5.76
		c-13.228-0.002-23.95-10.727-23.948-23.956c0-1.196,0.09-2.39,0.268-3.572L47.921,273.21c0.058-0.392,0.087-0.788,0.088-1.184
		v-107.68c0-3.114-1.807-5.945-4.632-7.256c-4.749-2.302-8.965-5.572-12.376-9.6c-10.082-12.202-15.407-27.641-14.992-43.464
		c0-30.872,17.944-56,40-56c12.11,0.699,23.067,7.41,29.192,17.88c7.248,11.379,11.005,24.631,10.808,38.12
		c0,24.088-11.008,45.416-27.392,53.072c-2.813,1.317-4.609,4.142-4.608,7.248v107.68c0.001,0.396,0.03,0.792,0.088,1.184
		l18.472,123.288c1.949,13.111-7.1,25.319-20.211,27.267C61.21,423.936,60.05,424.023,58.889,424.026z M240.009,464.026
		c-52.278,0.037-102.916-18.247-143.112-51.672c0.551-1.731,0.982-3.498,1.288-5.288c0.096-0.512,0.152-1.024,0.216-1.536
		c0.2-1.389,0.321-2.789,0.36-4.192c0-0.536,0.048-1.064,0.04-1.6c-0.003-1.874-0.136-3.745-0.4-5.6L80.009,271.434V169.13
		c19.328-11.696,32-37.104,32-65.104c-0.008-3.986-0.275-7.968-0.8-11.92c-0.16-1.256-0.448-2.464-0.656-3.712
		c-0.456-2.648-0.976-5.264-1.656-7.816c-0.376-1.392-0.8-2.728-1.248-4.08c-0.752-2.352-1.6-4.632-2.528-6.872
		c-0.552-1.312-1.12-2.6-1.736-3.864c-0.384-0.8-0.68-1.648-1.088-2.4c97.569-76.059,238.322-58.621,314.38,38.948
		s58.621,238.322-38.948,314.38C338.377,447.368,289.907,464.027,240.009,464.026z"/>
	<path style="fill:#231F20;" d="M364.977,385.666c-67.314,57.866-165.538,61.989-237.464,9.968
		c-3.647-2.495-8.625-1.561-11.12,2.085c-2.4,3.508-1.638,8.281,1.736,10.867c77.921,56.368,184.338,51.91,257.272-10.776
		c3.245-2.998,3.445-8.06,0.447-11.305c-2.84-3.074-7.569-3.439-10.847-0.839L364.977,385.666z"/>
	<path style="fill:#231F20;" d="M399.017,347.53c-3.592,5.296-7.496,10.464-11.584,15.368c-2.859,3.369-2.445,8.417,0.923,11.276
		s8.417,2.445,11.276-0.923c0.027-0.032,0.054-0.064,0.081-0.097c4.455-5.331,8.639-10.882,12.536-16.632
		c2.428-3.691,1.404-8.652-2.288-11.08C406.349,343.066,401.502,343.991,399.017,347.53L399.017,347.53z"/>
	<path style="fill:#231F20;" d="M240.009,120.026c-66.274,0-120,53.726-120,120s53.726,120,120,120s120-53.726,120-120
		C359.934,173.783,306.252,120.101,240.009,120.026z M240.009,344.026c-57.438,0-104-46.562-104-104s46.562-104,104-104
		s104,46.562,104,104C343.943,297.436,297.419,343.96,240.009,344.026z"/>
	<path style="fill:#231F20;" d="M240.009,152.026c-4.418,0-8,3.582-8,8s3.582,8,8,8c39.746,0.044,71.956,32.254,72,72
		c0,4.418,3.582,8,8,8s8-3.582,8-8C327.952,191.449,288.587,152.083,240.009,152.026z"/>
	<path style="fill:#231F20;" d="M424.009,216.026h-34.056C376.698,133.132,298.754,76.678,215.86,89.933
		S76.512,181.132,89.767,264.026s91.199,139.348,174.093,126.093c64.861-10.371,115.722-61.232,126.093-126.093h34.056
		c13.228-0.066,23.934-10.772,24-24C448.009,226.771,437.264,216.026,424.009,216.026z M240.009,376.026
		c-75.111-0.025-135.98-60.934-135.955-136.045s60.934-135.98,136.045-135.955c69.236,0.023,127.405,52.058,135.11,120.864
		c1.109,10.055,1.109,20.201,0,30.256C367.587,324.034,309.318,376.132,240.009,376.026z M429.553,245.73
		c-1.46,1.486-3.461,2.315-5.544,2.296h-32.208c0.136-2.696,0.208-5.352,0.208-8s-0.072-5.304-0.208-8h32.208c4.418,0,8,3.582,8,8
		C432.014,242.185,431.125,244.25,429.553,245.73z"/>
</g>
<g>
</g>
<g>
</g>
<g>
</g>
<g>
</g>
<g>
</g>
<g>
</g>
<g>
</g>
<g>
</g>
<g>
</g>
<g>
</g>
<g>
</g>
<g>
</g>
<g>
</g>
<g>
</g>
<g>
</g>
</svg>
