<?xml version="1.0" encoding="iso-8859-1"?>
<!-- Generator: Adobe Illustrator 19.0.0, SVG Export Plug-In . SVG Version: 6.00 Build 0)  -->
<svg version="1.1" id="Capa_1" xmlns="http://www.w3.org/2000/svg" xmlns:xlink="http://www.w3.org/1999/xlink" x="0px" y="0px"
	 viewBox="0 0 480 480" style="enable-background:new 0 0 480 480;" xml:space="preserve">
<g>
	<path style="fill:#8B5E3C;" d="M104,8h272v48H104V8z"/>
	<path style="fill:#8B5E3C;" d="M104,424h272v48H104V424z"/>
</g>
<path style="fill:#C49A6C;" d="M144,240c-0.716,63.411-14.325,126.014-40,184h272c-25.675-57.986-39.284-120.589-40-184
	c0.716-63.411,14.325-126.014,40-184H104C129.675,113.986,143.284,176.589,144,240z M212.104,212.104
	c21.6-21.6,51.544-26.568,66.952-11.2l0.544-0.544l-0.544,0.544c15.408,15.408,10.4,45.384-11.16,66.952
	s-51.544,26.568-66.952,11.16l-0.544,0.544l0.544-0.544C185.536,263.648,190.536,233.672,212.104,212.104L212.104,212.104z"/>
<g>
	<path style="fill:#A97C50;" d="M376,424c25.675-57.986,39.284-120.589,40-184c-0.716-63.411-14.325-126.014-40-184
		c-25.675,57.986-39.284,120.588-40,184C336.716,303.411,350.325,366.014,376,424z"/>
	<path style="fill:#A97C50;" d="M104,56c-25.675,57.986-39.284,120.588-40,184c0.716,63.411,14.325,126.014,40,184
		c25.675-57.986,39.284-120.589,40-184C143.284,176.589,129.675,113.986,104,56z"/>
</g>
<g>
	<path style="fill:#754C29;" d="M200.944,279.056c15.408,15.408,45.384,10.4,66.952-11.16s26.568-51.544,11.16-66.952
		L200.944,279.056z"/>
	<path style="fill:#754C29;" d="M279.056,200.944c-15.408-15.408-45.384-10.4-66.952,11.2c-21.568,21.6-26.568,51.544-11.2,66.952
		L279.056,200.944z"/>
</g>
<g>
	<path style="fill:#231F20;" d="M424,240c-0.633-63.998-14.241-127.203-40-185.792V8c0-4.418-3.582-8-8-8H104c-4.418,0-8,3.582-8,8
		v46.208C70.24,112.797,56.633,176.002,56,240c0.633,63.998,14.241,127.203,40,185.792V472c0,4.418,3.582,8,8,8h272
		c4.418,0,8-3.582,8-8v-46.208C409.76,367.203,423.367,303.998,424,240L424,240z M116.44,415.616
		c0.624-1.504,1.288-3.112,1.992-4.88l0.216-0.552c0.656-1.656,1.344-3.432,2.064-5.296c0.128-0.344,0.256-0.672,0.392-1.024
		c0.752-2,1.536-4.12,2.344-6.344l0.504-1.408c0.8-2.176,1.6-4.432,2.4-6.808l0.216-0.624c0.856-2.512,1.72-5.16,2.592-7.88
		l0.56-1.768c0.88-2.776,1.76-5.6,2.64-8.608c0.096-0.32,0.184-0.648,0.28-0.96c0.805-2.757,1.605-5.6,2.4-8.528
		c0.176-0.632,0.344-1.256,0.52-1.904c0.853-3.147,1.693-6.379,2.52-9.696l0.48-1.952c0.763-3.115,1.504-6.288,2.224-9.52
		c0.104-0.464,0.216-0.912,0.32-1.384c0.8-3.528,1.528-7.152,2.256-10.824c0.16-0.8,0.312-1.6,0.472-2.448
		c0.72-3.776,1.424-7.6,2.08-11.512l0.104-0.696c0.616-3.72,1.184-7.52,1.72-11.368c0.12-0.856,0.248-1.712,0.36-2.576
		c0.536-4,1.032-8,1.464-12.128c0.08-0.736,0.144-1.48,0.224-2.224c0.384-3.776,0.723-7.595,1.016-11.456
		c0.048-0.672,0.104-1.328,0.152-2.008c0.304-4.232,0.528-8.512,0.704-12.84c0-0.968,0.072-1.936,0.104-2.904
		c0.136-4.464,0.24-8.952,0.24-13.496s-0.104-9.032-0.248-13.496c0-0.968-0.064-1.936-0.104-2.904
		c-0.176-4.328-0.4-8.608-0.704-12.84c-0.048-0.68-0.104-1.336-0.152-2.008c-0.293-3.861-0.632-7.68-1.016-11.456
		c-0.08-0.744-0.144-1.488-0.224-2.224c-0.432-4.104-0.928-8.144-1.464-12.128c-0.112-0.864-0.24-1.72-0.36-2.576
		c-0.536-3.848-1.104-7.648-1.72-11.368l-0.104-0.696c-0.656-3.912-1.36-7.736-2.08-11.512c-0.16-0.8-0.312-1.6-0.472-2.448
		c-0.728-3.672-1.48-7.296-2.256-10.824c-0.104-0.472-0.216-0.92-0.32-1.384c-0.72-3.243-1.461-6.416-2.224-9.52l-0.48-1.952
		c-0.827-3.317-1.667-6.549-2.52-9.696c-0.176-0.648-0.344-1.272-0.52-1.904c-0.8-2.917-1.6-5.76-2.4-8.528
		c-0.096-0.312-0.184-0.64-0.28-0.96c-0.88-2.976-1.76-5.832-2.64-8.608l-0.56-1.768c-0.872-2.72-1.736-5.368-2.592-7.88
		l-0.216-0.624c-0.8-2.4-1.6-4.632-2.4-6.808l-0.504-1.408c-0.8-2.224-1.6-4.344-2.344-6.344c-0.136-0.352-0.264-0.68-0.392-1.024
		c-0.72-1.864-1.408-3.64-2.064-5.296l-0.216-0.552c-0.704-1.768-1.368-3.376-1.992-4.88L116.288,64h247.424l-0.152,0.384
		c-0.624,1.504-1.288,3.112-1.992,4.88l-0.216,0.552c-0.656,1.656-1.344,3.432-2.064,5.296c-0.128,0.344-0.256,0.672-0.392,1.024
		c-0.752,2-1.536,4.12-2.344,6.344l-0.504,1.408c-0.8,2.176-1.6,4.432-2.4,6.808l-0.216,0.624c-0.856,2.512-1.72,5.16-2.592,7.88
		l-0.56,1.768c-0.88,2.776-1.76,5.6-2.64,8.608c-0.096,0.32-0.184,0.648-0.28,0.96c-0.805,2.757-1.605,5.6-2.4,8.528
		c-0.176,0.632-0.344,1.256-0.52,1.904c-0.853,3.147-1.693,6.379-2.52,9.696l-0.48,1.952c-0.757,3.109-1.499,6.283-2.224,9.52
		c-0.104,0.464-0.216,0.912-0.32,1.384c-0.8,3.528-1.528,7.152-2.256,10.824c-0.16,0.8-0.312,1.6-0.472,2.448
		c-0.72,3.776-1.424,7.6-2.08,11.512L333.984,169c-0.616,3.72-1.184,7.52-1.72,11.368c-0.12,0.856-0.248,1.712-0.36,2.576
		c-0.536,4-1.032,8-1.464,12.128c-0.08,0.736-0.144,1.48-0.224,2.224c-0.384,3.776-0.723,7.595-1.016,11.456
		c-0.048,0.672-0.104,1.328-0.152,2.008c-0.304,4.232-0.528,8.512-0.704,12.84c0,0.968-0.072,1.936-0.104,2.904
		c-0.136,4.464-0.24,8.952-0.24,13.496s0.104,9.032,0.248,13.496c0,0.968,0.064,1.936,0.104,2.904
		c0.176,4.328,0.4,8.608,0.704,12.84c0.048,0.68,0.104,1.336,0.152,2.008c0.299,3.867,0.637,7.685,1.016,11.456
		c0.08,0.744,0.144,1.488,0.224,2.224c0.432,4.104,0.928,8.144,1.464,12.128c0.112,0.864,0.24,1.72,0.36,2.576
		c0.536,3.848,1.104,7.648,1.72,11.368l0.104,0.696c0.656,3.912,1.36,7.736,2.08,11.512c0.16,0.8,0.312,1.6,0.472,2.448
		c0.728,3.672,1.48,7.296,2.256,10.824c0.104,0.472,0.216,0.92,0.32,1.384c0.72,3.243,1.461,6.416,2.224,9.52l0.48,1.952
		c0.821,3.323,1.661,6.555,2.52,9.696c0.176,0.648,0.344,1.272,0.52,1.904c0.8,2.923,1.6,5.765,2.4,8.528
		c0.096,0.312,0.184,0.64,0.28,0.96c0.88,2.976,1.76,5.832,2.64,8.608l0.56,1.768c0.872,2.72,1.736,5.368,2.592,7.88l0.216,0.624
		c0.8,2.4,1.6,4.632,2.4,6.808l0.504,1.408c0.8,2.224,1.6,4.344,2.344,6.344c0.136,0.352,0.264,0.68,0.392,1.024
		c0.72,1.864,1.408,3.64,2.064,5.296l0.216,0.552c0.704,1.768,1.368,3.376,1.992,4.88L363.72,416H116.288L116.44,415.616z
		 M376,403.504l-0.176-0.448c-0.64-1.6-1.296-3.368-1.992-5.208l-0.24-0.656c-0.624-1.664-1.264-3.424-1.912-5.24
		c-0.184-0.496-0.36-1-0.544-1.512c-0.744-2.104-1.504-4.288-2.288-6.584l-0.04-0.12c-0.744-2.216-1.504-4.544-2.272-6.92
		c-0.2-0.64-0.408-1.28-0.608-1.928c-0.736-2.32-1.472-4.696-2.216-7.152l-0.184-0.616c-0.8-2.64-1.6-5.384-2.4-8.184
		c-0.192-0.696-0.392-1.408-0.584-2.112c-0.672-2.459-1.341-4.971-2.008-7.536c-0.128-0.488-0.256-0.952-0.376-1.44
		c-0.76-2.968-1.504-6.016-2.232-9.12c-0.176-0.752-0.344-1.512-0.52-2.272c-0.608-2.624-1.197-5.291-1.768-8
		c-0.144-0.696-0.296-1.376-0.44-2.072c-0.677-3.264-1.328-6.584-1.952-9.96c-0.144-0.736-0.272-1.496-0.4-2.24
		c-0.533-2.827-1.021-5.691-1.464-8.592c-0.136-0.848-0.28-1.696-0.408-2.56c-0.533-3.52-1.045-7.088-1.536-10.704
		c-0.08-0.64-0.152-1.288-0.232-1.928c-0.392-3.096-0.744-6.24-1.072-9.408c-0.096-0.952-0.2-1.912-0.288-2.872
		c-0.368-3.752-0.688-7.528-0.952-11.36c0-0.44-0.048-0.888-0.08-1.328c-0.224-3.432-0.4-6.904-0.536-10.4
		c-0.04-1.04-0.08-2.08-0.112-3.12C344.088,248,344,244,344,240c0-4,0.088-8,0.208-11.92c0-1.04,0.072-2.08,0.112-3.12
		c0.136-3.488,0.312-6.96,0.536-10.4c0-0.44,0.048-0.888,0.08-1.328c0.264-3.832,0.584-7.608,0.952-11.36
		c0.088-0.96,0.192-1.92,0.288-2.872c0.328-3.2,0.68-6.312,1.072-9.408c0.08-0.64,0.152-1.288,0.232-1.928
		c0.469-3.616,0.981-7.184,1.536-10.704c0.128-0.856,0.272-1.704,0.408-2.56c0.464-2.901,0.952-5.768,1.464-8.6
		c0.128-0.744,0.256-1.496,0.4-2.232c0.624-3.376,1.275-6.696,1.952-9.96c0.144-0.696,0.296-1.376,0.44-2.072
		c0.576-2.715,1.165-5.381,1.768-8c0.176-0.8,0.344-1.52,0.52-2.272c0.728-3.104,1.472-6.152,2.232-9.12
		c0.12-0.488,0.248-0.952,0.376-1.44c0.661-2.565,1.331-5.077,2.008-7.536c0.192-0.704,0.392-1.416,0.584-2.112
		c0.8-2.8,1.6-5.544,2.4-8.184l0.184-0.616c0.744-2.456,1.48-4.8,2.216-7.152c0.2-0.648,0.408-1.288,0.608-1.928
		c0.8-2.4,1.528-4.704,2.272-6.92l0.04-0.12c0.8-2.296,1.544-4.48,2.288-6.584c0.184-0.512,0.36-1.016,0.544-1.512
		c0.648-1.816,1.288-3.576,1.912-5.24l0.24-0.656c0.696-1.848,1.36-3.568,1.992-5.208l0.136-0.44
		C396.395,128.635,407.235,184.02,408,240C407.235,295.98,396.395,351.365,376,403.504z M112,16h256v32H112V16z M104,76.496
		l0.176,0.448c0.632,1.64,1.296,3.36,1.992,5.208l0.24,0.656c0.624,1.664,1.264,3.424,1.912,5.24c0.184,0.496,0.36,1,0.544,1.512
		c0.744,2.104,1.504,4.288,2.288,6.584v0.12c0.744,2.216,1.504,4.544,2.272,6.92c0.2,0.64,0.408,1.28,0.608,1.928
		c0.736,2.32,1.472,4.696,2.216,7.152l0.184,0.616c0.8,2.64,1.6,5.384,2.36,8.184c0.192,0.696,0.392,1.408,0.584,2.112
		c0.672,2.459,1.341,4.971,2.008,7.536c0.128,0.488,0.256,0.952,0.376,1.44c0.76,2.968,1.504,6.016,2.232,9.12
		c0.176,0.752,0.344,1.512,0.52,2.272c0.608,2.624,1.197,5.291,1.768,8c0.144,0.696,0.296,1.376,0.44,2.072
		c0.683,3.264,1.333,6.584,1.952,9.96c0.144,0.736,0.272,1.488,0.4,2.232c0.533,2.832,1.021,5.699,1.464,8.6
		c0.136,0.856,0.28,1.704,0.408,2.56c0.533,3.52,1.045,7.088,1.536,10.704c0.08,0.64,0.152,1.288,0.232,1.928
		c0.392,3.096,0.744,6.24,1.072,9.408c0.096,0.952,0.2,1.912,0.288,2.872c0.368,3.752,0.688,7.528,0.952,11.36
		c0,0.44,0.048,0.888,0.08,1.328c0.224,3.432,0.4,6.904,0.536,10.4c0,1.04,0.08,2.08,0.112,3.12C135.912,232,136,236,136,240
		s-0.088,8-0.208,11.92c0,1.04-0.072,2.08-0.112,3.12c-0.136,3.488-0.312,6.96-0.536,10.4c0,0.44-0.048,0.888-0.08,1.328
		c-0.264,3.832-0.584,7.608-0.952,11.36c-0.088,0.96-0.192,1.92-0.288,2.872c-0.328,3.2-0.68,6.312-1.072,9.408
		c-0.08,0.64-0.152,1.288-0.232,1.928c-0.469,3.616-0.981,7.184-1.536,10.704c-0.128,0.864-0.272,1.712-0.408,2.56
		c-0.464,2.901-0.952,5.765-1.464,8.592c-0.128,0.744-0.256,1.504-0.4,2.24c-0.624,3.376-1.275,6.696-1.952,9.96
		c-0.144,0.696-0.296,1.376-0.44,2.072c-0.576,2.709-1.165,5.376-1.768,8c-0.176,0.76-0.344,1.52-0.52,2.272
		c-0.728,3.104-1.472,6.152-2.232,9.12c-0.12,0.488-0.248,0.952-0.376,1.44c-0.667,2.565-1.336,5.077-2.008,7.536
		c-0.192,0.704-0.392,1.416-0.584,2.112c-0.8,2.8-1.6,5.544-2.36,8.184l-0.184,0.616c-0.744,2.456-1.48,4.8-2.216,7.152
		c-0.2,0.648-0.408,1.288-0.608,1.928c-0.8,2.4-1.528,4.704-2.272,6.92v0.12c-0.8,2.296-1.544,4.48-2.288,6.584
		c-0.184,0.512-0.36,1.016-0.544,1.512c-0.648,1.816-1.288,3.576-1.912,5.24l-0.24,0.656c-0.696,1.84-1.352,3.568-1.992,5.208
		l-0.216,0.44C83.605,351.365,72.765,295.98,72,240C72.765,184.02,83.605,128.635,104,76.496z M368,464H112v-32h256V464z"/>
	<path style="fill:#231F20;" d="M246.576,184.8c-31.045,6.475-55.301,30.731-61.776,61.776c-3.002,13.669,0.934,27.939,10.52,38.136
		c7.739,7.515,18.185,11.585,28.968,11.288c3.062-0.011,6.118-0.278,9.136-0.8c31.045-6.475,55.301-30.731,61.776-61.776
		c5.389-21.465-7.642-43.235-29.107-48.624C259.687,183.192,252.982,183.192,246.576,184.8L246.576,184.8z M200.544,249.2
		c2.372-12,8.383-22.978,17.216-31.44c9.917-10.534,23.492-16.87,37.936-17.704c6.49-0.271,12.821,2.049,17.6,6.448
		c-11.088,10.53-23.6,19.452-37.168,26.504c-12.939,6.791-25.001,15.136-35.92,24.848
		C199.978,254.968,200.091,252.062,200.544,249.2z M279.456,230.8c-2.372,12-8.383,22.978-17.216,31.44
		c-18.04,18.048-43.408,23.16-55.512,11.248c11.086-10.527,23.595-19.446,37.16-26.496c12.939-6.791,25.001-15.136,35.92-24.848
		C280.032,225.033,279.914,227.939,279.456,230.8z"/>
</g>
<g>
</g>
<g>
</g>
<g>
</g>
<g>
</g>
<g>
</g>
<g>
</g>
<g>
</g>
<g>
</g>
<g>
</g>
<g>
</g>
<g>
</g>
<g>
</g>
<g>
</g>
<g>
</g>
<g>
</g>
</svg>
